<?xml version="1.0" encoding="UTF-8"?><svg xmlns="http://www.w3.org/2000/svg" xmlns:xlink="http://www.w3.org/1999/xlink" version="1.1" x="0px" y="0px" viewBox="0 0 5984.956 5984.956" xml:space="preserve"><g id="_x31_5-Actress"><circle cx="2992.478" cy="2992.478" r="2992.478" fill="#FC845B"/><path d="M3117.044 3532.455a2704.47 2704.47 0 0 0 3.038-56.052c.475-10.864-.731-20.73-3.25-29.631 7.147-27.278 14.015-54.571 20.446-81.864 17.219-73.056-59.929-134.522-122.874-123.507-12.312-54.188-74.992-80.411-127.518-64.908-21.321-4.95-44.172-3.968-64.49 4.35-6.393-44.975-53.468-70.682-99.57-67.478.098-.207.188-.415.287-.622 29.282-63.789-62.078-121.385-99.992-57.889-7.517 12.579-14.8 25.267-22.203 37.896-25.309-8.435-55.285-7.028-80.036 6.312 2.601-15.658 5.127-31.344 7.208-47.167 24.97-189.631 3.204-380.869-38.043-567.971-38.578-175.007-85.178-356.175-152.571-523.578-59.823-148.599-158.006-290.888-324.916-337.548-136.912-38.272-304.07-8.032-375.225 116.782-223.182 97.901-297.376 356.698-299.313 581.32-1.432 166.686 35.133 339.78 1.99 504.563-26.274 130.61-105.066 235.358-190.093 336.114-172.218 204.059-340.703 411.801-276.975 694.451 55.292 245.262 263.027 428.687 323.235 670.401 31.906 128.101-14.008 259.324-5.195 388.568 10.08 147.904 81.19 284.398 228.136 345.77 308.715 128.938 576.793-125.416 643.258-398.133 24.895-102.13 27.948-206.275 31.642-310.432 5.775-7.977 11.573-15.941 17.257-23.976 41.571 29.389 102.39 35.9 137.884-5.194 13.367-15.482 26.417-31.235 39.52-46.944 36.037 19.895 86.105 19.888 123.854-5.54 18.358 66.332 111.279 90.078 172.444 48.086 8.014 27.434 26.417 50.563 58.406 64.039 43.554 18.347 112.123 6.756 132.712-40.052 13.827-31.438 27.088-63.089 40.086-94.836 45.476 54.441 149.396 54.127 184.604-31.496 101.357-246.509 171.177-503.603 223.13-764.453 15.149-76.075-45.692-125.14-106.873-119.381z" fill="#263238"/><path d="M2992.478 5984.956c761.527 0 1456.468-284.614 1984.664-753.067-287.451-255.145-677.404-546.021-959.133-645.026-12.437-4.371-24.306-4.935-35.228-2.686-4.928-.594-9.966-.85-15.051-.904 5.565-180.398 10.528-360.817 15.793-541.229 9.632-330.051 21.241-660.502 22.58-990.69.377-92.979.742-185.956 1.301-278.932.582-95.925 12.877-198.682-17.834-290.849-20.077-60.26-80.476-70.844-122.279-42.33-14.923-.283-30.188 3.635-44.5 12.93-55.231 35.869-94.363 84.05-137.29 133.177-40.913 46.823-82.288 93.326-123.783 139.637-85.15 95.037-174.761 185.547-266.952 273.721-90.15 86.221-183.169 169.242-279.943 247.982-84.217 68.524-199.476 165.244-198.651 285.031-.993 1.692-1.955 3.42-2.754 5.308-23.798 56.182-18.268 109.438-15.117 169.075 3.091 58.504 8.693 116.794 10.713 175.381 3.961 114.778-.391 229.484-9.572 343.906-4.141 51.604-9.983 103.007-17.3 154.174-190.215-61.801-398.774-48.13-592.214-8.572-196.619 40.207-387.513 109.404-568.447 195.627-63.378 30.205-125.233 63.293-185.549 98.941-35.105 17.792-69.819 36.297-104.031 55.621-64.263 36.299-311.064 227.208-474.801 367.456 543.004 553.097 1299.055 896.318 2135.378 896.318z" fill="#F4C5A2"/><path d="M3248.247 3968.827c137.212 77.906 281.17 141.818 420.342 215.894 60.179 32.029 120.302 64.202 180.93 95.355 1.161-40.677 2.308-81.35 3.496-122.024 9.632-330.052 21.241-660.502 22.58-990.69.378-92.979.741-185.955 1.303-278.932.581-95.925 12.875-198.682-17.834-290.849-20.077-60.26-80.475-70.844-122.28-42.33-14.922-.283-30.188 3.635-44.501 12.93-55.229 35.869-94.36 84.05-137.289 133.177-40.915 46.823-82.288 93.326-123.783 139.637-85.15 95.037-174.76 185.547-266.951 273.72-90.151 86.221-183.168 169.242-279.942 247.982-76.612 62.335-178.877 148.007-196.112 253.146 184.8 120.705 368.006 243.95 560.041 352.984z" fill="#E5AC85"/><path d="M4368.802 2080.455c-26.205-114.254-133.481-194.279-245.46-212.621-75.831-12.423-150.179-.893-221.129 23.44 11.583-185.27 27.814-370.188 43.084-555.228 2.892-35.045-28.256-74.429-62.291-81.818-322.571-70.034-649.886-114.381-979.976-125.381-163.894-5.462-328.063-3.141-491.731 7.073-161.29 10.068-337.629 18.176-489.563 74.045-47.926 17.626-59.359 70.722-37.489 104.766-77.92 93.184-125.287 214.82-168.987 325.355-54.385 137.561-96.919 278.897-128.416 423.421-62.656 287.497-109.211 612.778 5.777 893.333 18.945 46.222 41.271 90.078 66.564 131.601 111.447 231.664 307.827 399.63 545.383 498.722 274.051 114.313 577.909 119.062 868.281 80.081 140.322-18.838 276.567-47.83 405.559-108.011 125.408-58.51 231.128-154.015 307.066-269.281 159.918-242.741 173.043-541.073 164.813-824.613 93.228-.438 187.302-13.318 266.771-63.274 107.365-67.489 181.251-192.951 151.744-321.61z" fill="#F4C5A2"/><path d="M2053.543 2226.279c-15.691-18.526-45.391-24.109-67.835-17.929-25.617 7.054-39.148 25.395-48.695 48.696-24.625 60.1 10.293 202.234 98.175 178.083 87.849-24.141 62.079-157.225 18.355-208.85z" fill="#5A4A42"/><path d="M2994.299 2226.279c15.691-18.526 45.391-24.109 67.835-17.929 25.617 7.054 39.148 25.395 48.695 48.696 24.625 60.1-10.293 202.234-98.175 178.083-87.849-24.141-62.079-157.225-18.355-208.85z" fill="#5A4A42"/><path d="M2701.428 2976.864c-2.858-10.702-13.984-16.189-24.389-13.848-76.928 17.324-122.484 87.076-208.641 80.212-84.578-6.739-124.869-79.643-195.903-112.518-13.117-6.071-25.652-.939-30.789 12.526-45.75 119.912 123.819 208.579 219.754 213.729 91.541 4.912 272.133-59.687 239.968-180.101z" fill="#5A4A42"/><path d="M2516.438 2706.715c-25.297-25.73-58.519-18.543-90.027-29.462-41.902-14.521-21.713-51.159-10.392-82.538l41.161-114.096c12.866-35.658 30.396-73.704 20.309-112.018-3.875-14.719-22.87-23.473-36.143-14.705-43.462 28.711-57.446 90.317-76.023 136.245-20.313 50.221-56.449 109.995-54.714 165.377 1.474 47.061 35.771 84.366 77.904 101.174 42.249 16.854 103.9 17.365 131.185-24.708 5.034-7.763 3.011-18.891-3.26-25.269z" fill="#5A4A42"/><path d="M3478.106 2761.299c-6.056-144.882-178.425-172.514-291.231-159.499-44.518 5.136-105.057 18.349-158.364 42.587-9.964 3.602-19.878 7.381-29.695 11.492-56.643 23.726-127.269 59.317-131.073 129.372-3.961 72.931 51.702 110.5 120.99 129.457 65.994 31.819 158.477 29.15 223.225 16.718 107.761-5.641 271.917-32.157 266.148-170.127z" fill="#ED896F"/><path d="M2987.568 2029.217c33.803 24.808 82.406 23.432 122.302 33.343 50.763 12.61 100.604 27.174 148.861 47.498 19.221 8.094 30.501-18.327 13.377-28.77-43.746-26.677-89.595-50.906-138.805-65.768-41.225-12.451-98.869-34.023-140.476-15.394-10.921 4.89-16.547 20.807-5.259 29.091z" fill="#37474F"/><path d="M2089.674 1999.978c-33.803 24.808-82.406 23.432-122.302 33.343-50.763 12.61-100.604 27.174-148.861 47.498-19.222 8.094-30.501-18.327-13.377-28.77 43.746-26.677 89.595-50.906 138.805-65.768 41.225-12.451 98.869-34.023 140.475-15.394 10.922 4.89 16.548 20.807 5.26 29.091z" fill="#37474F"/><path d="M2064.823 2802.9c-7.306-4.875-14.383-10.126-21.352-15.563-4.247-16.958-13.282-34.353-28.059-51.131-37.328-42.384-93.706-68.348-142.361-94.854-46.138-25.135-99.788-55.091-153.543-35.904-11.975 4.274-22.052 9.732-30.576 16.041-5.622 1.987-11.196 4.268-16.667 7.1a153.197 153.197 0 0 0-16.415 9.857c-17.409 2.852-34.061 9.374-49.075 21.661-34.888 28.549-47.571 78.76-21.384 117.76 6.096 9.077 13.864 16.861 22.645 23.734 41.969 76.378 168.103 107.7 258.584 114.8 63.093 10.481 127.444-1.881 185.971-30.39 14.167-6.9 22.662-23 23.921-39.371 7.312-13.994 4.583-32.879-11.689-43.74z" fill="#ED896F"/><path d="M4228.317 4683.729c-8.841-46.389-65.947-77.517-103.763-37.456-58.835 62.327-88.344 157.201-120.649 235.548-36.541 88.615-70.79 178.156-104.1 268.022-31.935 86.146-63.866 172.294-95.801 258.441-22.386 60.394-51.558 122.495-71.135 185.754-67.51-15.593-135.135-30.686-202.814-45.741-250.063-55.63-500.091-111.386-750.36-166.08-196.519-42.95-393.035-85.898-589.554-128.846 10.04-37.696 15.993-76.634 19.258-114.194 53.13-236.157 79.548-478.465 82.06-720.512 1.447-22.042 2.708-44.095 3.958-66.147-35.516 5.147-70.753 11.371-105.487 18.475-80.616 16.485-160.244 37.913-238.642 63.319-13.527 95.018-27.717 189.959-42.32 284.845-34.377 142.646-69.788 285.087-102.924 427.823 8.29 129.442-55.744 278.598-99.5 382.316-19.309 45.772-40.402 90.56-62.22 134.956 405.127 204.989 863.055 320.704 1348.153 320.704 400.107 0 781.675-78.863 1130.484-221.399 6.398-23.885 18.967-45.795 37.634-62.225 80.915-250.985 155.141-503.999 215.805-760.605 13.741-47.459 27.511-94.911 41.364-142.334-64.371-42.319-127.974-80.994-189.447-114.664z" fill="#AD1457"/><path d="M4896.812 2795.399c-75.641-200.054-220.368-392.323-237.896-610.323-9.658-120.091 30.453-233.426 55.738-349.101 24.549-112.307 34.711-228.63.382-340.122-83.218-270.289-370.615-474.851-663.868-519.705 44.794-234.845-275.905-439.747-466.607-497.578-123.517-37.457-254.626-43.136-381.223-19.414-135.261 25.344-258.473 89.662-386.311 137.609-131.919 49.477-254.546 67.359-393.572 37.883-142.61-30.236-282.1-80.108-429.265-83.806-276.061-6.939-537.725 155.853-716.185 356.257-175.515 197.1-282.271 471.27-177.004 728.76 105.21 257.353 372.567 340.881 630.975 326.082 309.594-17.731 623.495-101.491 913.423-208.047 268.188-98.564 527.791-226.161 764.834-386.373-5.905 42.208-5.182 85.277 3.445 127.702 16.892 83.06 66.849 149.273 126.106 206.493 64.985 78.63 128.723 152.751 181.331 241.678 2.523 4.264 5.471 7.522 8.587 10.25 22.839 95.906 18.698 193.833-12.477 288.074-38.533 116.477-99.905 223.007-112.844 346.983-11.621 111.351 26.943 215.501 81.195 310.891 39.315 69.124 89.894 135.465 120.301 209.687 1.844 29.356 2.902 58.757 2.814 88.128-.206 68.892-7.529 136.55-17.477 203.924-7.728 19.051-16.073 37.74-24.623 55.93-52.702 112.138-114.028 220.674-149.627 340.028-37.662 126.284-50.35 258.973-63.569 389.58-3.028 29.926-6.167 59.811-9.637 89.624-.976 2.893-1.941 5.842-2.934 8.614-10.633 29.685-22.22 58.864-34.397 87.83-.887.987-1.786 2.024-2.674 3.006-119.148 132.045-250.408 268.745-253.77 458.049-3.918 220.654 151.605 405.109 346.651 489.304 202.994 87.622 440.092 83.742 643.885.437 203.12-83.03 369.485-239.726 459.253-440.838 44.201-99.027 70.981-203.297 77.365-311.742 7.451-126.586-18.23-251.982-25.574-377.948-7.366-126.289 18.365-236.112 66.543-352.317 45.005-108.558 94.911-214.08 121.831-329.093 55.158-235.664 42.664-489.5-43.125-716.396z" fill="#37474F"/><path d="M4193.946 2070.926c6.492 99.141 12.24 204.743-19.943 300.2-19.683 58.385-47.642 113.788-73.724 169.486-.916 1.955-1.815 4.111-2.717 6.326-.085.317-.137.518-.223.848a503.122 503.122 0 0 1-4.609 16.224c2.942 13.071-1.028 23.284-4.124 26.268-.214 1.878-.396 3.582-.485 4.854a80.778 80.778 0 0 1-.262 3.027c.271 1.958.531 3.847.822 5.998-.068-.516.077 3.681.337 9.793.011.02.023.041.037.061-.291-3.711.377-2.561 1.909 2.992a11706.54 11706.54 0 0 0 12.092 18.912c1.613 2.509 7.814 11.416 14.124 20.434 4.652 6.171 13.724 18.425 16.741 22.268a6696.006 6696.006 0 0 1 50.907 65.727c12.997 16.988 26.013 33.991 37.756 51.884 31.361 47.776 57.379 103.969 71.854 158.941 34.269 130.168 8.271 290.654-15.565 419.646-17.112 92.608-44.829 182.783-73.789 272.253-30.961 95.657-63.355 190.989-86.426 288.954-6.221 26.424-11.732 53.012-16.45 79.746-1.044 6.653-3.068 19.073-3.553 24.063-.291 2.997-.468 6.012-.739 9.013 14.241 165.977 140.684 299.348 166.679 467.749 16.044 103.951-7.583 204.757-34.323 304.842-20.836 77.991-47.317 160.429-6.77 236.596 33.63 63.178 84.249 90.513 136.511 81.951 80.721-13.225 165.569-74.09 227.246-124.108 25.999-21.084 52.146-43.304 78.618-65.804 12.226-21.803 23.618-44.159 33.892-67.175 44.201-99.027 70.981-203.297 77.365-311.742 7.451-126.586-18.23-251.982-25.574-377.948-7.366-126.289 18.365-236.112 66.543-352.317 45.005-108.558 94.911-214.08 121.831-329.093 55.159-235.66 42.665-489.496-43.125-716.392-75.641-200.054-220.368-392.323-237.896-610.323-9.658-120.091 30.453-233.426 55.738-349.101 24.549-112.307 34.711-228.63.382-340.122-83.218-270.289-370.615-474.851-663.868-519.705 44.794-234.845-275.905-439.747-466.607-497.578-123.517-37.457-254.626-43.136-381.223-19.414-135.261 25.344-258.473 89.662-386.311 137.609-131.919 49.477-254.546 67.359-393.572 37.883-142.61-30.236-282.1-80.108-429.265-83.806-276.061-6.939-537.725 155.853-716.185 356.257-101.854 114.379-180.44 254.727-207.989 402.692 21.672 20.399 44.323 39.484 66.94 58.799.622.452 1.233.916 1.855 1.364a1069.328 1069.328 0 0 0 39.828 27.325c27.719 18.1 56.289 34.927 85.764 50.016 2.823 1.446 5.716 2.801 8.619 4.145-15.154-8.085-20.151-13.763 21.29 9.28 39.957 13.786 81.158 22.061 122.619 30.008a88.904 88.904 0 0 1 6.844 1.585c7.537.325 14.683.331 16.741.488 24.36 1.854 48.807 2.76 73.235 2.857 27.069.109 54.137-.932 81.135-2.906 10.377-.759 20.736-1.959 31.107-2.788 39.857-7.032 79.426-14.538 118.726-24.553 97.918-24.951 192.609-59.902 286.121-97.869 10.108-4.437 20.262-8.764 30.373-13.193 22.077-9.672 44.098-19.482 66.09-29.349 43.938-19.714 87.753-39.698 131.697-59.406 193.708-86.879 389.43-168.141 596.954-215.682 341.432-78.219 698.854-70.029 981.884 157.043 255.03 204.598 335.806 553.835 356.111 863.967z" fill="#263238"/></g><metadata><rdf:RDF xmlns:rdf="http://www.w3.org/1999/02/22-rdf-syntax-ns#" xmlns:rdfs="http://www.w3.org/2000/01/rdf-schema#" xmlns:dc="http://purl.org/dc/elements/1.1/"><rdf:Description about="https://iconscout.com/legal#licenses" dc:title="-actress" dc:description="-actress" dc:publisher="Iconscout" dc:date="2018-02-21" dc:format="image/svg+xml" dc:language="en"><dc:creator><rdf:Bag><rdf:li>Sooodesign .</rdf:li></rdf:Bag></dc:creator></rdf:Description></rdf:RDF></metadata></svg>