<?xml version="1.0" encoding="UTF-8"?><svg xmlns="http://www.w3.org/2000/svg" xmlns:xlink="http://www.w3.org/1999/xlink" version="1.1" x="0px" y="0px" viewBox="0 0 5984.956 5984.956" xml:space="preserve"><g id="_x31_6-Artist"><path d="M2992.478 0C1339.78 0 0 1339.778 0 2992.478s1339.78 2992.478 2992.478 2992.478 2992.478-1339.778 2992.478-2992.478S4645.176 0 2992.478 0z" fill="#553999"/><path d="M3989.571 2481.573c-20.077-60.26-80.475-70.844-122.28-42.329-14.922-.283-30.188 3.635-44.501 12.93-55.229 35.869-94.36 84.05-137.289 133.177-40.915 46.823-82.288 93.326-123.783 139.637-85.15 95.037-174.76 185.547-266.951 273.721-90.151 86.221-183.168 169.242-279.942 247.981-84.22 68.524-199.476 165.244-198.651 285.031-.994 1.692-1.954 3.42-2.754 5.308-23.799 56.182-18.268 109.437-15.116 169.075 3.091 58.504 8.693 116.794 10.714 175.381 3.961 114.779-.393 229.484-9.573 343.906-18.264 227.61-67.998 451.521-144.049 666.808-19.581 55.427 17.561 118.375 69.254 140.286 22.57 19.298 52.348 31.175 84.438 34.564 337.044 35.588 674.09 71.158 1011.146 106.643 72.689 7.652 128.664-66.458 131.338-131.338 13.746-333.332 22.218-666.839 31.95-1000.31 9.632-330.051 21.241-660.501 22.58-990.69.378-92.979.741-185.956 1.303-278.932.581-95.924 12.875-198.682-17.834-290.849z" fill="#F4C5A2"/><path d="M2992.478 5984.956c768.425 0 1469.099-289.75 1999.016-765.805-265-260.447-626.976-510.519-973.485-632.289-12.437-4.371-24.306-4.935-35.228-2.686-2.469-.298-4.974-.483-7.486-.646-59.831 71.034-137.658 127.957-220.594 167.081-221.148 104.323-499.889 132.354-731.673 44.641-128.397-48.589-230.851-125.446-305.433-241.428-10.591 3.151-21.606 5.331-32.936 6.215-181.199 14.149-357.025 71.271-530.177 123.254-176.999 53.138-351.3 110.556-522.175 181.353-165.192 68.444-325.792 145.97-483.057 230.946-39.049 21.1-111.837 67.081-175.443 105.831 532.181 486.61 1240.726 783.533 2018.671 783.533z" fill="#F48FB1"/><path d="M3248.247 3968.827c137.212 77.906 281.17 141.818 420.342 215.894 60.179 32.029 120.302 64.202 180.93 95.355 1.161-40.677 2.308-81.35 3.496-122.024 9.632-330.052 21.241-660.502 22.58-990.69.378-92.979.741-185.955 1.303-278.932.581-95.925 12.875-198.682-17.834-290.849-20.077-60.26-80.475-70.844-122.28-42.33-14.922-.283-30.188 3.635-44.501 12.93-55.229 35.869-94.36 84.05-137.289 133.177-40.915 46.823-82.288 93.326-123.783 139.637-85.15 95.037-174.76 185.547-266.951 273.72-90.151 86.221-183.168 169.242-279.942 247.982-76.612 62.335-178.877 148.007-196.112 253.146 184.8 120.705 368.006 243.95 560.041 352.984z" fill="#E5AC85"/><path d="M4368.802 2080.455c-26.205-114.254-133.481-194.279-245.46-212.621-75.831-12.423-150.179-.893-221.129 23.44 11.583-185.27 27.814-370.188 43.084-555.228 2.892-35.045-28.256-74.429-62.291-81.818-322.571-70.034-649.886-114.381-979.976-125.381-163.894-5.462-328.063-3.141-491.731 7.073-161.29 10.068-337.629 18.176-489.563 74.045-47.926 17.626-59.359 70.722-37.489 104.766-77.92 93.184-125.287 214.82-168.987 325.355-54.385 137.561-96.919 278.897-128.416 423.421-62.656 287.497-109.211 612.778 5.777 893.333 18.945 46.222 41.271 90.078 66.564 131.601 111.447 231.664 307.827 399.63 545.383 498.722 274.051 114.313 577.909 119.062 868.281 80.081 140.322-18.838 276.567-47.83 405.559-108.011 125.408-58.51 231.128-154.015 307.066-269.281 159.918-242.741 173.043-541.073 164.813-824.613 93.228-.438 187.302-13.318 266.771-63.274 107.365-67.489 181.251-192.951 151.744-321.61z" fill="#F4C5A2"/><path d="M2053.543 2226.279c-15.691-18.526-45.391-24.109-67.835-17.929-25.617 7.054-39.148 25.395-48.695 48.696-24.625 60.1 10.293 202.234 98.175 178.083 87.849-24.141 62.079-157.225 18.355-208.85z" fill="#5A4A42"/><path d="M2994.299 2226.279c15.691-18.526 45.391-24.109 67.835-17.929 25.617 7.054 39.148 25.395 48.695 48.696 24.625 60.1-10.293 202.234-98.175 178.083-87.849-24.141-62.079-157.225-18.355-208.85z" fill="#5A4A42"/><path d="M2647.077 2992.301c-2.188-8.192-10.705-12.394-18.67-10.601-58.891 13.262-93.765 66.659-159.722 61.405-64.747-5.159-95.591-60.969-149.97-86.136-10.042-4.647-19.637-.719-23.57 9.589-35.023 91.797 94.787 159.674 168.229 163.617 70.077 3.76 208.326-45.692 183.703-137.874z" fill="#5A4A42"/><path d="M2516.438 2706.715c-25.297-25.73-58.519-18.543-90.027-29.462-41.902-14.521-21.713-51.159-10.392-82.538l41.161-114.096c12.866-35.658 30.396-73.704 20.309-112.018-3.875-14.719-22.87-23.473-36.143-14.705-43.462 28.711-57.446 90.317-76.023 136.245-20.313 50.221-56.449 109.995-54.714 165.377 1.474 47.061 35.771 84.366 77.904 101.174 42.249 16.854 103.9 17.365 131.185-24.708 5.034-7.763 3.011-18.891-3.26-25.269z" fill="#5A4A42"/><path d="M3478.106 2761.299c-6.056-144.882-178.425-172.514-291.231-159.499-44.518 5.136-105.057 18.349-158.364 42.587-9.964 3.602-19.878 7.381-29.695 11.492-56.643 23.726-127.269 59.317-131.073 129.372-3.961 72.931 51.702 110.5 120.99 129.457 65.994 31.819 158.477 29.15 223.225 16.718 107.761-5.641 271.917-32.157 266.148-170.127z" fill="#ED896F"/><path d="M2987.568 2029.217c33.803 24.808 82.406 23.432 122.302 33.343 50.763 12.61 100.604 27.174 148.861 47.498 19.221 8.094 30.501-18.327 13.377-28.77-43.746-26.677-89.595-50.906-138.805-65.768-41.225-12.451-98.869-34.023-140.476-15.394-10.921 4.89-16.547 20.807-5.259 29.091z" fill="#37474F"/><path d="M2089.674 1999.978c-33.803 24.808-82.406 23.432-122.302 33.343-50.763 12.61-100.604 27.174-148.861 47.498-19.222 8.094-30.501-18.327-13.377-28.77 43.746-26.677 89.595-50.906 138.805-65.768 41.225-12.451 98.869-34.023 140.475-15.394 10.922 4.89 16.548 20.807 5.26 29.091z" fill="#37474F"/><path d="M2037.785 2717.548c-2.46-10.576-7.428-21.781-15.605-33.545-10.782-15.518-25.784-27.746-42.459-38.083-12.957-10.678-25.964-19.958-36.88-27.344-64.437-43.603-155.264-79.349-234.335-72.044-25.676 2.372-47.011 12.769-62.514 27.821-12.089 8.059-20.545 19.866-22.894 36.488-9.389 28.367-4.743 61.722 19.044 90.976 56.675 69.7 183.691 99.956 268.076 111.255 1.41.189 2.845.308 4.269.448 44.363 5.884 88.538 1.705 112.778-29.664 17.244-22.315 18.38-44.925 10.52-66.308z" fill="#ED896F"/><path d="M4695.627 1143.496c-163.611-281.154-444.347-495.034-760.728-572.944-3.844-.947-7.74-1.846-11.615-2.763-173.668-58.748-357.213-63.13-525.79 27.919-95.981 51.841-169.893 137.041-208.799 238.528-38.755 101.084-48.344 253.653 66.432 310.673 19.098 9.488 46.749 9.933 66.512-1.456 6.315 11.544 16.584 21.8 31.769 29.324 57.063 29.705 114.031 59.606 170.983 89.539 206.607 113.517 406.091 242.534 599.109 378.755 87.507 74.642 175.026 149.269 262.474 223.979 14.25 12.173 32.982 17.172 51.626 16.431a3397.43 3397.43 0 0 0 33.225 31.744c-2.397 2.922-4.797 5.848-7.177 8.866-32.292 40.915-10.99 92.346 40.682 98.216 161.271 18.32 290.553-179.364 316.072-316.493 36.193-194.512-27.291-392.8-124.775-560.318z" fill="#F9A825"/><path d="M4695.627 1143.496c-9.149-15.724-18.722-31.204-28.59-46.496-.851 22.157-2.26 44.173-4.384 65.935-22.066 226.389-135.09 428.471-282.057 598.419-16.267 18.81-33.433 37.273-51.278 55.349 18.881 16.12 37.779 32.22 56.655 48.346 14.25 12.173 32.982 17.172 51.626 16.431a3397.43 3397.43 0 0 0 33.225 31.744c-2.397 2.922-4.797 5.848-7.177 8.866-32.292 40.915-10.99 92.346 40.682 98.216 161.271 18.32 290.553-179.364 316.072-316.493 36.194-194.511-27.29-392.799-124.774-560.317z" fill="#F57F17"/><path d="M4613.145 1892.881c-102.67-530.612-518.208-974.518-1044.052-1102.441-148.115-36.033-303.21-49.516-455.195-37.262-76.506 6.169-154.034 17.067-228.445 36.115-35.496 9.087-67.636 20.212-98.412 33.467-29.737-14.017-60.153-26.808-90.978-38.383-2.312-.243-4.626-.419-6.938-.743-230.408-32.254-434.681 33.184-634.81 142.272-331.617 180.761-663.306 413.011-859.785 743.259-50.556 84.976-92.824 175.131-126.029 268.471-25.345 155.656-20.696 318.215-8.245 472.327 18.596 230.152 58.581 459.211 116.548 683.663 72.673 244.422 154.573 488.209 277.968 712.155 58.929 106.948 129.987 205.397 202.686 303.255 32.717 44.035 67.528 86.633 105.929 125.86 16.121 16.467 37.508 37.58 53.464 49.579 3.333 2.504 17.617 12.024 24.509 16.203-.474-.288 35.462 18.206 20.576 12.25 12.543 5.02 24.338 11.293 35.102 18.641 11.764-15.123 18.35-33.737 15.776-54.518-4.386-35.446-10.374-65.577-20.414-96.425-74.648-90.675-124.08-206.367-167.695-310.698-70.13-167.759-127.738-340.934-170.88-517.584-49.631-203.226-75.65-409.472-75.045-618.599.3-102.89 4.689-222.46 43.19-324.278 1.909-32.031 3.499-63.937 4.361-95.613.245-9.04.457-18.081.702-27.122 177.073-313.118 595.167-459.713 897.353-624.635 152.689-83.332 324.154-187.614 437.84-329.251 22.954-14.702 45.505-30.043 67.448-46.019 64.483 180 187.589 342.043 326.292 469.021 106.2 97.22 227.226 177.28 359.391 234.509 127.205 55.081 253.196 82.144 389.385 103.744 58.178 9.228 120.318 18.723 174.695 42.481 33.305 14.55 60.818 35.864 63.216 59.513 5.371 53.037-46.081 100.397-83.535 129.722-62.274 48.759-132.376 85.951-191.425 139.304-132.127 119.387-150.044 284.19-133.594 451.787 8.073 82.24 15.142 162.92 7.797 245.575-7.745 87.16-31.033 172.875-54.537 256.886-49.994 178.694-114.562 352.588-140.378 537.194-25.733 183.999-31.972 413.981 120.064 547.685 51.623 45.398 156.899 19.484 149.662-61.992-13.787-155.228-47.642-301.768-23.042-458.456 25.647-163.351 83.389-319.117 128.8-477.473 19.469-67.888 36.29-137.098 48.27-207.018 426.692-326.691 645.306-874.659 542.41-1406.428z" fill="#F57F17"/><path d="M1571.404 1243.43c16.598 3.807 33.296 6.968 49.92 10.668 1.213.27 2.232.508 3.316.757 1.832.038 3.824.093 6.079.172 39.158 1.38 77.762 3.931 117.013 2.38 19.363-.766 38.701-2.102 57.996-3.899a1201.55 1201.55 0 0 0 38.51-4.242l-31.144 3.914c33.002 4.406 82.442-14.968 114.776-22.376 292.32-66.975 571.424-191.864 876.354-190.215 509.763 2.757 1038.456 242.824 1349.237 649.807 147.159 192.714 230.876 444.209 204.504 687.508-16.826 155.216-66.006 300.508-108.498 450.043-22.151 77.948-43.079 156.282-59.868 235.58-7.942 37.526-14.115 75.278-20.964 113-.502 2.762-.936 5.078-1.335 7.203-.068.677-.125 1.251-.2 1.971-1.239 12.037-2.548 24.061-3.81 36.09 365.053-331.661 545.011-837.14 449.855-1328.908-102.67-530.612-518.208-974.518-1044.052-1102.441-148.115-36.033-303.21-49.516-455.195-37.262-76.506 6.169-154.034 17.067-228.445 36.115-35.496 9.087-67.636 20.212-98.412 33.467-29.737-14.017-60.153-26.808-90.978-38.383-2.312-.243-4.626-.419-6.938-.743-230.408-32.254-434.681 33.184-634.81 142.272-166.685 90.857-333.37 194.741-482.911 317.522z" fill="#E86605"/></g><metadata><rdf:RDF xmlns:rdf="http://www.w3.org/1999/02/22-rdf-syntax-ns#" xmlns:rdfs="http://www.w3.org/2000/01/rdf-schema#" xmlns:dc="http://purl.org/dc/elements/1.1/"><rdf:Description about="https://iconscout.com/legal#licenses" dc:title="-artist" dc:description="-artist" dc:publisher="Iconscout" dc:date="2018-02-21" dc:format="image/svg+xml" dc:language="en"><dc:creator><rdf:Bag><rdf:li>Sooodesign .</rdf:li></rdf:Bag></dc:creator></rdf:Description></rdf:RDF></metadata></svg>