<?xml version="1.0" encoding="UTF-8"?><svg xmlns="http://www.w3.org/2000/svg" xmlns:xlink="http://www.w3.org/1999/xlink" version="1.1" x="0px" y="0px" viewBox="0 0 5984.956 5984.956" xml:space="preserve"><g id="_x37_-Assistant"><circle cx="2992.478" cy="2992.478" r="2992.478" fill="#FC845B"/><path d="M2372.439 4427.471c170.812-15.82 341.993-28.04 513.437-32.47 2.532-8.955 3.602-18.389 2.766-28.104-22.269-259.01-42.225-518.221-76.642-775.673-.519.006-.995.078-1.516.078-142.958.037-283.06-33.996-419.093-77.163-86.82-27.55-176.014-52.69-262.807-82.854-.465 4.049-1.013 8.092-1.465 12.141-1.279-4.66-2.598-9.303-3.88-13.96-30.329-10.626-60.353-21.875-89.855-34.106-27.054-11.216-52.161-23.987-75.884-38.033-2.346 4.044-4.408 8.343-6.002 13.014-2.691-7.178-5.322-14.368-8.012-21.547-87.782-55.24-155.974-129.242-227.725-213.881-57.66-68.014-72.246-991.657-128.929-1060.05-106.068-882.547-112.549 799.991-116.894 809.489-48.745 106.576 36.423 338.821 46.305 452.249 10.925 125.437 41.344 247.943 101.727 357.551 18.053 32.772 22.197 64.809 16.891 93.71 82.068 93.968 166.704 185.511 253.551 274.618 43.274 44.399 87.249 88.049 131.412 131.502 85.178 51.278 170.587 102.221 252.736 158.628 34.114 23.424 66.52 50.014 99.879 74.861z" fill="#263238"/><path d="M2992.478 5984.956c761.527 0 1456.468-284.614 1984.664-753.067-287.451-255.145-677.404-546.021-959.133-645.026-12.437-4.371-24.306-4.935-35.228-2.686-4.928-.594-9.966-.85-15.051-.904 5.565-180.398 10.528-360.817 15.793-541.229 9.632-330.051 21.241-660.502 22.58-990.69.377-92.979.742-185.956 1.301-278.932.582-95.925 12.877-198.682-17.834-290.849-20.077-60.26-80.476-70.844-122.279-42.33-14.923-.283-30.188 3.635-44.5 12.93-55.231 35.869-94.363 84.05-137.29 133.177-40.913 46.823-82.288 93.326-123.783 139.637-85.15 95.037-174.761 185.547-266.952 273.721-90.15 86.221-183.169 169.242-279.943 247.982-84.217 68.524-199.476 165.244-198.651 285.031-.993 1.692-1.955 3.42-2.754 5.308-23.798 56.182-18.268 109.438-15.117 169.075 3.091 58.504 8.693 116.794 10.713 175.381 3.961 114.778-.391 229.484-9.572 343.906-4.141 51.604-9.983 103.007-17.3 154.174-190.215-61.801-398.774-48.13-592.214-8.572-196.619 40.207-387.513 109.404-568.447 195.627-63.378 30.205-125.233 63.293-185.549 98.941-35.105 17.792-69.819 36.297-104.031 55.621-64.263 36.299-311.064 227.208-474.801 367.456 543.004 553.097 1299.055 896.318 2135.378 896.318z" fill="#F4C5A2"/><path d="M2992.478 5984.956c761.527 0 1456.468-284.614 1984.664-753.067-80.182-71.171-168.352-145.118-259.912-216.91-199.104 73.574-400.327 139.593-608.606 183.759-247.66 52.516-499.875 73.541-752.914 71.242-486.524-4.421-973.682-108.482-1417.675-308.327-180.754-81.359-354.22-177.689-519.118-287.237-29.292 15.096-58.364 30.584-87.014 46.767-64.263 36.299-311.064 227.208-474.801 367.456 543.002 553.096 1299.053 896.317 2135.376 896.317z" fill="#6A1B9A"/><path d="M3248.247 3968.827c137.212 77.906 281.17 141.818 420.342 215.894 60.179 32.029 120.302 64.202 180.93 95.355 1.161-40.677 2.308-81.35 3.496-122.024 9.632-330.052 21.241-660.502 22.58-990.69.378-92.979.741-185.955 1.303-278.932.581-95.925 12.875-198.682-17.834-290.849-20.077-60.26-80.475-70.844-122.28-42.33-14.922-.283-30.188 3.635-44.501 12.93-55.229 35.869-94.36 84.05-137.289 133.177-40.915 46.823-82.288 93.326-123.783 139.637-85.15 95.037-174.76 185.547-266.951 273.72-90.151 86.221-183.168 169.242-279.942 247.982-76.612 62.335-178.877 148.007-196.112 253.146 184.8 120.705 368.006 243.95 560.041 352.984z" fill="#E5AC85"/><path d="M4368.802 2080.455c-26.205-114.254-133.481-194.279-245.46-212.621-75.831-12.423-150.179-.893-221.129 23.44 11.583-185.27 27.814-370.188 43.084-555.228 2.892-35.045-28.256-74.429-62.291-81.818-322.571-70.034-649.886-114.381-979.976-125.381-163.894-5.462-328.063-3.141-491.731 7.073-161.29 10.068-337.629 18.176-489.563 74.045-47.926 17.626-59.359 70.722-37.489 104.766-77.92 93.184-125.287 214.82-168.987 325.355-54.385 137.561-96.919 278.897-128.416 423.421-62.656 287.497-109.211 612.778 5.777 893.333 18.945 46.222 41.271 90.078 66.564 131.601 111.447 231.664 307.827 399.63 545.383 498.722 274.051 114.313 577.909 119.062 868.281 80.081 140.322-18.838 276.567-47.83 405.559-108.011 125.408-58.51 231.128-154.015 307.066-269.281 159.918-242.741 173.043-541.073 164.813-824.613 93.228-.438 187.302-13.318 266.771-63.274 107.365-67.489 181.251-192.951 151.744-321.61z" fill="#F4C5A2"/><path d="M2053.543 2226.279c-15.691-18.526-45.391-24.109-67.835-17.929-25.617 7.054-39.148 25.395-48.695 48.696-24.625 60.1 10.293 202.234 98.175 178.083 87.849-24.141 62.079-157.225 18.355-208.85z" fill="#5A4A42"/><path d="M2994.299 2226.279c15.691-18.526 45.391-24.109 67.835-17.929 25.617 7.054 39.148 25.395 48.695 48.696 24.625 60.1-10.293 202.234-98.175 178.083-87.849-24.141-62.079-157.225-18.355-208.85z" fill="#5A4A42"/><path d="M2701.428 2976.864c-2.858-10.702-13.984-16.189-24.389-13.848-76.928 17.324-122.484 87.076-208.641 80.212-84.578-6.739-124.869-79.643-195.903-112.518-13.117-6.071-25.652-.939-30.789 12.526-45.75 119.912 123.819 208.579 219.754 213.729 91.541 4.912 272.133-59.687 239.968-180.101z" fill="#5A4A42"/><path d="M2516.438 2706.715c-25.297-25.73-58.519-18.543-90.027-29.462-41.902-14.521-21.713-51.159-10.392-82.538l41.161-114.096c12.866-35.658 30.396-73.704 20.309-112.018-3.875-14.719-22.87-23.473-36.143-14.705-43.462 28.711-57.446 90.317-76.023 136.245-20.313 50.221-56.449 109.995-54.714 165.377 1.474 47.061 35.771 84.366 77.904 101.174 42.249 16.854 103.9 17.365 131.185-24.708 5.034-7.763 3.011-18.891-3.26-25.269z" fill="#5A4A42"/><path d="M3478.106 2761.299c-6.056-144.882-178.425-172.514-291.231-159.499-44.518 5.136-105.057 18.349-158.364 42.587-9.964 3.602-19.878 7.381-29.695 11.492-56.643 23.726-127.269 59.317-131.073 129.372-3.961 72.931 51.702 110.5 120.99 129.457 65.994 31.819 158.477 29.15 223.225 16.718 107.761-5.641 271.917-32.157 266.148-170.127z" fill="#ED896F"/><path d="M2987.568 2029.217c33.803 24.808 82.406 23.432 122.302 33.343 50.763 12.61 100.604 27.174 148.861 47.498 19.221 8.094 30.501-18.327 13.377-28.77-43.746-26.677-89.595-50.906-138.805-65.768-41.225-12.451-98.869-34.023-140.476-15.394-10.921 4.89-16.547 20.807-5.259 29.091z" fill="#5A4A42"/><path d="M2089.674 1999.978c-33.803 24.808-82.406 23.432-122.302 33.343-50.763 12.61-100.604 27.174-148.861 47.498-19.222 8.094-30.501-18.327-13.377-28.77 43.746-26.677 89.595-50.906 138.805-65.768 41.225-12.451 98.869-34.023 140.475-15.394 10.922 4.89 16.548 20.807 5.26 29.091z" fill="#5A4A42"/><path d="M2064.823 2802.9c-7.306-4.875-14.383-10.126-21.352-15.563-4.247-16.958-13.282-34.353-28.059-51.131-37.328-42.384-93.706-68.348-142.361-94.854-46.138-25.135-99.788-55.091-153.543-35.904-11.975 4.274-22.052 9.732-30.576 16.041-5.622 1.987-11.196 4.268-16.667 7.1a153.197 153.197 0 0 0-16.415 9.857c-17.409 2.852-34.061 9.374-49.075 21.661-34.888 28.549-47.571 78.76-21.384 117.76 6.096 9.077 13.864 16.861 22.645 23.734 41.969 76.378 168.103 107.7 258.584 114.8 63.093 10.481 127.444-1.881 185.971-30.39 14.167-6.9 22.662-23 23.921-39.371 7.312-13.994 4.583-32.879-11.689-43.74z" fill="#ED896F"/><path d="M4990.257 2513.972c-46.633-318.994-119.203-633.72-230.478-935.855-15.985-53.155-33.346-105.905-52.388-158.108-37.455-102.681-80.75-203.189-130.651-300.254-77.54-234.811-205.654-446.482-417.336-603.574-119.241-88.49-259.58-143.157-406.875-159.912-128.988-14.673-242.799 6.638-354.32 58.469-303.739-211.298-729.304-210.735-1072.428-111.586-188.542 54.481-373.479 132.791-546.825 224.626-161.47 85.543-317.345 192.893-433.38 335.757-99.982 123.097-165.845 262.371-208.276 409.636-13.692 141.554-29.656 277.86-24.607 421.742 3.924 111.812 12.552 219.986 22.1 329.909.003 5.788-.032 11.581-.015 17.365.882 266.909 22.062 534.141 58.562 798.485 33.545 242.95 79.291 486.129 157.659 718.979 74.142 220.3 178.309 428.027 318.06 613.087 65.468 41.725 132.546 81.196 201.601 117.917 166.686 88.634 347.672 153.085 517.529 236.572-58.638-130.386-174.332-239.057-258.737-352.65-89.292-120.18-178.298-242.755-252.311-373.103-100-176.114-187.866-362.091-252.376-555.171-52.47-234.151-79.666-475.599-101.098-713.212-12.336-136.788-13.642-278.034 58.805-399.692 60.811-102.122 160.02-171.812 265.672-222.007 262.611-124.767 570.96-104.524 852.511-143.786 189.119-26.371 418.818-95.198 570.863-232.967a667.319 667.319 0 0 0 10.757 39.835c33.076 108.98 101.162 209.101 189.845 280.555 104.156 83.916 223.546 123.806 356.833 129.136 123.145 4.925 261.747-29.644 380.063 15.609 82.214 31.446 125.083 114.83 120.131 200.72-5.986 103.859-84.229 148.647-165.731 197.185-15.37 9.152-264.284 59.064-278.653 68.777 25.025 359.782-1.321 674.897-50.654 1032.561-46.757 338.992-74.032 588.365-77.99 970.91-.246 1.068-.51 2.132-.756 3.2 222.096-154.475 432.179-326.07 632.477-508.218 266.949-242.764 538.531-504.419 670.924-846.342-17.445-202.112-39.159-403.838-68.507-604.595z" fill="#37474F"/><path d="M4990.258 2513.972c-46.635-318.993-119.206-633.72-230.48-935.855-15.984-53.155-33.344-105.906-52.388-158.108-37.454-102.681-80.75-203.19-130.649-300.255-77.539-234.81-205.654-446.481-417.335-603.574-119.243-88.49-259.581-143.156-406.876-159.912-128.988-14.674-242.8 6.637-354.32 58.468-303.741-211.295-729.307-210.732-1072.428-111.583-176.211 50.918-349.137 122.813-512.531 206.946-2.346 3.49-4.64 7.004-6.798 10.573-6.564 10.852-12.942 31.268-21.666 41.461-4.558 14.153-7.397 28.697-11.521 42.929-.254 14.308-.254 28.583-.357 42.888-.003.218.057.529.063.758 2.854 12.561 4.572 25.638 8.056 37.956 1.664 5.888 8.025 22.914 11.358 32.486 1.524 3.139 2.86 5.843 3.69 7.412a568.498 568.498 0 0 0 22.534 38.69c2.043 3.215 7.508 10.894 12.277 17.629 6.344 7.452 13.444 15.815 16.33 18.895a642.332 642.332 0 0 0 32.591 32.391c7.751 7.176 22.779 15.948 31.001 24.918.394.268.785.582 1.179.843 24.46 16.115 50.054 29.261 75.927 42.516 2.945 1.26 5.85 2.524 8.53 3.444a626.62 626.62 0 0 0 45.199 13.655c19.954 5.213 40.017 8.828 60.233 12.195 4.886.564 9.774 1.116 14.666 1.614 90.624 9.227 181.824 12.187 272.865 13.512 206.485 3.005 413.032-3.007 619.468 4.125 424.19 14.654 932.173 77.871 1216.701 433.523 195.84 244.795 246.222 534.541 255.993 842.317 11.935 375.865-48.75 759.496-138.52 1123.745-43.236 175.431-95.527 350.323-163.14 518.019-68.116 168.948-158.28 327.115-257.306 479.644-1.598 2.462-3.233 4.903-4.834 7.364 162.869-122.385 319.251-253.538 470.074-390.694 266.949-242.764 538.53-504.419 670.923-846.342-17.448-202.11-39.16-403.836-68.509-604.593z" fill="#263238"/></g><metadata><rdf:RDF xmlns:rdf="http://www.w3.org/1999/02/22-rdf-syntax-ns#" xmlns:rdfs="http://www.w3.org/2000/01/rdf-schema#" xmlns:dc="http://purl.org/dc/elements/1.1/"><rdf:Description about="https://iconscout.com/legal#licenses" dc:title="-assistant" dc:description="-assistant" dc:publisher="Iconscout" dc:date="2018-02-21" dc:format="image/svg+xml" dc:language="en"><dc:creator><rdf:Bag><rdf:li>Sooodesign .</rdf:li></rdf:Bag></dc:creator></rdf:Description></rdf:RDF></metadata></svg>