<?xml version="1.0" encoding="UTF-8"?><svg xmlns="http://www.w3.org/2000/svg" xmlns:xlink="http://www.w3.org/1999/xlink" version="1.1" x="0px" y="0px" viewBox="0 0 5984.956 5984.956" xml:space="preserve"><g id="_x33_5-Athlete"><circle cx="2992.478" cy="2992.478" r="2992.478" fill="#283593"/><path d="M3919.554 4796.593c9.7 38.536-.628 82.022-43.299 109.448-68.561 44.063-121.685 115.227-185.617 166.294-79.1 63.187-160.212 123.889-243.724 181.128-80.247 55.002-161.916 108.797-247.651 154.87-76.152 40.921-161.474 107.93-248.901 117.524-215.568 23.652-245.26-275.191-283.656-424.034-48.067-186.339-76.089-372.616-74.551-564.203-165.03 1.473-310.613 26.27-477.997 60.499-196.567 40.197-387.416 109.377-568.301 195.58-63.361 30.197-125.201 63.279-185.506 98.915-35.097 17.788-69.799 36.287-104.003 55.607-91.871 51.892-185.469 109.65-247.026 193.491a2892.08 2892.08 0 0 0-29.309 24.777c-7.763 6.661-14.107 14.369-19.343 22.702 533.636 493.819 1247.409 795.765 2031.81 795.765 686.844 0 1319.511-231.562 1824.557-620.652-235.085-225.671-581.194-444.624-897.483-567.711z" fill="#03A9F4"/><path d="M2733.092 4108.733c3.958 114.75-.394 229.426-9.572 343.82-2.363 29.469-5.28 58.869-8.687 88.198 1.521.813 3.065 1.564 4.566 2.44 45.704 26.729 67.896 93.869 98.997 135.644 23.051 30.967 49.563 59.554 77.311 86.372 122.405 118.295 287.457 194.536 458.271 202.129 185.674 8.259 377.784-53.752 522.834-170.594a127.147 127.147 0 0 1 15.485-10.665c5.257-172.267 9.977-344.551 15.006-516.823 9.629-329.971 21.236-660.338 22.574-990.443.377-92.956.742-185.908 1.301-278.861.582-95.901 12.874-198.634-17.828-290.779-20.071-60.245-80.456-70.824-122.25-42.317-14.917-.282-30.179 3.633-44.489 12.925-55.216 35.861-94.337 84.031-137.256 133.146-40.901 46.809-82.265 93.301-123.751 139.599-85.128 95.016-174.716 185.503-266.884 273.653-90.13 86.2-183.123 169.202-279.871 247.919-84.2 68.507-199.427 165.204-198.602 284.96-.993 1.692-1.955 3.419-2.754 5.308-23.792 56.167-18.265 109.411-15.114 169.033 3.09 58.488 8.692 116.763 10.713 175.336z" fill="#F4C5A2"/><path d="M3931.177 2999.949c.348-57.01 4.769-116.424 1.901-174.602-25.291-62.11-95.353-72.701-144.222-42.332-17.791-.308-35.996 3.949-53.062 14.046-65.853 38.966-112.51 91.307-163.697 144.677-48.784 50.866-98.118 101.384-147.593 151.694-101.531 103.243-208.38 201.568-318.301 297.355-107.493 93.666-218.402 183.855-333.792 269.393-3.519 2.607-7.152 5.322-10.753 8.004-13.524 28.588-21.632 58.901-21.413 90.874-.993 1.692-1.955 3.42-2.754 5.308-23.792 56.167-18.265 109.409-15.114 169.032 2.046 38.714 5.131 77.339 7.611 116.014 156.451 93.177 313.738 185.115 476.356 269.237 163.605 84.633 335.253 154.063 501.196 234.535 62.865 30.484 125.744 60.969 188.956 90.844 3.636-124.923 7.16-249.85 10.805-374.773 9.629-329.969 21.236-660.336 22.574-990.441.378-92.958.743-185.912 1.302-278.865z" fill="#E5AC85"/><path d="M4292.162 2355.21c-27.491-119.859-140.029-203.81-257.501-223.051-79.552-13.032-157.547-.937-231.976 24.591 12.151-194.359 29.179-388.348 45.198-582.466 3.033-36.764-29.643-78.08-65.347-85.832-338.395-73.469-681.767-119.991-1028.05-131.53-171.934-5.729-344.156-3.294-515.853 7.421-169.202 10.562-7.305-218.949-166.692-160.339-50.277 18.491-335.634 151.316-312.691 187.03-81.742 97.755-204.957 386.252-250.801 502.21-57.053 144.31-101.674 292.579-134.715 444.192-65.729 301.601-114.568 642.839 6.061 937.157 19.875 48.49 43.296 94.497 69.829 138.057 116.914 243.028 322.927 419.234 572.138 523.186 287.494 119.92 606.259 124.901 910.875 84.008 147.205-19.762 290.135-50.177 425.454-113.31 131.56-61.381 242.466-161.571 322.13-282.491 167.763-254.649 181.532-567.616 172.897-865.066 97.802-.46 196.49-13.972 279.858-66.378 112.63-70.801 190.14-202.419 159.186-337.389z" fill="#F4C5A2"/><path d="M3901.72 3390.213c-8.285-83.481-17.369-165.145-25.434-246.539-2.089-9.239-3.022-18.86-2.768-28.692-11.227-117.177-19.897-234.248-20.399-356.006 39.44-6.13 202.409-25.329 232.315-44.12 80.644-50.677 154.884-111.049 169.496-236.71 10.063-86.544-25.313-182.057-85.085-245.68-28.75-30.602-59.891-48.793-93.095-59.654-70.579-23.085-147.846 14.687-172.261 84.814-.131.373-.26.746-.388 1.12-27.029 78.325-40.468 158.345-54.908 239.708-4.486 25.271-18.25 42.887-36.324 53.74-22.46-8.059-47.431-10.245-71.552-6.56 15.325-373.129-92.105-803.088-442.284-968.846-119.665-56.644-251.353-84.071-383.677-84.046-124.131.024-244.735 33.732-367.638 43.905-110.672 9.159-199.521-5.636-304.101-47.258-129.492-51.536-265.311-87.754-406.136-75.3-38.42 3.398-73.615 12.349-110.377 20.779 0 0 337.245-753.514 1458.249-827.023C4254.93 537.711 4872.276 1658.79 4593.921 2261.893c-315.612 683.828-507.7 602.594-692.201 1128.32z" fill="#C6A38B"/><path d="M3185.353 607.847c-135.615 8.893-259.66 27.809-373.124 54.069-4.275 6.995-8.242 14.164-11.812 21.524-7.625 15.716-13.484 38.464-11.521 65.462.325 4.442-.023 4.415-.166 4.221.18.381.907 2.29 3.065 9.94-.588-2.083 4.483 15.339 3.633 13.834 5.248 13.387 18.516 35.983 28.99 50.823 14.223 20.152 31.886 38.21 51.971 54.494 258.199 68.211 521.318 120.628 766.658 227.72 65.961 23.964 129.474 53.941 187.732 93.064 12.474 8.376 24.48 17.075 36.138 26.004 164.604 106.209 308.179 246.644 399.236 420.86 128.771 246.376 136.146 527.312 122.051 799.262-3.679 70.959-9.107 142.896-17.274 214.845 67.348-98.435 140.997-224.424 222.991-402.076 278.356-603.104-338.991-1724.182-1408.568-1654.046z" fill="#B29079"/><path d="M1973.343 2464.101c-14.02-16.553-40.557-21.542-60.611-16.02-22.889 6.303-34.979 22.691-43.509 43.51-22.003 53.7 9.197 180.699 87.721 159.119 78.492-21.569 55.466-140.481 16.399-186.609z" fill="#5A4A42"/><path d="M2971.116 2531.759c14.02-16.553 40.557-21.542 60.611-16.02 22.889 6.303 34.979 22.691 43.509 43.51 22.003 53.7-9.197 180.699-87.721 159.119-78.492-21.57-55.466-140.482-16.399-186.609z" fill="#5A4A42"/><path d="M2638.416 3320.323c-2.858-10.699-13.98-16.185-24.383-13.844-76.909 17.32-122.453 87.054-208.589 80.192-84.556-6.737-124.838-79.623-195.854-112.489-13.114-6.069-25.645-.939-30.781 12.523-45.738 119.882 123.788 208.527 219.699 213.676 91.518 4.91 272.065-59.673 239.908-180.058z" fill="#5A4A42"/><path d="M2510.667 2978.646c-34.355-34.942-79.471-25.183-122.261-40.011-56.906-19.72-29.487-69.477-14.112-112.091l55.899-154.947c17.472-48.426 41.278-100.094 27.58-152.125-5.262-19.989-31.059-31.877-49.084-19.97-59.023 38.992-78.014 122.655-103.243 185.027-27.586 68.202-76.661 149.378-74.303 224.589 2.001 63.91 48.579 114.573 105.797 137.398 57.376 22.889 141.101 23.583 178.155-33.555 6.836-10.542 4.089-25.653-4.428-34.315z" fill="#5A4A42"/><path d="M1998.297 2144.189c-69.797-37.88-157.483-34.333-234.07-24.409-54.972 7.122-190.168 27.59-188.165 106.389 1.967 77.394 120.285 44.551 163.35 35.428 81.666-17.299 166.598-9.179 247.164-27.729 40.82-9.397 48.192-69.883 11.721-89.679z" fill="#5A4A42"/><path d="M3355.5 2286.999c-16.657-61.999-95.009-95.035-150.594-113.077-60.593-19.67-144.583-44.136-206.868-21.704-35.339 12.726-51.852 68.526-11.497 87.965 54.743 26.367 120.715 27.068 178.616 46.849 51.805 17.7 110.853 52.921 166.608 41.764 18.09-3.62 28.23-25.065 23.735-41.797z" fill="#5A4A42"/><path d="M3341.389 3011.749c-6.055-144.846-178.38-172.471-291.159-159.459-44.506 5.135-105.03 18.344-158.324 42.576-9.962 3.601-19.874 7.379-29.688 11.489-56.629 23.72-127.237 59.302-131.04 129.34-3.959 72.912 51.689 110.472 120.959 129.425 65.977 31.811 158.437 29.142 223.169 16.714 107.736-5.64 271.85-32.148 266.083-170.085z" fill="#E5AC85"/><path d="M1446.363 2793.141c31.525-126.809 188.66-120.081 285.877-88.224 38.366 12.572 89.413 35.167 132.086 66.189 8.144 4.979 16.212 10.105 24.134 15.507 45.71 31.172 101.617 75.344 92.316 137.876-9.682 65.099-65.602 88.215-130.184 92.441-63.999 16.175-145.148-2.88-200.051-25.545-94.098-24.438-234.2-77.485-204.178-198.244z" fill="#E5AC85"/><path d="M3729.81 4691.289c-5.08 2.363-10.182 4.578-15.279 6.809 12.451-12.485 23.476-26.115 32.408-41.172 12.332-20.782-7.945-43.102-29.703-38.635-91.5 18.781-173.637 69.166-266.989 86.574-93.852 17.502-191.319 19.603-285.676 4.829-99.074-15.511-195.774-46.832-287.154-87.759-31.786-14.235-63.053-29.614-93.849-45.878-40.391-29.435-79.146-61.694-115.795-96.743-33.858-32.379-100.059-10.807-97.259 40.288.226 4.121.442 8.236.665 12.354-2.483 7.375-2.723 15.653.388 24.489.323.916.722 1.749 1.064 2.648 15.862 299.814 27.813 594.414 160.021 871.186 14.121 29.561 61.689 42.249 88.401 23.182 170.963-122.031 349.585-234.09 529.246-342.81 137.984-83.501 356.255-144.61 398.026-322.103 1.35-5.739 1.732-11.224 1.684-16.564 6.638-4.01 13.324-7.854 19.9-12.092 43.559-28.084 5.839-89.967-40.099-68.603z" fill="#FFF"/><path d="M4544.298 4715.798c-70.712-76.729-170.34-133.877-254.187-195.078-95.239-69.52-190.294-152.564-300.867-195.994-37.249-14.632-83.729 9.866-102.876 41.863-5.417 9.052-8.807 18.299-10.542 27.574-5.24 5.654-9.991 11.775-14.429 18.265-34.711 34.126-66.343 73.727-99.285 105.635-53.664 51.983-109.091 102.256-164.904 151.919-109.297 97.248-220.965 191.802-329.811 289.572-106.994 96.109-212.224 195.757-302.537 308.082-26.036 32.383-61.209 83.096-85.912 137.536h-.022c-22.317-48.803-40.58-99.34-56.31-150.629-33.213-108.29-53.102-220.26-68.738-332.297-16.198-116.074-19.415-232.828-17.894-349.876.779-60.136 2.62-120.284 4.703-180.392 2.232-64.442-6.564-127.056-2.937-191.504 3.741-66.523-58.096-89.645-106.583-71.937-8.881-1.062-18.242-.771-27.993 1.338-52.842 11.438-103.617 33.815-153.791 53.681-44.286 17.531-82.134 29.959-113.66 60.225-87.319 52.588-173.494 119.299-242.754 193.091-58.852 62.702-21.35 189.342 75.439 182.127 107.958-8.045 156.009 82.134 189.972 172.561 44.865 119.454 83.755 241.262 126.574 361.468 40.679 114.188 75.23 233.299 126.705 343.184 15.814 33.757 39.887 70.217 69.567 101.505 8.114 8.554 16.152 17.211 23.401 26.51 15.384 19.737 33.438 37.455 53.458 52.625 63.321 47.987 137.593 39.118 208.765 12.349 49.173-18.493 113.27-50.377 167.307-92.385 21.887-17.014 45.829-31.195 70.637-43.569 62.986-31.416 125.003-64.661 189.652-92.862 161.634-70.507 335.302-119.867 508.587-151.52 180.566-32.979 377.658-44.802 537.808-143.141 74.925-46.01 145.404-111.922 171.705-198.265 28.159-92.454-4.784-182.801-68.248-251.661z" fill="#4FC3F7"/><path d="M3088.807 5425.179c-7.292-13.67-28.033-13.042-35.485 0-37.916 66.366-23.362 168.286-25.385 242.691-2.123 78.229-17.32 170.446 18.687 242.691 6.832 13.707 28.476 13.079 35.485 0 38.136-71.152 25.254-164.405 25.385-242.691.122-74.071 17.126-175.52-18.687-242.691z" fill="#E1F5FE"/><path d="M2717.932 5443.07c-5.194-23.033-35.408-23.387-47.071-6.15-43.79 64.711-47.562 160.212-57.733 235.785-9.309 69.163-34.106 171.419 7.294 233.864 6.096 9.192 20.633 13.13 28.83 3.716 47-53.975 42.645-147.079 50.188-215.186 8.812-79.588 36.317-172.952 18.492-252.029z" fill="#E1F5FE"/></g><metadata><rdf:RDF xmlns:rdf="http://www.w3.org/1999/02/22-rdf-syntax-ns#" xmlns:rdfs="http://www.w3.org/2000/01/rdf-schema#" xmlns:dc="http://purl.org/dc/elements/1.1/"><rdf:Description about="https://iconscout.com/legal#licenses" dc:title="-athlete" dc:description="-athlete" dc:publisher="Iconscout" dc:date="2018-02-21" dc:format="image/svg+xml" dc:language="en"><dc:creator><rdf:Bag><rdf:li>Sooodesign .</rdf:li></rdf:Bag></dc:creator></rdf:Description></rdf:RDF></metadata></svg>