<?xml version="1.0" encoding="UTF-8"?><svg xmlns="http://www.w3.org/2000/svg" xmlns:xlink="http://www.w3.org/1999/xlink" version="1.1" x="0px" y="0px" viewBox="0 0 5984.956 5984.956" xml:space="preserve"><g id="_x32_-Boy"><circle cx="2992.478" cy="2992.478" r="2992.478" fill="#03A9F4"/><path d="M3941.779 4813.936c-12.431-4.371-24.298-4.935-35.216-2.686-24.345-2.936-50.807.576-77.209 11.939-166.314 71.58-364.795 80.41-539.956 40.667-197.563-44.83-355.453-169.757-541.72-242.457-201.008-78.453-425.979-65.723-633.52-23.281-196.568 40.197-387.416 109.377-568.303 195.58-63.361 30.196-125.201 63.278-185.503 98.916-35.097 17.787-69.802 36.287-104.004 55.606-91.873 51.892-185.468 109.65-247.028 193.49a2929.46 2929.46 0 0 0-29.308 24.777c-7.762 6.66-14.108 14.371-19.345 22.704 533.637 493.817 1247.41 795.764 2031.81 795.764 686.844 0 1319.513-231.56 1824.559-620.652-251.258-241.195-542.309-433.364-875.257-550.367z" fill="#FFD400"/><path d="M3913.349 2709.173c-20.072-60.246-80.455-70.826-122.249-42.319-14.918-.283-30.181 3.634-44.49 12.927-55.216 35.86-94.336 84.029-137.254 133.144-40.904 46.812-82.267 93.302-123.752 139.602-85.128 95.013-174.717 185.501-266.884 273.652-90.129 86.2-183.122 169.2-279.872 247.92-84.199 68.507-199.427 165.203-198.602 284.96-.993 1.692-1.954 3.419-2.754 5.307-23.793 56.168-18.263 109.41-15.113 169.032 3.09 58.49 8.691 116.765 10.712 175.338 3.96 114.75-.393 229.426-9.571 343.82-18.26 227.553-67.981 451.408-144.013 666.642-19.576 55.413 17.556 118.346 69.237 140.251 22.565 19.293 52.334 31.167 84.417 34.555 336.959 35.58 673.921 71.141 1010.893 106.616 72.671 7.65 128.632-66.442 131.306-131.306 13.743-333.249 22.212-666.672 31.942-1000.06 9.63-329.969 21.236-660.336 22.574-990.442.377-92.956.741-185.909 1.302-278.862.582-95.902 12.874-198.634-17.829-290.777z" fill="#DDC49B"/><path d="M3931.177 2999.949c.348-57.01 4.769-116.424 1.901-174.602-25.291-62.11-95.353-72.701-144.222-42.332-17.791-.308-35.996 3.949-53.062 14.046-65.853 38.966-112.51 91.307-163.697 144.677-48.784 50.866-98.118 101.384-147.593 151.694-101.531 103.243-208.38 201.568-318.301 297.355-107.493 93.666-218.402 183.855-333.792 269.393-3.519 2.607-7.152 5.322-10.753 8.004-13.524 28.588-21.632 58.901-21.413 90.874-.993 1.692-1.955 3.42-2.754 5.308-23.792 56.167-18.265 109.409-15.114 169.032 2.046 38.714 5.131 77.339 7.611 116.014 156.451 93.177 313.738 185.115 476.356 269.237 163.605 84.633 335.253 154.063 501.196 234.535 62.865 30.484 125.744 60.969 188.956 90.844 3.636-124.923 7.16-249.85 10.805-374.773 9.629-329.969 21.236-660.336 22.574-990.441.378-92.958.743-185.912 1.302-278.865z" fill="#CEAE80"/><path d="M4292.162 2355.21c-27.491-119.859-140.029-203.81-257.501-223.051-79.552-13.032-157.547-.937-231.976 24.591 12.151-194.359 29.179-388.348 45.198-582.466 3.033-36.764-29.643-78.08-65.347-85.832-338.395-73.469-681.767-119.991-1028.05-131.53-171.934-5.729-344.156-3.294-515.853 7.421-169.202 10.562-354.191 19.069-513.578 77.679-50.277 18.491-62.271 74.191-39.328 109.905-81.742 97.755-131.433 225.358-177.277 341.316-57.053 144.31-101.674 292.579-134.715 444.192-65.729 301.601-114.568 642.839 6.061 937.157 19.875 48.49 43.296 94.497 69.829 138.057 116.914 243.028 322.927 419.234 572.138 523.186 287.494 119.92 606.259 124.901 910.875 84.008 147.205-19.762 290.135-50.177 425.454-113.31 131.56-61.381 242.466-161.571 322.13-282.491 167.763-254.649 181.532-567.616 172.897-865.066 97.802-.46 196.49-13.972 279.858-66.378 112.629-70.8 190.139-202.418 159.185-337.388z" fill="#DDC49B"/><path d="M1973.343 2464.101c-14.02-16.553-40.557-21.542-60.611-16.02-22.889 6.303-34.979 22.691-43.509 43.51-22.003 53.7 9.197 180.699 87.721 159.119 78.492-21.569 55.466-140.481 16.399-186.609z" fill="#5A4A42"/><path d="M2971.116 2531.759c14.02-16.553 40.557-21.542 60.611-16.02 22.889 6.303 34.979 22.691 43.509 43.51 22.003 53.7-9.197 180.699-87.721 159.119-78.492-21.57-55.466-140.482-16.399-186.609z" fill="#5A4A42"/><path d="M2638.416 3320.323c-2.858-10.699-13.98-16.185-24.383-13.844-76.909 17.32-122.453 87.054-208.589 80.192-84.556-6.737-124.838-79.623-195.854-112.489-13.114-6.069-25.645-.939-30.781 12.523-45.738 119.882 123.788 208.527 219.699 213.676 91.518 4.91 272.065-59.673 239.908-180.058z" fill="#5A4A42"/><path d="M2510.667 2978.646c-34.355-34.942-79.471-25.183-122.261-40.011-56.906-19.72-29.487-69.477-14.112-112.091l55.899-154.947c17.472-48.426 41.278-100.094 27.58-152.125-5.262-19.989-31.059-31.877-49.084-19.97-59.023 38.992-78.014 122.655-103.243 185.027-27.586 68.202-76.661 149.378-74.303 224.589 2.001 63.91 48.579 114.573 105.797 137.398 57.376 22.889 141.101 23.583 178.155-33.555 6.836-10.542 4.089-25.653-4.428-34.315z" fill="#5A4A42"/><path d="M1998.297 2144.189c-69.797-37.88-157.483-34.333-234.07-24.409-54.972 7.122-190.168 27.59-188.165 106.389 1.967 77.394 120.285 44.551 163.35 35.428 81.666-17.299 166.598-9.179 247.164-27.729 40.82-9.397 48.192-69.883 11.721-89.679z" fill="#5A4A42"/><path d="M3355.5 2286.999c-16.657-61.999-95.009-95.035-150.594-113.077-60.593-19.67-144.583-44.136-206.868-21.704-35.339 12.726-51.852 68.526-11.497 87.965 54.743 26.367 120.715 27.068 178.616 46.849 51.805 17.7 110.853 52.921 166.608 41.764 18.09-3.62 28.23-25.065 23.735-41.797z" fill="#5A4A42"/><path d="M4768.624 2037.911c-33.796-83.474-87.457-155.478-160.98-208.095-86.905-62.197-188.282-65.439-287.26-94.931-73.191-21.806-107.062-68.516-77.802-137.693 29.625-70.043 79.826-129.354 108.643-200.199 32.873-80.817 29.167-170.071-26.866-239.89-60.042-74.807-151.737-96.115-236.658-130.048-32.99-13.184-74.682-34.456-92.963-66.813-21.336-37.767 23.242-68.143 42.149-98.775 57.697-93.47 25.18-208.126-56.935-275.247-89.857-73.45-209.647-68.983-319.057-63.589a5828.55 5828.55 0 0 0-365.171 29.548c-123.674 13.927-246.211 32.986-368.889 53.627-39.391 6.626-87.357 14.489-125.81-.13-39.199-14.904-55.537-54.471-73.104-89.551-44.686-89.239-104.957-159.797-205.267-185.989-97.374-25.426-200.958-5.8-287.712 42.904-191.068 107.272-269.932 332.56-453.999 445.294-181.886 111.401-406.489 123.035-574.904 262.354-141.931 117.412-208.257 340.347-84.179 495.608 65.751 82.276 171.826 109.202 273.282 97.038 62.164-7.454 119.529-29.61 176.914-51.935a6065.097 6065.097 0 0 1 28.897 7.294c88.888 22.748 178.684 41.932 269.094 57.555 183.385 31.693 369.207 50.925 555.298 54.896 182.771 3.901 366.323-6.024 547.387-31.537 172.884-24.364 347.369-87.078 522.8-83.342 125.562 2.674 256.084 75.895 269.812 206.882-22.176 106.08-44.282 209.862-17.622 321.686 14.019 58.797 80.9 77.245 129.958 52.869 158.546-78.779 332.966 61.813 311.689 230.76-11.35 90.124-80.769 148.236-145.644 203.885-80.277 68.861-151.068 139.628-187.646 241.355-35.096 97.604-36.957 209.171-37.106 311.917-.135 92.571 10.015 186.704 48.353 271.793 90.136 200.058 350.837 231.98 502.559 79.977 76.378-76.52 113.306-187.412 113.211-294.156-.099-113.438-46.611-217.38-63.998-327.758-29.1-184.717 150.305-285.085 256.179-406.034 118.906-135.839 162.728-310.161 93.347-481.53z" fill="#5A4A42"/><path d="M4768.624 2037.911c-33.795-83.475-87.456-155.478-160.98-208.096-86.905-62.197-188.281-65.439-287.261-94.93-73.19-21.806-107.062-68.516-77.802-137.693 29.625-70.043 79.827-129.354 108.644-200.199 32.873-80.818 29.167-170.071-26.866-239.89-60.042-74.807-151.737-96.115-236.658-130.048-32.99-13.184-74.682-34.457-92.963-66.813-21.336-37.767 23.242-68.144 42.149-98.775 57.697-93.47 25.18-208.126-56.935-275.247-89.858-73.45-209.647-68.983-319.057-63.589a5828.55 5828.55 0 0 0-365.171 29.548c-123.674 13.927-246.211 32.986-368.889 53.627-39.391 6.626-87.358 14.488-125.81-.13-39.2-14.904-55.537-54.471-73.104-89.551-44.686-89.239-104.958-159.796-205.267-185.989-97.374-25.426-200.958-5.8-287.712 42.904-189.067 106.148-268.334 327.781-448.316 441.643 18.302 11.211 35.697 25.356 54.387 35.621 10.287 5.651 20.981 10.566 31.516 15.74.45.165.93.391 1.37.532 27.629 8.862 54.967 17.536 83.377 23.677 3.506.758 7.127 1.323 10.731 1.921 10.338 1.02 21.015 3.231 30.876 3.442 3.525.076 25.586.282 42.302-.45l9.883-2.006c9.894-2.006 19.82-3.803 29.701-5.88 82.245-17.278 162.281-43.732 244.705-60.236 96.735-19.37 193.103-26.883 291.431-23.848 138.564 4.276 284.427 19.836 389.833 119.929 73.783 70.063 95.969 161.855 121.855 255.217 4.724 17.037 10.388 33.666 16.139 50.327 3.994 8.133 7.756 16.432 12.032 24.356 12.052 22.333 25.314 44.182 38.922 65.687 2.653-.19 5.308-.377 7.959-.557 115.38-7.851 228.155-1.517 343.13 9.505 155.467 14.904 311.831 45.54 420.192 169.611 63.362 72.55 108.726 159.738 133.413 253.017 29.971 113.248 11.875 217.215-31.154 321.638 125.459 76.296 226.431 189.133 315.815 304.826 99.913 129.322 127.904 294.623 30.106 436.07-88.658 128.229-202.999 242.224-304.613 360.155-5.598 6.498-11.09 13.08-16.609 19.641 1.641 2.691 3.249 5.401 4.911 8.079 17.962 28.951 37.394 56.983 57.063 84.791 20.416 28.864 41.951 56.984 62.044 86.07 48.636 59.87 100.75 118.692 145.049 182.331 2.294-2.171 4.643-4.249 6.891-6.501 76.377-76.52 113.306-187.412 113.211-294.156-.099-113.438-46.611-217.381-63.998-327.758-29.099-184.718 150.305-285.085 256.179-406.033 118.908-135.839 162.73-310.162 93.349-481.53z" fill="#44342E"/><path d="M3431.008 3046.817c-6.055-144.845-178.38-172.47-291.159-159.459-44.506 5.135-105.03 18.344-158.324 42.576-9.961 3.601-19.873 7.379-29.688 11.489-56.629 23.72-127.237 59.302-131.04 129.34-3.959 72.912 51.689 110.472 120.959 129.425 65.977 31.811 158.438 29.142 223.169 16.714 107.735-5.64 271.85-32.149 266.083-170.085z" fill="#C19259"/><path d="M2008.547 2885.272c-68.743-44.608-134.832-85.676-212.661-113.117-46.42-16.369-104.333-33.784-152.535-19.527-45.701-1.18-89.371 9.231-119.138 50.181-45.586 62.714-10.151 157.64 74.288 153.583 3.341-.16 6.814-.663 10.306-1.324 60.598 59.453 166.327 95.639 232.236 75.763 5.592-1.687 10.965-3.87 16.226-6.265 45.274 2.803 90.949-.578 134.445-10.505 62.08-14.171 65.121-97.454 16.833-128.789z" fill="#C19259"/><path d="M4001.319 4793.445c-37.365-33.813-87.474-26.538-124.507 3.296-145.051 116.843-337.16 178.856-522.834 170.597-170.814-7.596-335.868-83.835-458.27-202.132-27.748-26.818-54.26-55.403-77.311-86.37-31.101-41.776-53.294-108.915-98.999-135.645-94.52-55.288-237.997 18.623-303.792 88.217-161.976 171.333-109.721 431.242 46.387 587.402 154.374 154.424 391.019 226.218 600.426 264.933 223.513 41.326 457.834 37.014 670.481-49.674 101.752-41.481 194.099-95.228 278.213-166.27 80.664-68.127 159.418-159.596 154.853-271.835-4.017-98.763-73.345-183.835-164.647-202.519z" fill="#FFF9C4"/></g><metadata><rdf:RDF xmlns:rdf="http://www.w3.org/1999/02/22-rdf-syntax-ns#" xmlns:rdfs="http://www.w3.org/2000/01/rdf-schema#" xmlns:dc="http://purl.org/dc/elements/1.1/"><rdf:Description about="https://iconscout.com/legal#licenses" dc:title="-boy" dc:description="-boy" dc:publisher="Iconscout" dc:date="2018-02-21" dc:format="image/svg+xml" dc:language="en"><dc:creator><rdf:Bag><rdf:li>Sooodesign .</rdf:li></rdf:Bag></dc:creator></rdf:Description></rdf:RDF></metadata></svg>