<?xml version="1.0" encoding="UTF-8"?><svg xmlns="http://www.w3.org/2000/svg" xmlns:xlink="http://www.w3.org/1999/xlink" version="1.1" x="0px" y="0px" viewBox="0 0 5984.956 5984.956" xml:space="preserve"><g id="_x32_7-Businesswoman"><circle cx="2992.478" cy="2992.478" r="2992.478" fill="#FFD400"/><path d="M4577.8 722.034c-125.978-302.05-583.821-482.057-859.014-267.073-69.888 54.597-120.447 142.618-127.889 231.674-3.051 36.489 28.073 146.607 79.754 144.867 10.222 34.276 22.126 68 38.473 100.734 30.562 61.198 73.107 117.982 116.463 170.56 89.397 108.412 201.938 196.167 328.392 257.183 35.87 17.309 70.142 8.192 93.975-12.474 93.997-7.423 193.034-63.487 252.631-126.006 126.561-132.767 146.186-334.089 77.215-499.465z" fill="#3E2723"/><path d="M2992.478 5984.956c761.527 0 1456.468-284.614 1984.664-753.067-287.451-255.145-677.404-546.021-959.133-645.026-12.437-4.371-24.306-4.935-35.228-2.686-4.928-.594-9.966-.85-15.051-.904 5.565-180.398 10.528-360.817 15.793-541.229 9.632-330.051 21.241-660.502 22.58-990.69.377-92.979.742-185.956 1.301-278.932.582-95.925 12.877-198.682-17.834-290.849-20.077-60.26-80.476-70.844-122.279-42.33-14.923-.283-30.188 3.635-44.5 12.93-55.231 35.869-94.363 84.05-137.29 133.177-40.913 46.823-82.288 93.326-123.783 139.637-85.15 95.037-174.761 185.547-266.952 273.721-90.15 86.221-183.169 169.242-279.943 247.982-84.217 68.524-199.476 165.244-198.651 285.031-.993 1.692-1.955 3.42-2.754 5.308-23.798 56.182-18.268 109.438-15.117 169.075 3.091 58.504 8.693 116.794 10.713 175.381 3.961 114.778-.391 229.484-9.572 343.906-4.141 51.604-9.983 103.007-17.3 154.174-190.215-61.801-398.774-48.13-592.214-8.572-196.619 40.207-387.513 109.404-568.447 195.627-63.378 30.205-125.233 63.293-185.549 98.941-35.105 17.792-69.819 36.297-104.031 55.621-64.263 36.299-311.064 227.208-474.801 367.456 543.004 553.097 1299.055 896.318 2135.378 896.318z" fill="#F4C5A2"/><path d="M4018.009 4586.862c-7.683-2.7-15.111-3.8-22.271-3.829-55.855 38.353-104.982 86.561-165.198 118.923-83.429 44.841-180.486 64.658-274.635 66.667-154.425 3.295-318.193-31.274-463.274-83.479-186.134-66.979-348.906-178.046-445.471-336.874-151.231-22.614-308.675-7.657-457.229 22.723-196.619 40.208-387.513 109.405-568.447 195.628-63.378 30.204-125.233 63.292-185.549 98.94-35.105 17.792-69.819 36.297-104.031 55.622-64.263 36.298-311.064 227.207-474.801 367.456 543.002 553.096 1299.052 896.317 2135.376 896.317 761.527 0 1456.468-284.614 1984.664-753.068-287.452-255.144-677.405-546.021-959.134-645.026z" fill="#E8EAF6"/><path d="M857.102 5088.639c438.976 447.137 1017.226 757.003 1664.528 859.359-5.859-26.365-12.882-52.468-19.96-78.426-18.524-67.976-34.649-135.96-49.352-205.061-34.586-162.554-71.734-325.133-99.266-489.29-28.79-171.636-48.781-344.854-69.99-517.729-12.16-99.127 48.224-207.184 165.848-308.527-16.9-1.504-93.081 1.85-166.436 5.535-31.127 4.756-62.037 10.252-92.545 16.491-196.619 40.208-387.513 109.405-568.447 195.628-63.378 30.204-125.233 63.292-185.549 98.94-35.105 17.792-69.819 36.297-104.031 55.622-64.262 36.3-311.063 227.209-474.8 367.458z" fill="#303F9F"/><path d="M3097.774 5982.93c720.18-24.931 1375.63-304.279 1879.368-751.042-246.707-218.979-568.858-464.162-833.353-591.892l-11.904 22.754c-216.008 181.936-404.019 418.226-577.139 646.357-163.494 215.449-316.352 440.181-456.972 673.823z" fill="#303F9F"/><path d="M2576.198 5705.527c-29.76-201.681-80.011-396.959-127.624-594.25-59.896-248.209-60.89-442.554.337-762.311-65.433 72.969-323.524 184.614-388.383 258.425-72.251 82.224-149.793 158.58-230.528 230.871-69.249 62.014-4.495 161.419 65.188 170.654 67.442 8.938 157.912 16.165 203.711 78.49 32.086 43.674 7.494 77.904-23.553 112.772-42.913 48.182-90.07 90.486-124.442 147.045-18.599 30.609-34.754 67.947-38.872 104.257-6.855 60.441 25.636 95.481 59.36 137.516 69.614 86.752 131.537 179.19 185.195 277.512 142.41 41.365 289.203 72.395 439.519 92.298-3.829-86.183-7.251-167.532-19.908-253.279z" fill="#1A237E"/><path d="M3735.797 4984.296c-150.866 164.682-286.458 350.516-406.697 542.306-91.843 146.495-175.081 299.266-249.472 456.964 365.019-10.448 713.594-86.309 1034.543-216.233 17.129-38.245 14.794-88.378-1.923-124.274-36.986-79.436-73.978-158.871-110.96-238.305 129.137-54.092 258.273-108.187 387.41-162.28 34.203-14.326 58.144-37.07 71.275-68.568-7.774-40.814-18.311-81.178-27.934-121.517-18.014-75.53-56.581-146.948-94.057-213.874-37.871-67.632-65.93-110.451-95.747-147.217-42.545-23.714-84.072-44.989-124.166-63.437-57.825 34.935-100.13 82.881-152.433 128.319-81.122 70.483-156.609 148.18-229.839 228.116z" fill="#1A237E"/><path d="M3787.521 4384.226c60.958 32.445 121.919 64.917 183.24 96.664 4.352-146.278 8.493-292.563 12.762-438.846 9.632-330.051 21.241-660.502 22.58-990.69.377-92.979.742-185.956 1.301-278.932.268-44.145 2.979-89.733 2.877-135.074-2.617-11.039-5.582-21.997-9.181-32.799-22.511-67.571-90.236-79.438-137.113-47.464-16.732-.318-33.85 4.076-49.9 14.498-61.928 40.221-105.806 94.246-153.942 149.333-45.878 52.504-92.271 104.647-138.8 156.576-95.478 106.566-195.959 208.056-299.334 306.926-101.089 96.681-205.389 189.773-313.904 278.065-31.31 25.475-66.415 54.466-99.36 86.683-18.299 51.773-13.367 101.611-10.445 156.938 2.069 39.183 5.211 78.273 7.703 117.418 167.707 110.004 335.693 219.549 510.183 318.621 153.856 87.357 315.278 159.022 471.333 242.083z" fill="#E5AC85"/><path d="M4368.802 2080.455c-26.205-114.254-133.481-194.279-245.46-212.621-75.831-12.423-150.179-.893-221.129 23.44 11.583-185.27 27.814-370.188 43.084-555.228 2.892-35.045-28.256-74.429-62.291-81.818-322.571-70.034-649.886-114.381-979.976-125.381-163.894-5.462-328.063-3.141-491.731 7.073-161.29 10.068-337.629 18.176-489.563 74.045-47.926 17.626-59.359 70.722-37.489 104.766-77.92 93.184-125.287 214.82-168.987 325.355-54.385 137.561-96.919 278.897-128.416 423.421-62.656 287.497-109.211 612.778 5.777 893.333 18.945 46.222 41.271 90.078 66.564 131.601 111.447 231.664 307.827 399.63 545.383 498.722 274.051 114.313 577.909 119.062 868.281 80.081 140.322-18.838 276.567-47.83 405.559-108.011 125.408-58.51 231.128-154.015 307.066-269.281 159.918-242.741 173.043-541.073 164.813-824.613 93.228-.438 187.302-13.318 266.771-63.274 107.365-67.489 181.251-192.951 151.744-321.61z" fill="#F4C5A2"/><path d="M2053.543 2226.279c-15.691-18.526-45.391-24.109-67.835-17.929-25.617 7.054-39.148 25.395-48.695 48.696-24.625 60.1 10.293 202.234 98.175 178.083 87.849-24.141 62.079-157.225 18.355-208.85z" fill="#5A4A42"/><path d="M2994.299 2226.279c15.691-18.526 45.391-24.109 67.835-17.929 25.617 7.054 39.148 25.395 48.695 48.696 24.625 60.1-10.293 202.234-98.175 178.083-87.849-24.141-62.079-157.225-18.355-208.85z" fill="#5A4A42"/><path d="M2701.428 2976.864c-2.858-10.702-13.984-16.189-24.389-13.848-76.928 17.324-122.484 87.076-208.641 80.212-84.578-6.739-124.869-79.643-195.903-112.518-13.117-6.071-25.652-.939-30.789 12.526-45.75 119.912 123.819 208.579 219.754 213.729 91.541 4.912 272.133-59.687 239.968-180.101z" fill="#5A4A42"/><path d="M2516.438 2706.715c-25.297-25.73-58.519-18.543-90.027-29.462-41.902-14.521-21.713-51.159-10.392-82.538l41.161-114.096c12.866-35.658 30.396-73.704 20.309-112.018-3.875-14.719-22.87-23.473-36.143-14.705-43.462 28.711-57.446 90.317-76.023 136.245-20.313 50.221-56.449 109.995-54.714 165.377 1.474 47.061 35.771 84.366 77.904 101.174 42.249 16.854 103.9 17.365 131.185-24.708 5.034-7.763 3.011-18.891-3.26-25.269z" fill="#5A4A42"/><path d="M3478.106 2761.299c-6.056-144.882-178.425-172.514-291.231-159.499-44.518 5.136-105.057 18.349-158.364 42.587-9.964 3.602-19.878 7.381-29.695 11.492-56.643 23.726-127.269 59.317-131.073 129.372-3.961 72.931 51.702 110.5 120.99 129.457 65.994 31.819 158.477 29.15 223.225 16.718 107.761-5.641 271.917-32.157 266.148-170.127z" fill="#ED896F"/><path d="M2987.568 2029.217c33.803 24.808 82.406 23.432 122.302 33.343 50.763 12.61 100.604 27.174 148.861 47.498 19.221 8.094 30.501-18.327 13.377-28.77-43.746-26.677-89.595-50.906-138.805-65.768-41.225-12.451-98.869-34.023-140.476-15.394-10.921 4.89-16.547 20.807-5.259 29.091z" fill="#37474F"/><path d="M2089.674 1999.978c-33.803 24.808-82.406 23.432-122.302 33.343-50.763 12.61-100.604 27.174-148.861 47.498-19.222 8.094-30.501-18.327-13.377-28.77 43.746-26.677 89.595-50.906 138.805-65.768 41.225-12.451 98.869-34.023 140.475-15.394 10.922 4.89 16.548 20.807 5.26 29.091z" fill="#37474F"/><path d="M4625.442 1364.574c-107.236-232.188-292.668-419.944-512.429-547.936-261.338-189.727-606.851-261.892-924.653-260.935-466.479 1.406-932.507 172.936-1263.51 508.682-38.464 39.014-76.129 80.83-111.877 124.969-47.554 47.029-93.147 96.168-136.323 147.533-72.639 86.42-138.449 178.366-197.272 274.703-65.761 107.698-161.214 237.303-154.659 367.556 2.531 50.276 56.332 98.09 105.978 79.435 51.147 36.037 119.825 48.36 182.803 57.187 93.021 13.039 186.262 19.149 280.188 18.944 184.065-.408 368.814-16.301 552.143-31.667 184.732-15.485 373.46-37.281 552.765-86.196 95.213-25.974 219.695-64.476 301.623-136.428 4.632 15.835 9.149 30.215 12.694 42.119 27.928 93.772 69.531 182.992 115.638 269.095 44.355 82.83 97.938 159.142 147.193 238.916 23.967 38.818 38.818 77.264 54.977 119.514 7.6 19.868 18.236 45.433 21.749 66.001-6.284-10.148-6.695-5.811-1.227 13.012a125.265 125.265 0 0 0 9.375 27.446c8.93 21.755 27.4 35.207 51.9 29.468 104.237-24.418 119.733-167.826 90.327-253.067 35.485-110.754 48.826-228.665 66.435-343.482 5.454-35.567 9.986-71.235 14.015-106.962 6.29-3.985 12.426-9.229 18.259-15.93 97.513-112.005 294.982-131.631 390.9-4.686 43.732 57.876 62.776 139.059 46.329 209.882-19.794 85.24-87.781 139.809-153.38 191.983l-.174.14c-10.791 8.59-22.874 15.465-36.013 19.654-9.86 3.145-19.164 8.102-29.309 10.435-117.002 26.905-197.172 110.552-238.439 222.47l-.069.283c-.168 72.436-.987 144.858-2.237 217.271 1.909 13.688 4.435 27.236 7.996 40.543 18.873 70.529 66.158 139.676 122.873 185.417 36.469 29.413 77.605 49.668 121.112 63.809 45.028-78.823 95.812-154.376 150.038-225.374 115.527-151.257 250.939-290.088 337.068-461.664 168.261-335.195 163.464-733.782 7.193-1072.14z" fill="#5D4037"/><path d="M4625.442 1364.574c-107.236-232.188-292.668-419.944-512.429-547.936-261.338-189.727-606.851-261.892-924.653-260.935-466.479 1.406-932.507 172.936-1263.51 508.682-38.464 39.014-76.129 80.83-111.877 124.969-20.117 19.894-39.794 40.251-59.175 60.908 1.327 1.347 2.603 2.738 3.95 4.074 2.474 2.454 4.115 4.184 5.334 5.539 1.515.87 3.342 1.963 5.91 3.599 6.609 4.204 13.345 7.837 20.091 11.761 2.997 1.741 5.063 3.008 6.444 3.913 1.404.351 3.556.996 6.969 2.159a382.212 382.212 0 0 0 23.011 7.066c9.56 2.601 19.244 4.688 28.967 6.567 3.793.554 14.124 2.182 17.386 2.407 97.256 6.698 154.476-2.908 244.9-28.022 339.069-94.164 675.129-187.101 1031.338-172.024 370.507 15.682 720.426 151.465 948.888 453.311 92.91 122.754 152.775 260.168 190.648 405.295 1.609 1.983 3.265 3.897 4.82 5.956 43.732 57.876 62.776 139.059 46.329 209.882-1.975 8.5-4.549 16.616-7.431 24.536 24.962 218.291 22.154 445.455-29.792 659.515-1.986 8.186-4.167 16.285-6.295 24.409 112.307-144.282 240.32-278.82 322.984-443.492 168.261-335.194 163.464-733.781 7.193-1072.139z" fill="#4E342E"/><path d="M4676.723 1552.528c.131 2.083.292 4.064.477 5.691-.048-1.453-.094-2.89-.146-4.346-.106-.439-.217-.885-.331-1.345z" fill="#5D4037"/><path d="M1600.807 2762.438c5.217-124.791 153.682-148.591 250.846-137.381 38.344 4.424 90.488 15.804 136.403 36.681 8.582 3.102 17.122 6.357 25.577 9.899 48.789 20.436 109.621 51.091 112.897 111.432 3.411 62.817-44.532 95.176-104.212 111.505-56.842 27.407-136.501 25.107-192.27 14.4-92.817-4.86-234.209-27.698-229.241-146.536z" fill="#ED896F"/><path d="M2962.438 5984.571c14.991-58.605 28.467-117.671 43.601-175.48l88.706-338.812c33.516-128.015 61.258-257.746 89.528-387.022 23.924-109.391 64.226-237.386 58.007-352.756-46.338-11.485-91.802-25.157-135.689-40.479-53.641 82.987-77.339 189.453-107.61 281.608-37.622 114.551-71.777 230.537-105.946 346.167-63.769 215.798-121.294 435.713-174.887 654.502a3025.997 3025.997 0 0 0 244.29 12.272z" fill="#C5CAE9"/></g><metadata><rdf:RDF xmlns:rdf="http://www.w3.org/1999/02/22-rdf-syntax-ns#" xmlns:rdfs="http://www.w3.org/2000/01/rdf-schema#" xmlns:dc="http://purl.org/dc/elements/1.1/"><rdf:Description about="https://iconscout.com/legal#licenses" dc:title="-businesswoman" dc:description="-businesswoman" dc:publisher="Iconscout" dc:date="2018-02-21" dc:format="image/svg+xml" dc:language="en"><dc:creator><rdf:Bag><rdf:li>Sooodesign .</rdf:li></rdf:Bag></dc:creator></rdf:Description></rdf:RDF></metadata></svg>