<?xml version="1.0" encoding="UTF-8"?><svg xmlns="http://www.w3.org/2000/svg" xmlns:xlink="http://www.w3.org/1999/xlink" version="1.1" x="0px" y="0px" viewBox="0 0 5984.956 5984.956" xml:space="preserve"><g id="_x31_3-Captain"><circle cx="2992.478" cy="2992.478" r="2992.478" fill="#5E35B1"/><path d="M3941.779 4813.936c-12.431-4.371-24.298-4.935-35.216-2.686-24.345-2.936-50.807.576-77.209 11.939-166.314 71.58-364.795 80.41-539.956 40.667-197.563-44.83-355.453-169.757-541.72-242.457-201.008-78.453-425.979-65.723-633.52-23.281-196.568 40.197-387.416 109.377-568.303 195.58-63.361 30.196-125.201 63.278-185.503 98.916-35.097 17.787-69.802 36.287-104.004 55.606-91.873 51.892-185.468 109.65-247.028 193.49a2929.46 2929.46 0 0 0-29.308 24.777c-7.762 6.66-14.108 14.371-19.345 22.704 533.637 493.817 1247.41 795.764 2031.81 795.764 686.844 0 1319.513-231.56 1824.559-620.652-251.258-241.195-542.309-433.364-875.257-550.367z" fill="#E3F2FD"/><path d="M3913.349 2709.173c-20.072-60.246-80.455-70.826-122.249-42.319-14.918-.283-30.181 3.634-44.49 12.927-55.216 35.86-94.336 84.029-137.254 133.144-40.904 46.812-82.267 93.302-123.752 139.602-85.128 95.013-174.717 185.501-266.884 273.652-90.129 86.2-183.122 169.2-279.872 247.92-84.199 68.507-199.427 165.203-198.602 284.96-.993 1.692-1.954 3.419-2.754 5.307-23.793 56.168-18.263 109.41-15.113 169.032 3.09 58.49 8.691 116.765 10.712 175.338 3.96 114.75-.393 229.426-9.571 343.82-18.26 227.553-67.981 451.408-144.013 666.642-19.576 55.413 17.556 118.346 69.237 140.251 22.565 19.293 52.334 31.167 84.417 34.555 336.959 35.58 673.921 71.141 1010.893 106.616 72.671 7.65 128.632-66.442 131.306-131.306 13.743-333.249 22.212-666.672 31.942-1000.06 9.63-329.969 21.236-660.336 22.574-990.442.377-92.956.741-185.909 1.302-278.862.582-95.902 12.874-198.634-17.829-290.777z" fill="#F4C5A2"/><path d="M3931.177 2999.949c.348-57.01 4.769-116.424 1.901-174.602-25.291-62.11-95.353-72.701-144.222-42.332-17.791-.308-35.996 3.949-53.062 14.046-65.853 38.966-112.51 91.307-163.697 144.677-48.784 50.866-98.118 101.384-147.593 151.694-101.531 103.243-208.38 201.568-318.301 297.355-107.493 93.666-218.402 183.855-333.792 269.393-3.519 2.607-7.152 5.322-10.753 8.004-13.524 28.588-21.632 58.901-21.413 90.874-.993 1.692-1.955 3.42-2.754 5.308-23.792 56.167-18.265 109.409-15.114 169.032 2.046 38.714 5.131 77.339 7.611 116.014 156.451 93.177 313.738 185.115 476.356 269.237 163.605 84.633 335.253 154.063 501.196 234.535 62.865 30.484 125.744 60.969 188.956 90.844 3.636-124.923 7.16-249.85 10.805-374.773 9.629-329.969 21.236-660.336 22.574-990.441.378-92.958.743-185.912 1.302-278.865z" fill="#E5AC85"/><path d="M4292.162 2355.21c-27.491-119.859-140.029-203.81-257.501-223.051-79.552-13.032-157.547-.937-231.976 24.591 12.151-194.359 29.179-388.348 45.198-582.466 3.033-36.764-29.643-78.08-65.347-85.832-338.395-73.469-681.767-119.991-1028.05-131.53-171.934-5.729-344.156-3.294-515.853 7.421-169.202 10.562-354.191 19.069-513.578 77.679-50.277 18.491-62.271 74.191-39.328 109.905-81.742 97.755-131.433 225.358-177.277 341.316-57.053 144.31-101.674 292.579-134.715 444.192-65.729 301.601-114.568 642.839 6.061 937.157 19.875 48.49 43.296 94.497 69.829 138.057 116.914 243.028 322.927 419.234 572.138 523.186 287.494 119.92 606.259 124.901 910.875 84.008 147.205-19.762 290.135-50.177 425.454-113.31 131.56-61.381 242.466-161.571 322.13-282.491 167.763-254.649 181.532-567.616 172.897-865.066 97.802-.46 196.49-13.972 279.858-66.378 112.629-70.8 190.139-202.418 159.185-337.388z" fill="#F4C5A2"/><path d="M1973.343 2464.101c-14.02-16.553-40.557-21.542-60.611-16.02-22.889 6.303-34.979 22.691-43.509 43.51-22.003 53.7 9.197 180.699 87.721 159.119 78.492-21.569 55.466-140.481 16.399-186.609z" fill="#5A4A42"/><path d="M2971.116 2531.759c14.02-16.553 40.557-21.542 60.611-16.02 22.889 6.303 34.979 22.691 43.509 43.51 22.003 53.7-9.197 180.699-87.721 159.119-78.492-21.57-55.466-140.482-16.399-186.609z" fill="#5A4A42"/><path d="M2638.416 3320.323c-2.858-10.699-13.98-16.185-24.383-13.844-76.909 17.32-122.453 87.054-208.589 80.192-84.556-6.737-124.838-79.623-195.854-112.489-13.114-6.069-25.645-.939-30.781 12.523-45.738 119.882 123.788 208.527 219.699 213.676 91.518 4.91 272.065-59.673 239.908-180.058z" fill="#5A4A42"/><path d="M2510.667 2978.646c-34.355-34.942-79.471-25.183-122.261-40.011-56.906-19.72-29.487-69.477-14.112-112.091l55.899-154.947c17.472-48.426 41.278-100.094 27.58-152.125-5.262-19.989-31.059-31.877-49.084-19.97-59.023 38.992-78.014 122.655-103.243 185.027-27.586 68.202-76.661 149.378-74.303 224.589 2.001 63.91 48.579 114.573 105.797 137.398 57.376 22.889 141.101 23.583 178.155-33.555 6.836-10.542 4.089-25.653-4.428-34.315z" fill="#5A4A42"/><path d="M1998.297 2144.189c-69.797-37.88-157.483-34.333-234.07-24.409-54.972 7.122-190.168 27.59-188.165 106.389 1.967 77.394 120.285 44.551 163.35 35.428 81.666-17.299 166.598-9.179 247.164-27.729 40.82-9.397 48.192-69.883 11.721-89.679z" fill="#5A4A42"/><path d="M3355.5 2286.999c-16.657-61.999-95.009-95.035-150.594-113.077-60.593-19.67-144.583-44.136-206.868-21.704-35.339 12.726-51.852 68.526-11.497 87.965 54.743 26.367 120.715 27.068 178.616 46.849 51.805 17.7 110.853 52.921 166.608 41.764 18.09-3.62 28.23-25.065 23.735-41.797z" fill="#5A4A42"/><path d="M3341.389 3011.749c-6.055-144.846-178.38-172.471-291.159-159.459-44.506 5.135-105.03 18.344-158.324 42.576-9.962 3.601-19.874 7.379-29.688 11.489-56.629 23.72-127.237 59.302-131.04 129.34-3.959 72.912 51.689 110.472 120.959 129.425 65.977 31.811 158.437 29.142 223.169 16.714 107.736-5.64 271.85-32.148 266.083-170.085z" fill="#E5AC85"/><path d="M1446.363 2793.141c31.525-126.809 188.66-120.081 285.877-88.224 38.366 12.572 89.413 35.167 132.086 66.189 8.144 4.979 16.212 10.105 24.134 15.507 45.71 31.172 101.617 75.344 92.316 137.876-9.682 65.099-65.602 88.215-130.184 92.441-63.999 16.175-145.148-2.88-200.051-25.545-94.098-24.438-234.2-77.485-204.178-198.244z" fill="#E5AC85"/><path d="M4001.319 4793.445c-37.365-33.813-87.474-26.538-124.507 3.296-145.051 116.843-337.16 178.856-522.834 170.597-170.814-7.596-335.868-83.835-458.27-202.132-27.748-26.818-54.26-55.403-77.311-86.37-31.101-41.776-53.294-108.915-98.999-135.645-94.52-55.288-237.997 18.623-303.792 88.217-161.976 171.333-109.721 431.242 46.387 587.402 154.374 154.424 391.019 226.218 600.426 264.933 223.513 41.326 457.834 37.014 670.481-49.674 101.752-41.481 194.099-95.228 278.213-166.27 80.664-68.127 159.418-159.596 154.853-271.835-4.017-98.763-73.345-183.835-164.647-202.519z" fill="#B3E5FC"/><path d="M3859.305 2995.112c-.222-13.993-.465-27.985-.825-41.964-1.495-57.968-10.899-114-15.83-171.585-3.921-45.749-5.311-91.48-14.201-136.709-14.42-73.351-52.728-134.902-119.639-164.204-4.44-22.5-10.174-44.491-17.762-65.584-21.059-58.52-122.29-74.378-135.264 0-20.502 117.552-14.389 237.125-42.277 354.215-26.338 110.579-72.345 218.405-146.146 305.935-64.554 76.564-146.959 140.301-242.078 173.88-47.679 16.832-96.688 28.146-147.31 29.554-46.147 1.283-92.551-12.344-138.024-11.8-80.707-146.962-328.375-161.109-480.337-181.388-133.004-17.75-302.248-69.225-425.386 6.955-87.539 54.157-120.635 139.08-133.791 230.932-66.067 2.491-127.775-44.853-165.141-95.299-22.249-30.037-41.538-62.987-58.43-97.727-120.826-98.289-191.099-273.813-242.84-410.12-7.685-20.249-15.008-40.647-22.146-61.115-.382 9.819-.836 19.641-1.176 29.458-3.248 94.026-13.747 186.635-11.864 280.842 2.233 111.693 13.266 227.209 36.29 340.424 6.029 90.803 24.549 181.829 51.314 269.93 6.592 51.446 18.29 101.686 27.751 142.63 24.118 104.369 64.07 205.657 115.786 299.41 214.333 388.556 644.241 624.732 1087.098 604.001 239.733-11.223 464.174-97.106 653.175-244.058 22.327-17.36 44.035-35.884 65.019-55.368 230.841-182.778 384.041-461.045 447.097-749.059 16.074-73.425 28.182-147.881 37.391-222.669 39.964-117.857 56.793-241.277 39.546-359.517zM2130.42 3246.796c8.779-9.361 18.847-16.611 29.723-22.444 44.471 5.244 88.826 11.822 133.198 17.744 85.513 11.412 172.661 18.822 257.149 36.589 46.675 9.815 120.94 30.452 131.665 86.303 12.451 64.859-55.793 114.383-107.385 134.407-76.081 29.529-171.197 36.085-251.47 25.878-70.656-8.983-146.656-38.921-191.422-96.72-38.219-49.346-47.162-133.037-1.458-181.757z" fill="#D84315"/><path d="M4525.309 1375.649c-77.929-141.526-191.673-274.611-339.563-345.425-76.851-36.799-163.932-61.481-249.926-56.911-52.841 2.807-128.937 16.614-178.871 52.487-71.908-365.832-642.279-284.138-908.591-225.563-387.093 85.141-761.55 247.712-1161.191 266.438-210.192 9.849-421.034-19.692-606.526-123.701-33.042-18.526-65.171-17.869-91.325-5.18-29.747.478-59.801 16.426-73.1 52.004-7.186 19.226-12.674 39.125-16.634 59.379-84.575 360.604 162.588 685.56 479.93 843.864 275.795 137.578 586.309 190 891.537 165.216a2534.427 2534.427 0 0 0 130.093-6.884c217.071-17.053 436.764-56.393 642.658-128.395 116.497-40.739 230.76-89.144 340.948-144.738 55.332-27.917 116.778-59.273 173.822-95.948-6.567 72.55-8.9 145.474-6.564 218.284 2.393 74.621 8.369 150.486 18.306 225.881-3.238 18.212-5.756 36.497-8.104 54.213-16.052 121.191-32.698 242.253-50.052 363.264-6.073 42.35 9.792 89.372 57.043 100.466 55.823 13.106 111.683 25.901 167.688 38.199 52.187 11.46 104.064-23.774 104.435-79.555.551-83.1 9.486-165.74 31.016-246.126 15.131-56.49 37.532-109.758 58.828-163.585 63.237 9.164 128.145 7.86 190.159 24.982 150.789 41.632 201.339 232.611 93.244 344.686-52.294 54.22-133.327 70.686-192.777 116.067-73.649 56.22-87.304-8.67-95.14 80.596-10.304 117.397-30.575 378.445-36.247 496.149-5.078 105.379-36.1 263.935 29.079 355.907 20.376 28.751 65.998 43.091 92.944 11.977 26.806-30.955 41.935-69.369 50.867-110.462 29.141 15.031 67.728 14.07 97.893 1.189 69.046-29.483 100.695-96.2 131.071-160.246.454-.957.886-1.923 1.338-2.88 3.259-1.645 6.394-3.479 9.195-5.709 121.203-96.514 176.723-277.621 223.308-420.385 50.625-155.147 82.737-315.456 99.987-477.652 14.84-139.552 16.298-280.546 2.748-420.21 41.891-220.476 1.587-460.801-103.526-651.693z" fill="#EF6C00"/><path d="M4525.309 1375.649c-77.929-141.526-191.673-274.611-339.563-345.425-76.851-36.799-163.932-61.481-249.926-56.911-52.841 2.807-128.937 16.614-178.871 52.487-71.908-365.832-642.279-284.138-908.591-225.563-387.093 85.141-761.55 247.712-1161.191 266.438-195.3 9.151-391.131-15.801-566.699-102.801-.41 26.236.178 52.228 1.109 78.468.742 10.041 2.942 37.951 6.685 53.087 2.691 10.883 5.974 21.541 9.219 32.225 4.98 9.799 14.948 31.778 17.981 36.978 7.738 13.27 16.497 25.754 24.701 38.7a410.656 410.656 0 0 1 3.36 3.362c9.048 9.157 17.367 19.046 26.501 28.155 13.045 13.011 26.9 24.945 40.703 37.069.494.305.91.557 1.438.886 26.542 16.584 52.243 33.917 79.879 48.805 17.17 9.249 34.776 17.456 52.285 25.98 25.131 9.221 50.099 18.647 75.667 26.716 55.904 17.643 112.947 31.605 170.469 42.84 28.283 5.524 56.703 10.027 85.153 14.525 19.483 1.664 38.904 3.991 58.418 5.452 78.158 5.85 156.633 6.94 234.943 3.876 41.446-1.622 82.839-4.431 124.142-8.184 20.462-1.859 40.898-3.985 61.311-6.313 3.261-.372 10.504-1.032 18.096-1.694 71.789-6.68 144.26-23.237 214.868-36.657 157.027-29.847 313.114-64.511 470.628-91.812 297.811-51.618 598.733-79.428 872.801 75.882 260.445 147.59 423.942 426.678 527.798 698.489 180.534 472.494 95.009 1007.081-140.334 1444.776.952-.377 1.96-.659 2.897-1.058 69.046-29.483 100.695-96.2 131.071-160.246.454-.957.886-1.923 1.338-2.88 3.259-1.645 6.394-3.479 9.195-5.709 121.203-96.514 176.723-277.621 223.308-420.385 50.625-155.147 82.737-315.456 99.987-477.652 14.84-139.552 16.298-280.546 2.748-420.21 41.893-220.479 1.589-460.804-103.524-651.696z" fill="#E65100"/></g><metadata><rdf:RDF xmlns:rdf="http://www.w3.org/1999/02/22-rdf-syntax-ns#" xmlns:rdfs="http://www.w3.org/2000/01/rdf-schema#" xmlns:dc="http://purl.org/dc/elements/1.1/"><rdf:Description about="https://iconscout.com/legal#licenses" dc:title="-captain" dc:description="-captain" dc:publisher="Iconscout" dc:date="2018-02-21" dc:format="image/svg+xml" dc:language="en"><dc:creator><rdf:Bag><rdf:li>Sooodesign .</rdf:li></rdf:Bag></dc:creator></rdf:Description></rdf:RDF></metadata></svg>