<?xml version="1.0" encoding="UTF-8"?><svg xmlns="http://www.w3.org/2000/svg" xmlns:xlink="http://www.w3.org/1999/xlink" version="1.1" x="0px" y="0px" viewBox="0 0 5984.956 5984.956" xml:space="preserve"><g id="_x31_7-Cashier"><circle cx="2992.478" cy="2992.478" r="2992.478" fill="#EC407A"/><path d="M5663.578 3941.713c-180.729-339.925-378.911-679.945-456.867-1061.471-40.422-197.824-43.087-402.376-30.639-603.326 1.461-23.611 3.077-47.236 4.737-70.87 35.947-123.482 68.082-247.966 85.935-376.822 38.75-279.541 33.972-612.82-187.315-820.983-119.394-112.315-279.726-163.981-442.272-145.159-183.211 21.214-337.67 105.316-445.558 255.117-39.163 54.379-20.787 140.854 23.947 185.589 9.734 9.733 20.248 17.655 31.31 23.945 6.273 58.727 40.008 111.679 95.353 153.519 79.896 60.4 156.391 42.77 243.944 35.214 3.884.407 50.684-1.055 59.44-.93l8.732.112c4.27.314 7.671.542 10.391.702 1.638 2.4 3.216 4.688 4.563 6.627.18 1.219.377 2.488.605 3.888.485 2.95 4.475 16.255 6.837 25.665-.71-11.294-.59-25.297.331 1.332v.013c1.133 4.645 1.775 8.083 1.196 8.298-.417.154-.765-1.487-1.05-3.952 1.239 35.606 2.463 70.514.029 106.224-1.03 15.102-2.466 30.182-3.99 45.245-.26 1.321-.488 2.501-.782 4.002-5.251 26.84-10.6 53.588-17.437 80.084-8.584 33.272-18.756 66.142-30.065 98.583-4.552 13.053-9.318 26.044-14.235 38.961-1.022 2.678-17.163 40.448-15.354 37.219-51.483 112.651-110.94 220.833-170.592 329.354-131.813 239.81-252.508 499.14-262.52 777.24-3.762 104.461 11.027 208.13 41.543 306.966 7.32 33.494 16.515 66.606 27.914 99.08 109.177 311.029 368.637 550.276 684.727 641.208 95.322 27.422 196.313 40.365 295.457 40.582 48.572.106 103.68-3.589 156.836-14.139 78.949-6.424 155.74-19.821 226.059-38.025 74.395-19.261 102.997-104.762 68.79-169.092z" fill="#3E2723"/><path d="M4913.173 1134.707c110.875 150.003 149.065 348.548 167.775 529.886 17.346 168.046 4.675 338.14-14.708 505.427-11.878 102.495-26.284 204.703-40.702 306.865-3.368 23.827-6.752 47.651-10.091 71.48-.816 5.834-4.104 29.927-5.833 42.436a8049.918 8049.918 0 0 0-2.426 18.778c-2.488 19.732-4.891 39.476-7.14 59.237-20.497 180.059-17.871 359.389-.685 539.77 2.694 28.29 2.625 60.743 9.692 88.362-14.766-57.734 2.283 14.194 4.72 29.48 8.185 51.281 17.774 102.327 28.881 153.056 20.811 95.057 45.239 190.935 79.811 282.024.285.74.508 1.344.771 2.032a581.66 581.66 0 0 1 5.205 10.521c8.173 16.858 16.827 33.479 25.999 49.812 16.81 29.916 35.296 58.876 55.205 86.821a648.636 648.636 0 0 1 3.373 4.767 924.907 924.907 0 0 1 3.733 4.444 1105.709 1105.709 0 0 0 36.221 41.304c23.133 25.083 47.402 49.1 72.539 72.167 15.565 14.284 31.467 28.186 47.665 41.749 4.561 3.822 9.178 7.583 13.772 11.367 24.075 16.961 47.448 34.993 71.792 51.621 47.066-7.052 92.864-16.132 136.049-27.312 74.394-19.258 102.996-104.758 68.789-169.089-180.729-339.925-378.911-679.945-456.867-1061.471-40.422-197.824-43.087-402.376-30.639-603.326 1.461-23.611 3.077-47.236 4.737-70.87 35.947-123.482 68.082-247.966 85.935-376.822 38.75-279.541 33.972-612.82-187.315-820.983-119.394-112.315-279.726-163.981-442.272-145.159-21.484 2.488-42.537 5.921-63.202 10.143 133.907 56.901 252.924 144.738 339.216 261.483z" fill="#2B1B19"/><path d="M2992.478 5984.956c761.527 0 1456.468-284.614 1984.664-753.067-287.451-255.145-677.404-546.021-959.133-645.026-12.437-4.371-24.306-4.935-35.228-2.686-4.928-.594-9.966-.85-15.051-.904 5.565-180.398 10.528-360.817 15.793-541.229 9.632-330.051 21.241-660.502 22.58-990.69.377-92.979.742-185.956 1.301-278.932.582-95.925 12.877-198.682-17.834-290.849-20.077-60.26-80.476-70.844-122.279-42.33-14.923-.283-30.188 3.635-44.5 12.93-55.231 35.869-94.363 84.05-137.29 133.177-40.913 46.823-82.288 93.326-123.783 139.637-85.15 95.037-174.761 185.547-266.952 273.721-90.15 86.221-183.169 169.242-279.943 247.982-84.217 68.524-199.476 165.244-198.651 285.031-.993 1.692-1.955 3.42-2.754 5.308-23.798 56.182-18.268 109.438-15.117 169.075 3.091 58.504 8.693 116.794 10.713 175.381 3.961 114.778-.391 229.484-9.572 343.906-4.141 51.604-9.983 103.007-17.3 154.174-190.215-61.801-398.774-48.13-592.214-8.572-196.619 40.207-387.513 109.404-568.447 195.627-63.378 30.205-125.233 63.293-185.549 98.941-35.105 17.792-69.819 36.297-104.031 55.621-64.263 36.299-311.064 227.208-474.801 367.456 543.004 553.097 1299.055 896.318 2135.378 896.318z" fill="#F4C5A2"/><path d="M3787.521 4384.226c60.958 32.445 121.919 64.917 183.24 96.664 4.352-146.278 8.493-292.563 12.762-438.846 9.632-330.051 21.241-660.502 22.58-990.69.377-92.979.742-185.956 1.301-278.932.268-44.145 2.979-89.733 2.877-135.074-2.617-11.039-5.582-21.997-9.181-32.799-22.511-67.571-90.236-79.438-137.113-47.464-16.732-.318-33.85 4.076-49.9 14.498-61.928 40.221-105.806 94.246-153.942 149.333-45.878 52.504-92.271 104.647-138.8 156.576-95.478 106.566-195.959 208.056-299.334 306.926-101.089 96.681-205.389 189.773-313.904 278.065-31.31 25.475-66.415 54.466-99.36 86.683-18.299 51.773-13.367 101.611-10.445 156.938 2.069 39.183 5.211 78.273 7.703 117.418 167.707 110.004 335.693 219.549 510.183 318.621 153.856 87.357 315.278 159.022 471.333 242.083z" fill="#E5AC85"/><path d="M4368.802 2080.455c-26.205-114.254-133.481-194.279-245.46-212.621-75.831-12.423-150.179-.893-221.129 23.44 11.583-185.27 27.814-370.188 43.084-555.228 2.892-35.045-28.256-74.429-62.291-81.818-322.571-70.034-649.886-114.381-979.976-125.381-163.894-5.462-328.063-3.141-491.731 7.073-161.29 10.068-337.629 18.176-489.563 74.045-47.926 17.626-59.359 70.722-37.489 104.766-77.92 93.184-125.287 214.82-168.987 325.355-54.385 137.561-96.919 278.897-128.416 423.421-62.656 287.497-109.211 612.778 5.777 893.333 18.945 46.222 41.271 90.078 66.564 131.601 111.447 231.664 307.827 399.63 545.383 498.722 274.051 114.313 577.909 119.062 868.281 80.081 140.322-18.838 276.567-47.83 405.559-108.011 125.408-58.51 231.128-154.015 307.066-269.281 159.918-242.741 173.043-541.073 164.813-824.613 93.228-.438 187.302-13.318 266.771-63.274 107.365-67.489 181.251-192.951 151.744-321.61z" fill="#F4C5A2"/><path d="M2053.543 2226.279c-15.691-18.526-45.391-24.109-67.835-17.929-25.617 7.054-39.148 25.395-48.695 48.696-24.625 60.1 10.293 202.234 98.175 178.083 87.849-24.141 62.079-157.225 18.355-208.85z" fill="#5A4A42"/><path d="M2994.299 2226.279c15.691-18.526 45.391-24.109 67.835-17.929 25.617 7.054 39.148 25.395 48.695 48.696 24.625 60.1-10.293 202.234-98.175 178.083-87.849-24.141-62.079-157.225-18.355-208.85z" fill="#5A4A42"/><path d="M2701.428 2976.864c-2.858-10.702-13.984-16.189-24.389-13.848-76.928 17.324-122.484 87.076-208.641 80.212-84.578-6.739-124.869-79.643-195.903-112.518-13.117-6.071-25.652-.939-30.789 12.526-45.75 119.912 123.819 208.579 219.754 213.729 91.541 4.912 272.133-59.687 239.968-180.101z" fill="#5A4A42"/><path d="M2516.438 2706.715c-25.297-25.73-58.519-18.543-90.027-29.462-41.902-14.521-21.713-51.159-10.392-82.538l41.161-114.096c12.866-35.658 30.396-73.704 20.309-112.018-3.875-14.719-22.87-23.473-36.143-14.705-43.462 28.711-57.446 90.317-76.023 136.245-20.313 50.221-56.449 109.995-54.714 165.377 1.474 47.061 35.771 84.366 77.904 101.174 42.249 16.854 103.9 17.365 131.185-24.708 5.034-7.763 3.011-18.891-3.26-25.269z" fill="#5A4A42"/><path d="M3478.106 2761.299c-6.056-144.882-178.425-172.514-291.231-159.499-44.518 5.136-105.057 18.349-158.364 42.587-9.964 3.602-19.878 7.381-29.695 11.492-56.643 23.726-127.269 59.317-131.073 129.372-3.961 72.931 51.702 110.5 120.99 129.457 65.994 31.819 158.477 29.15 223.225 16.718 107.761-5.641 271.917-32.157 266.148-170.127z" fill="#ED896F"/><path d="M2987.568 2029.217c33.803 24.808 82.406 23.432 122.302 33.343 50.763 12.61 100.604 27.174 148.861 47.498 19.221 8.094 30.501-18.327 13.377-28.77-43.746-26.677-89.595-50.906-138.805-65.768-41.225-12.451-98.869-34.023-140.476-15.394-10.921 4.89-16.547 20.807-5.259 29.091z" fill="#37474F"/><path d="M2089.674 1999.978c-33.803 24.808-82.406 23.432-122.302 33.343-50.763 12.61-100.604 27.174-148.861 47.498-19.222 8.094-30.501-18.327-13.377-28.77 43.746-26.677 89.595-50.906 138.805-65.768 41.225-12.451 98.869-34.023 140.475-15.394 10.922 4.89 16.548 20.807 5.26 29.091z" fill="#37474F"/><path d="M2064.823 2802.9c-7.306-4.875-14.383-10.126-21.352-15.563-4.247-16.958-13.282-34.353-28.059-51.131-37.328-42.384-93.706-68.348-142.361-94.854-46.138-25.135-99.788-55.091-153.543-35.904-11.975 4.274-22.052 9.732-30.576 16.041-5.622 1.987-11.196 4.268-16.667 7.1a153.197 153.197 0 0 0-16.415 9.857c-17.409 2.852-34.061 9.374-49.075 21.661-34.888 28.549-47.571 78.76-21.384 117.76 6.096 9.077 13.864 16.861 22.645 23.734 41.969 76.378 168.103 107.7 258.584 114.8 63.093 10.481 127.444-1.881 185.971-30.39 14.167-6.9 22.662-23 23.921-39.371 7.312-13.994 4.583-32.879-11.689-43.74z" fill="#ED896F"/><path d="M1435.934 4665.562c-35.105 17.792-69.819 36.297-104.031 55.621-64.263 36.299-311.064 227.208-474.801 367.457 543.002 553.096 1299.052 896.317 2135.376 896.317 761.527 0 1456.468-284.614 1984.664-753.068-143.061-126.982-311.512-262.8-479.373-379.427-72.22 34.131-140.912 76.443-212.01 112.448-93.92 47.561-191.04 86.344-290.496 120.656-203.454 70.189-417.007 112.074-632.119 121.015-417.438 17.352-874.788-80.878-1174.679-391.123-77.933-80.626-140.915-172.501-189.133-273.759-17.043-35.788-29.338-72.749-41.101-109.628-115.238 36.958-227.809 82.636-336.749 134.551-63.377 30.203-125.232 63.292-185.548 98.94z" fill="#29B6F6"/><path d="M4625.442 1364.573c-107.236-232.187-292.668-419.942-512.429-547.935-261.338-189.727-606.851-261.893-924.653-260.935-466.479 1.406-932.507 172.935-1263.51 508.682-157.575 159.831-302.237 366.399-354.754 588.779-5.365 8.364-9.369 17.364-11.353 26.716-8.35 39.388-4.098 72.499 8.875 100.483 11.407 31.044 32.796 57.588 62.996 70.077 78.675 53.008 200.948 70.836 281.435 76.515 187.275 13.213 375.595 24.179 563.401 20.041 175.58-3.869 352.684-20.733 520.939-73.281 67.622-21.121 139.268-44.354 202.261-79.291 22.383-6.577 45.422-13.716 67.499-22.692 74.702 56.765 143.218 121.478 204.555 192.547 40.408 46.819 74.466 99.15 109.779 150.222 6.244 21.856 11.515 43.976 15.171 66.279 8.29 50.574 7.483 102.214 19.697 152.259 1.575 6.458 4.281 12.262 7.777 17.426 10.091 66.436 39.891 125.517 105.881 161.475 22.426 12.221 44.24.148 53.125-21.612 51.774-126.797 66.458-265.995 87.145-400.888 5.454-35.568 9.986-71.235 14.015-106.963 6.29-3.985 12.426-9.229 18.259-15.93 97.513-112.004 294.982-131.63 390.9-4.687 43.732 57.877 62.776 139.061 46.329 209.883-19.794 85.24-87.781 139.808-153.38 191.983l-.174.139c-10.791 8.591-22.874 15.465-36.013 19.654-9.86 3.144-19.164 8.102-29.309 10.435-117.002 26.905-197.172 110.552-238.439 222.469l-.069.283c-.656 283.805-11.119 567.399-19.697 851.041 53.507 16.328 122.239-6.504 144.199-70.573 61.301-178.855 160.777-348.885 275.279-498.799 115.527-151.258 250.939-290.09 337.068-461.664 168.263-335.192 163.466-733.778 7.195-1072.138z" fill="#5D4037"/><path d="M4625.442 1364.573c-107.236-232.187-292.668-419.942-512.429-547.935-261.338-189.727-606.851-261.893-924.653-260.935-329.157.992-658.024 86.808-939.453 255.134 22.123 5.753 44.437 9.994 66.857 14.152 33.142 2.273 37.026 3.824 31.078 3.982 43.655 4.108 87.488 6.611 131.303 8.2 83.749 3.037 167.615 2.183 251.387.736 171.025-2.957 342.282-9.535 513.248-.804 377.955 19.302 767.703 118.36 981.385 459.157 121.54 193.839 159.958 440.874 152.709 666.047-4.489 139.383-32.905 276.255-85.887 405.004-54.805 133.182-124.139 256.973-188.188 385.558-16.398 32.923-31.518 66.358-46.709 99.845-1.267 2.79-2.863 5.719-4.455 8.385-4.141 10.912-7.634 22.424-11.407 32.348-21.138 55.559-40.048 111.958-56.612 169.048-18.393 63.401-33.858 127.638-46.112 192.509-2.917 15.437-5.614 30.909-8.148 46.412a90.156 90.156 0 0 0-.462 3.269c-1.45 38.396-2.072 29.007-1.219 14.008-2.257 23.919-6.23 47.971-8.008 71.759-2.012 26.909-3.248 53.865-3.995 80.833 38.707-6.074 75.293-30.527 90.23-74.108 61.301-178.855 160.777-348.885 275.279-498.799 115.527-151.258 250.939-290.09 337.068-461.664 168.261-335.195 163.464-733.781 7.193-1072.141z" fill="#4E342E"/><path d="M4676.723 1552.528c.131 2.083.292 4.064.477 5.691-.048-1.453-.094-2.89-.146-4.346-.106-.439-.217-.885-.331-1.345z" fill="#5D4037"/></g><metadata><rdf:RDF xmlns:rdf="http://www.w3.org/1999/02/22-rdf-syntax-ns#" xmlns:rdfs="http://www.w3.org/2000/01/rdf-schema#" xmlns:dc="http://purl.org/dc/elements/1.1/"><rdf:Description about="https://iconscout.com/legal#licenses" dc:title="-cashier" dc:description="-cashier" dc:publisher="Iconscout" dc:date="2018-02-21" dc:format="image/svg+xml" dc:language="en"><dc:creator><rdf:Bag><rdf:li>Sooodesign .</rdf:li></rdf:Bag></dc:creator></rdf:Description></rdf:RDF></metadata></svg>