<?xml version="1.0" encoding="UTF-8"?><svg xmlns="http://www.w3.org/2000/svg" xmlns:xlink="http://www.w3.org/1999/xlink" version="1.1" x="0px" y="0px" viewBox="0 0 5984.956 5984.956" xml:space="preserve"><g id="_x31_0-Chef"><circle cx="2992.478" cy="2992.478" r="2992.478" fill="#C62828"/><path d="M3913.349 2959.138c-20.072-60.246-80.455-70.826-122.249-42.319-14.918-.283-30.181 3.634-44.49 12.927-55.216 35.86-94.336 84.029-137.254 133.144-40.904 46.812-82.267 93.302-123.752 139.602-85.128 95.013-174.717 185.501-266.884 273.652-90.129 86.2-183.122 169.2-279.872 247.919-84.199 68.507-199.427 165.203-198.602 284.96-.993 1.692-1.954 3.419-2.754 5.307-23.793 56.168-18.263 109.41-15.113 169.032 3.09 58.49 8.691 116.765 10.712 175.337 3.96 114.75-.393 229.427-9.571 343.82-18.26 227.553-67.981 451.408-144.013 666.641-19.576 55.413 17.556 118.346 69.237 140.251 22.565 19.293 52.334 31.167 84.417 34.556 336.959 35.58 673.921 71.14 1010.893 106.616 72.671 7.65 128.632-66.442 131.306-131.306 13.743-333.249 22.212-666.672 31.942-1000.06 9.63-329.969 21.236-660.336 22.574-990.442.377-92.956.741-185.909 1.302-278.862.582-95.899 12.874-198.631-17.829-290.775z" fill="#E0CDAA"/><path d="M3931.177 3249.914c.348-57.01 4.769-116.423 1.901-174.602-25.291-62.11-95.353-72.701-144.222-42.332-17.791-.307-35.996 3.949-53.062 14.046-65.853 38.967-112.51 91.308-163.697 144.677-48.784 50.866-98.118 101.384-147.593 151.694-101.531 103.243-208.38 201.568-318.301 297.355-107.493 93.666-218.402 183.856-333.792 269.393-3.519 2.607-7.152 5.322-10.753 8.004-13.524 28.588-21.632 58.901-21.413 90.874-.993 1.692-1.955 3.42-2.754 5.307-23.792 56.167-18.265 109.409-15.114 169.032 2.046 38.714 5.131 77.339 7.611 116.014 156.451 93.177 313.738 185.114 476.356 269.236 163.605 84.633 335.253 154.063 501.196 234.535 62.865 30.484 125.744 60.97 188.956 90.844 3.636-124.923 7.16-249.85 10.805-374.773 9.629-329.968 21.236-660.336 22.574-990.441.378-92.956.743-185.909 1.302-278.863z" fill="#D1B388"/><path d="M4292.162 2605.176c-27.491-119.859-140.029-203.81-257.501-223.051-79.552-13.033-157.547-.937-231.976 24.59 12.151-194.359 29.179-388.348 45.198-582.466 3.033-36.764-29.643-78.08-65.347-85.832-338.395-73.469-681.767-119.991-1028.05-131.53-171.934-5.729-344.156-3.294-515.853 7.421-169.202 10.562-354.191 19.069-513.578 77.679-50.277 18.491-62.271 74.191-39.328 109.905-81.742 97.755-131.433 225.358-177.277 341.316-57.053 144.31-101.674 292.579-134.715 444.192-65.729 301.6-114.568 642.839 6.061 937.157 19.875 48.49 43.296 94.497 69.829 138.057 116.914 243.028 322.927 419.234 572.138 523.186 287.494 119.92 606.259 124.901 910.875 84.007 147.205-19.762 290.135-50.176 425.454-113.31 131.56-61.381 242.466-161.571 322.13-282.492 167.763-254.649 181.532-567.616 172.897-865.066 97.802-.46 196.49-13.972 279.858-66.378 112.629-70.798 190.139-202.415 159.185-337.385z" fill="#EAD2AC"/><path d="M1973.343 2714.067c-14.02-16.553-40.557-21.542-60.611-16.02-22.889 6.303-34.979 22.691-43.509 43.51-22.003 53.7 9.197 180.699 87.721 159.119 78.492-21.57 55.466-140.482 16.399-186.609z" fill="#5A4A42"/><path d="M2971.116 2781.724c14.02-16.553 40.557-21.542 60.611-16.02 22.889 6.303 34.979 22.691 43.509 43.51 22.003 53.7-9.197 180.699-87.721 159.119-78.492-21.569-55.466-140.482-16.399-186.609z" fill="#5A4A42"/><path d="M2638.416 3570.289c-2.858-10.699-13.98-16.185-24.383-13.844-76.909 17.32-122.453 87.054-208.589 80.192-84.556-6.737-124.838-79.624-195.854-112.489-13.114-6.069-25.645-.939-30.781 12.523-45.738 119.882 123.788 208.527 219.699 213.676 91.518 4.909 272.065-59.674 239.908-180.058z" fill="#5A4A42"/><path d="M2510.667 3228.611c-34.355-34.942-79.471-25.183-122.261-40.011-56.906-19.72-29.487-69.477-14.112-112.09l55.899-154.948c17.472-48.426 41.278-100.094 27.58-152.125-5.262-19.989-31.059-31.877-49.084-19.97-59.023 38.992-78.014 122.655-103.243 185.026-27.586 68.202-76.661 149.378-74.303 224.589 2.001 63.91 48.579 114.573 105.797 137.398 57.376 22.889 141.101 23.583 178.155-33.555 6.836-10.54 4.089-25.652-4.428-34.314z" fill="#5A4A42"/><path d="M1998.297 2394.155c-69.797-37.88-157.483-34.334-234.07-24.409-54.972 7.122-190.168 27.59-188.165 106.389 1.967 77.394 120.285 44.551 163.35 35.429 81.666-17.299 166.598-9.179 247.164-27.729 40.82-9.398 48.192-69.885 11.721-89.68z" fill="#EF6C00"/><path d="M3355.5 2630.479c-16.657-61.999-95.009-95.035-150.594-113.077-60.593-19.67-144.583-44.136-206.868-21.705-35.339 12.726-51.852 68.526-11.497 87.965 54.743 26.367 120.715 27.068 178.616 46.85 51.805 17.7 110.853 52.921 166.608 41.764 18.09-3.62 28.23-25.065 23.735-41.797z" fill="#EF6C00"/><path d="M4382.08 3050.41c34.138-145.548 138.201-260.237 237.503-366.154 21.461-22.885 42.465-46.056 63.275-69.406 15.651-32.104 28.721-64.533 37.208-97.774 28.316-110.913-11.393-234.573-88.549-335.065-83.07-108.201-203.645-186.864-333.729-178.047-70.29 4.765-129.764-63.202-129.764-129.77 0-73.519 59.833-125.029 129.764-129.77.411-.028.822-.032 1.233-.059 19.235-31.452 38.236-63.072 52.203-97.408 32.871-80.818 29.167-170.071-26.866-239.89-60.039-74.807-151.733-96.116-236.658-130.048-32.99-13.183-74.679-34.456-92.961-66.812-21.335-37.767 23.242-68.144 42.146-98.775 57.699-93.471 25.182-208.126-56.934-275.247-89.856-73.451-209.644-68.984-319.054-63.589a5829.248 5829.248 0 0 0-365.173 29.548c-123.675 13.927-246.208 32.986-368.889 53.627-39.389 6.626-87.356 14.488-125.809-.13-39.2-14.904-55.536-54.471-73.104-89.55-44.686-89.239-104.959-159.797-205.266-185.99-97.374-25.426-200.957-5.8-287.714 42.904-174.77 98.123-255.716 294.938-409.116 414.084-26.775 290.401-105.929 574.017-128.189 864.656 57.18 12.888 114.651 24.488 172.412 34.469 183.383 31.693 369.208 50.925 555.296 54.896 182.772 3.901 366.326-6.024 547.385-31.537 172.886-24.364 347.371-87.078 522.802-83.342 125.558 2.673 256.082 75.895 269.809 206.882-22.174 106.08-44.28 209.862-17.62 321.686 14.018 58.797 80.901 77.245 129.958 52.869 158.543-78.779 332.964 61.813 311.686 230.76-11.347 90.124-80.77 148.236-145.643 203.885-80.273 68.861-154.022 14.901-190.603 116.627-35.097 97.604-34.001 333.898-34.149 436.644-.131 92.571 10.017 186.705 48.355 271.793 90.136 200.058 350.835 231.979 502.557 79.977a338.98 338.98 0 0 0 12.145-12.821c82.091-91.287 100.923-224.086 52.322-336.826-54.111-125.519-84.008-261.975-52.269-397.297z" fill="#FFB000"/><path d="M4631.518 2182.011c-83.07-108.201-203.645-186.864-333.729-178.047-70.29 4.765-129.764-63.202-129.764-129.77 0-73.519 59.833-125.029 129.764-129.77.411-.028.822-.032 1.233-.059 19.235-31.452 38.236-63.072 52.203-97.408 32.871-80.818 29.167-170.071-26.866-239.89-60.039-74.807-151.733-96.116-236.658-130.048-32.99-13.183-74.679-34.456-92.961-66.812-21.335-37.767 23.242-68.144 42.146-98.775 57.699-93.471 25.182-208.126-56.934-275.247-89.856-73.451-209.644-68.984-319.054-63.589a5829.248 5829.248 0 0 0-365.173 29.548c-123.675 13.927-246.208 32.986-368.889 53.627-39.389 6.626-87.356 14.488-125.809-.13-39.2-14.904-55.536-54.471-73.104-89.55-44.686-89.239-104.959-159.797-205.266-185.99-97.374-25.426-200.957-5.8-287.714 42.904-174.77 98.123-255.716 294.938-409.116 414.084-15.571 168.874-48.824 335.458-78.332 502.459 238.411-12.807 476.581-32.261 715.443-34.055 335.344-2.519 679.644 32.582 997.055 145.868 283.336 101.126 567.688 255.734 761.373 491.722 116.18 141.552 208.964 294.83 206.59 484.572-1.975 157.74-61.072 307.957-105.039 457.099-22.454 76.175-42.665 153.021-59.56 230.626-9.132 41.963-17.294 84.15-24.28 126.525-2.163 13.163-5.993 28.733-6.598 42.341 2.985-66.839-.2 3.825-1.438 15.424-9.132 85.603-13.008 171.792-10.627 257.863a1764.84 1764.84 0 0 0 6.37 109.04c.194 2.191.759 7.675 1.416 14.082 51.518-14.5 100.604-42.138 141.688-83.3a339.77 339.77 0 0 0 12.146-12.821c82.088-91.287 100.923-224.086 52.322-336.825-54.115-125.521-84.012-261.977-52.271-397.298 34.138-145.548 138.201-260.237 237.503-366.154 21.461-22.885 42.465-46.056 63.275-69.406 15.651-32.104 28.721-64.533 37.208-97.774 28.312-110.914-11.397-234.573-88.553-335.066z" fill="#FF9800"/><path d="M3431.008 3296.783c-6.055-144.845-178.38-172.47-291.159-159.459-44.506 5.135-105.03 18.344-158.324 42.576-9.961 3.601-19.873 7.379-29.688 11.49-56.629 23.719-127.237 59.302-131.04 129.34-3.959 72.912 51.689 110.472 120.959 129.425 65.977 31.811 158.438 29.142 223.169 16.714 107.735-5.641 271.85-32.15 266.083-170.086z" fill="#E5AC85" opacity="0.3"/><path d="M4036.776 4850.056c-23.453 34.339-64.326 54.894-109.148 60.665 26.29-3.385-16.227 7.043-21.786 9.18-5.125 1.97-8.527 3.634-22.186 10.979-28.698 15.429-56.769 31.716-84.765 48.377-64.366 38.299-128.908 74.176-199.147 100.839-128.235 48.682-278.621 35.818-408.66.539-253.53-68.783-490.126-247.157-580.781-498.524-162.966-31.8-334.802-16.985-496.142 16.008-196.567 40.197-387.416 109.377-568.304 195.58-63.361 30.196-125.204 63.278-185.506 98.916-35.097 17.787-69.799 36.287-104 55.606-91.877 51.892-185.472 109.65-247.029 193.49-9.817 8.201-19.6 16.447-29.309 24.777-7.763 6.66-14.109 14.371-19.343 22.704 533.636 493.817 1247.412 795.764 2031.81 795.764 686.842 0 1319.511-231.56 1824.557-620.652-227.037-217.945-486.686-395.649-780.261-514.248z" fill="#ECEFF1"/><path d="M3661.198 4994.428c-75.69-26.359-154.953-36.578-234.684-47.331-93.834-12.655-187.738-24.809-281.72-36.276-189.69-23.144-379.716-41.746-569.8-61.146-38.373-3.916-67.128 28.896-79.474 60.509-85.438 218.69-115.101 466.93-147.852 698.276-14.081 99.468-26.004 198.956-34.863 298.926 218.359 50.716 445.88 77.57 679.673 77.57 253.861 0 500.291-31.732 735.659-91.232 3.539-73.976 6.513-147.964 8.978-222.027 3.858-115.875 7.74-231.76 9.441-347.688 1.427-96.548 25.245-247.55-47.574-324.276-10.056-10.6-25.541-11.488-37.784-5.305z" fill="#FFF"/><path d="M3940.492 4597.419c-11.501-9.866-25.034-15.164-39.286-16.713-48.715 104.889-145.82 146.663-259.266 162.348-3.168.438-52.739 7.024-24.652 3.277-20.976 2.798-41.86 5.701-62.905 7.796-32.129 3.198-64.36 4.974-96.637 5.415-67.779.926-134.93-4.927-201.996-14.355-180.683-25.4-547.014-124.714-521.878-351.984-63.983 10.407-131.197 45.613-170.911 79.578-154.085 131.791-126.813 331.715-1.181 451.835 124.24 118.784 326.423 174.008 507.106 203.789 192.852 31.788 398.42 28.471 590.867-38.21 92.088-31.907 176.813-73.25 255.551-127.895 75.513-52.404 151.009-122.763 155.004-209.098 3.511-75.973-51.163-141.411-129.816-155.783z" fill="#455A64"/><path d="M2528.802 5137.416c-62.762 0-62.865 97.533 0 97.533 62.756 0 62.859-97.533 0-97.533z" fill="#B0BEC5"/><path d="M2608.087 4806.378c-13.282-67.317-45.81-162.049-107.139-203.454-31.301-108.632-138.058-108.266-236.555-103.084-120.684 47.469-275.83-1.83-387.41-50.222-66.911-29.017-132.75-63.735-194.187-104.754 3.619 81.167 50.182 169.425 88.583 232.642 49.862 82.082 118.224 155.467 204.41 199.907 69.965 36.077 151.02 54.89 229.461 52.088-60.245 48.645-110.626 118.706-143.469 170.012-9.886 15.439-19.4 31.583-28.995 47.784-2.666 15.76-8.75 32.056-19.264 48.524-70.821 110.92-185.529 191.802-289.58 269.519-.959.715-1.941 1.377-2.9 2.089.993 9.437 3.841 18.363 8.836 24.898 80.296 105.081 256.521 76.788 370.823 57.563 126.522-21.281 236.51-71.035 334.699-153.475 60.21-50.556 105.353-113.604 132.676-184.581 4.212-8.079 8.253-16.246 11.969-24.56 38.995-87.306 46.45-187.588 28.042-280.896z" fill="#455A64"/><path d="M2769.609 4844.961c22.043-58.846 19.697-126.658-15.588-187.176-33.464-57.391-86.112-90.57-143.589-102.054-133.298-58.91-286.389 34.628-292.714 184.882-9.697 35.974-10.2 74.797 1.307 113.719 28.932 97.891 115.695 154.683 206.23 157.374.086.018.171.045.257.063.925.19 1.844.282 2.763.458 74.063 15.672 135.672-8.317 177.252-53.004 32.867-30.439 56.194-70.595 64.082-114.262z" fill="#37474F"/><path d="M3596.427 5218.267c-14.749 0-30.245 6.418-40.679 16.852-9.983 9.979-17.494 26.351-16.855 40.682 1.398 31.172 25.28 57.534 57.534 57.534 14.754 0 30.251-6.417 40.684-16.851 9.977-9.979 17.494-26.351 16.849-40.683-1.392-31.172-25.279-57.534-57.533-57.534z" fill="#B0BEC5"/><path d="M3584.737 5525.966c-64.166 0-64.274 99.725 0 99.725 64.172-.001 64.275-99.725 0-99.725z" fill="#B0BEC5"/><path d="M3588.636 5787.028c-64.166 0-64.274 99.725 0 99.725 64.166 0 64.274-99.725 0-99.725z" fill="#B0BEC5"/><path d="M2534.823 5495.772c-10.291-9.448-22.945-15.407-37.197-15.407-13.487 0-27.654 5.868-37.191 15.407-9.127 9.123-15.999 24.091-15.411 37.195.611 13.604 5.08 27.714 15.411 37.196 10.291 9.448 22.939 15.407 37.191 15.407 13.487 0 27.659-5.868 37.197-15.407 9.121-9.124 15.993-24.092 15.405-37.196-.605-13.604-5.074-27.714-15.405-37.195z" fill="#B0BEC5"/><path d="M2454.767 5782.705c-74.748 0-74.868 116.163 0 116.163 74.748 0 74.868-116.163 0-116.163z" fill="#B0BEC5"/><path d="M1605.259 2220.008c452.403 172.471 938.898 231.308 1414.367 263.906 243.98 16.728 488.985 25.581 733.212 9.74 115.167-7.47 231.274-18.094 344.456-43.25 58.676-13.043 117.31-27.566 176.34-38.416 11.493-77.435 19.652-155.783 30.253-231.736 21.45-153.629 42.9-307.258 64.344-460.888 20.924-149.863 39.325-300.172 58.66-450.291l27.494-213.385c9.152-71.059 24.585-145.097 23.082-217.173-.988-47.201-10.908-89.028-28.128-124.786-2.152-24.215-11.927-48.366-31.542-69.163-188.111-199.486-468.276-312.328-719.905-369.445-285.189-64.736-577.335-63.658-866.008-31.634-157.359 17.457-313.961 42.802-470.23 69.334-130.96 22.234-263.272 40.556-383.024 107.209-128.378 71.457-203.163 201.821-252.923 345.103-50.818 146.312-86.203 301.043-120.353 452.865-39.937 177.537-72.616 356.437-95.618 537.568-16.973 133.689-35.675 271.47-32.658 407.441 41.806 21.114 84.443 40.328 128.181 57.001z" fill="#FFF"/><path d="M4449.339 713.73c-2.151-24.216-11.929-48.366-31.541-69.163-188.109-199.486-468.277-312.328-719.906-369.445-211.95-48.11-427.735-59.825-643.086-49.547 201.516 45.866 389.744 121.122 551.369 253.681 151.71 124.427 253.633 305.017 306.914 492.02 55.661 195.367 64.68 407.34 52.711 609.24-13.567 228.797-64.303 447.87-166.619 653.444-48.949 98.338-107.75 186.422-174.513 265.587 42.739-1.35 85.467-3.122 128.172-5.892 115.164-7.47 231.27-18.094 344.454-43.251 58.675-13.043 117.31-27.566 176.339-38.416 11.49-77.435 19.651-155.783 30.256-231.736 21.45-153.629 42.899-307.258 64.343-460.888 20.925-149.863 39.321-300.172 58.658-450.29l27.494-213.385c9.155-71.059 24.583-145.097 23.082-217.172-.987-47.202-10.906-89.03-28.127-124.787z" fill="#CFD8DC"/><path d="M4156.045 1107.556c-6.701-8.645-21.803-9.097-30.547-3.941-62.368 36.796-66.032 156.499-79.731 221.481-19.674 93.329-33.464 188.184-47.939 282.443-13.596 88.573-25.228 177.172-34.868 266.266-9.652 89.254-28.19 194.9.605 281.793 7.911 23.885 41.74 30.644 55.079 7.199 42.26-74.261 48.082-171.331 59.12-254.809 12.545-94.843 25.445-189.646 38.145-284.469 12.169-90.829 27.226-181.278 38.932-272.154 9.058-70.312 47.837-183.667 1.204-243.809z" fill="#ECEFF1"/><path d="M3631.122 795.157c-10.205-31.091-59.851-44.471-76.112-9.948-47.551 100.956-38.145 235.02-46.29 344.677-9.149 123.271-19.417 246.522-27.031 369.897-7.614 123.273-14.458 246.6-21.689 369.896-6.227 106.31-30.456 241.315 15.953 340.53 11.181 23.899 45.393 19.505 57.722 0 57.619-91.174 49.292-235.889 56.158-340.53 7.837-119.445 15.667-238.891 23.504-358.336 7.825-119.327 12.551-238.904 18.516-358.337 3.076-61.647 6.49-123.286 9.241-184.949 2.545-57.147 8.093-117.886-9.972-172.9z" fill="#ECEFF1"/><path d="M3157.44 671.209c-2.546-30.408-42.203-36.17-52.739-7.137-44.942 123.868-64.84 251.667-86.985 381.118-22.751 132.958-43.293 266.148-63.447 399.523-19.463 128.794-35.148 258.186-52.151 387.326-8.562 65.026-17.905 130.055-23.864 195.387-5.245 57.523-12.329 128.095 21.272 178.054 12.797 19.029 36.141 21.821 53.356 6.875 42.699-37.072 54.862-100.911 64.685-154.456 11.632-63.416 19.583-127.498 28.156-191.38 17.996-134.017 37.477-267.931 52.916-402.267 14.96-130.196 29.646-260.31 42.072-390.774 12.813-134.593 28.047-267.079 16.729-402.269z" fill="#ECEFF1"/><path d="M2623.281 681.668c-2.317-29.104-47.927-50.423-62.288-16.87-45.633 106.635-62.602 229.21-85.108 342.566-24.697 124.344-48.595 248.587-69.896 373.56-20.673 121.281-43.104 242.414-60.764 364.173-16.975 117.009-36.803 237.946-11.952 355.319 4.606 21.773 35.496 23.843 46.067 6.021 60.25-101.573 80.439-221.464 101.323-335.905 22.094-121.094 39.566-243.129 58.841-364.703 18.984-119.715 35.348-239.58 51.09-359.761 15.444-117.923 42.156-245.389 32.687-364.4z" fill="#ECEFF1"/><path d="M2137.402 781.568c-8.168-23.706-41.598-30.794-55.085-7.199-53.527 93.669-59.76 204.814-77.904 310.045-19.121 110.903-37.374 221.955-59.052 332.401-21.695 110.56-44.646 221.042-69.645 330.901-20.302 89.198-69.788 217.356-26.838 303.724 9.532 19.169 38.595 26.316 56.227 14.743 80.279-52.695 99.474-190.241 120.079-277.262 26.872-113.515 50.348-227.482 69.845-342.495 18.687-110.197 35.867-220.825 47.157-332.045 11.152-109.857 31.74-226.807-4.784-332.813z" fill="#ECEFF1"/><path d="M1995.058 3249.354c-11.621-54.46-71.443-94.609-130.284-122.698-30.011-20.404-62.573-36.169-87.539-45.976-69.194-27.179-168.046-43.981-231.265 6.462-64.269 51.28-43.453 136.383 19.44 178.332 79.445 52.992 192.526 73.119 285.259 86.674 67.871 9.92 163.966-11.091 144.389-102.794z" fill="#E5AC85" opacity="0.3"/></g><metadata><rdf:RDF xmlns:rdf="http://www.w3.org/1999/02/22-rdf-syntax-ns#" xmlns:rdfs="http://www.w3.org/2000/01/rdf-schema#" xmlns:dc="http://purl.org/dc/elements/1.1/"><rdf:Description about="https://iconscout.com/legal#licenses" dc:title="-chef" dc:description="-chef" dc:publisher="Iconscout" dc:date="2018-02-21" dc:format="image/svg+xml" dc:language="en"><dc:creator><rdf:Bag><rdf:li>Sooodesign .</rdf:li></rdf:Bag></dc:creator></rdf:Description></rdf:RDF></metadata></svg>