<?xml version="1.0" encoding="UTF-8"?><svg xmlns="http://www.w3.org/2000/svg" xmlns:xlink="http://www.w3.org/1999/xlink" version="1.1" x="0px" y="0px" viewBox="0 0 5984.956 5984.956" xml:space="preserve"><g id="_x31_8-Dancer"><circle cx="2992.478" cy="2992.478" r="2992.478" fill="#29B473"/><path d="M2992.478 5984.956c761.527 0 1456.468-284.614 1984.664-753.067-287.451-255.145-677.404-546.021-959.133-645.026-12.437-4.371-24.306-4.935-35.228-2.686-4.928-.594-9.966-.85-15.051-.904 5.565-180.398 10.528-360.817 15.793-541.229 9.632-330.051 21.241-660.502 22.58-990.69.377-92.979.742-185.956 1.301-278.932.582-95.925 12.877-198.682-17.834-290.849-20.077-60.26-80.476-70.844-122.279-42.33-14.923-.283-30.188 3.635-44.5 12.93-55.231 35.869-94.363 84.05-137.29 133.177-40.913 46.823-82.288 93.326-123.783 139.637-85.15 95.037-174.761 185.547-266.952 273.721-90.15 86.221-183.169 169.242-279.943 247.982-84.217 68.524-199.476 165.244-198.651 285.031-.993 1.692-1.955 3.42-2.754 5.308-23.798 56.182-18.268 109.438-15.117 169.075 3.091 58.504 8.693 116.794 10.713 175.381 3.961 114.778-.391 229.484-9.572 343.906-4.141 51.604-9.983 103.007-17.3 154.174-190.215-61.801-398.774-48.13-592.214-8.572-196.619 40.207-387.513 109.404-568.447 195.627-63.378 30.205-125.233 63.293-185.549 98.941-35.105 17.792-69.819 36.297-104.031 55.621-64.263 36.299-311.064 227.208-474.801 367.456 543.004 553.097 1299.055 896.318 2135.378 896.318z" fill="#F4C5A2"/><path d="M1504.372 4987.156c-85.684-68.567-159.924-146.417-235.785-223.729-102.276 73.055-282.588 214.804-411.485 325.211 543.002 553.096 1299.049 896.317 2135.376 896.317 761.527 0 1456.468-284.614 1984.664-753.068a5432.695 5432.695 0 0 0-56.124-49.126c-11.45 4.339-22.842 11.185-33.721 21.104-89.371 81.467-174.079 159.573-280.316 219.19-109.987 61.723-229.21 99.144-352.08 125.695-280.853 60.691-578.766 53.157-864.374 40.827-534.024-23.056-1078.795-123.647-1551.689-382.825-116.791-64.007-230.403-136.326-334.466-219.596z" fill="#EF401D"/><path d="M3248.247 3968.827c137.212 77.906 281.17 141.818 420.342 215.894 60.179 32.029 120.302 64.202 180.93 95.355 1.161-40.677 2.308-81.35 3.496-122.024 9.632-330.052 21.241-660.502 22.58-990.69.378-92.979.741-185.955 1.303-278.932.581-95.925 12.875-198.682-17.834-290.849-20.077-60.26-80.475-70.844-122.28-42.33-14.922-.283-30.188 3.635-44.501 12.93-55.229 35.869-94.36 84.05-137.289 133.177-40.915 46.823-82.288 93.326-123.783 139.637-85.15 95.037-174.76 185.547-266.951 273.72-90.151 86.221-183.168 169.242-279.942 247.982-76.612 62.335-178.877 148.007-196.112 253.146 184.8 120.705 368.006 243.95 560.041 352.984z" fill="#E5AC85"/><path d="M4368.802 2080.455c-26.205-114.254-133.481-194.279-245.46-212.621-75.831-12.423-150.179-.893-221.129 23.44 11.583-185.27 27.814-370.188 43.084-555.228 2.892-35.045-28.256-74.429-62.291-81.818-322.571-70.034-649.886-114.381-979.976-125.381-163.894-5.462-328.063-3.141-491.731 7.073-161.29 10.068-337.629 18.176-489.563 74.045-47.926 17.626-59.359 70.722-37.489 104.766-77.92 93.184-125.287 214.82-168.987 325.355-54.385 137.561-96.919 278.897-128.416 423.421-62.656 287.497-109.211 612.778 5.777 893.333 18.945 46.222 41.271 90.078 66.564 131.601 111.447 231.664 307.827 399.63 545.383 498.722 274.051 114.313 577.909 119.062 868.281 80.081 140.322-18.838 276.567-47.83 405.559-108.011 125.408-58.51 231.128-154.015 307.066-269.281 159.918-242.741 173.043-541.073 164.813-824.613 93.228-.438 187.302-13.318 266.771-63.274 107.365-67.489 181.251-192.951 151.744-321.61z" fill="#F4C5A2"/><path d="M2053.543 2226.279c-15.691-18.526-45.391-24.109-67.835-17.929-25.617 7.054-39.148 25.395-48.695 48.696-24.625 60.1 10.293 202.234 98.175 178.083 87.849-24.141 62.079-157.225 18.355-208.85z" fill="#5A4A42"/><path d="M2994.299 2226.279c15.691-18.526 45.391-24.109 67.835-17.929 25.617 7.054 39.148 25.395 48.695 48.696 24.625 60.1-10.293 202.234-98.175 178.083-87.849-24.141-62.079-157.225-18.355-208.85z" fill="#5A4A42"/><path d="M2701.428 2976.864c-2.858-10.702-13.984-16.189-24.389-13.848-76.928 17.324-122.484 87.076-208.641 80.212-84.578-6.739-124.869-79.643-195.903-112.518-13.117-6.071-25.652-.939-30.789 12.526-45.75 119.912 123.819 208.579 219.754 213.729 91.541 4.912 272.133-59.687 239.968-180.101z" fill="#5A4A42"/><path d="M2516.438 2706.715c-25.297-25.73-58.519-18.543-90.027-29.462-41.902-14.521-21.713-51.159-10.392-82.538l41.161-114.096c12.866-35.658 30.396-73.704 20.309-112.018-3.875-14.719-22.87-23.473-36.143-14.705-43.462 28.711-57.446 90.317-76.023 136.245-20.313 50.221-56.449 109.995-54.714 165.377 1.474 47.061 35.771 84.366 77.904 101.174 42.249 16.854 103.9 17.365 131.185-24.708 5.034-7.763 3.011-18.891-3.26-25.269z" fill="#5A4A42"/><path d="M3478.106 2761.299c-6.056-144.882-178.425-172.514-291.231-159.499-44.518 5.136-105.057 18.349-158.364 42.587-9.964 3.602-19.878 7.381-29.695 11.492-56.643 23.726-127.269 59.317-131.073 129.372-3.961 72.931 51.702 110.5 120.99 129.457 65.994 31.819 158.477 29.15 223.225 16.718 107.761-5.641 271.917-32.157 266.148-170.127z" fill="#ED896F"/><path d="M2987.568 2029.217c33.803 24.808 82.406 23.432 122.302 33.343 50.763 12.61 100.604 27.174 148.861 47.498 19.221 8.094 30.501-18.327 13.377-28.77-43.746-26.677-89.595-50.906-138.805-65.768-41.225-12.451-98.869-34.023-140.476-15.394-10.921 4.89-16.547 20.807-5.259 29.091z" fill="#5A4A42"/><path d="M2089.674 1999.978c-33.803 24.808-82.406 23.432-122.302 33.343-50.763 12.61-100.604 27.174-148.861 47.498-19.222 8.094-30.501-18.327-13.377-28.77 43.746-26.677 89.595-50.906 138.805-65.768 41.225-12.451 98.869-34.023 140.475-15.394 10.922 4.89 16.548 20.807 5.26 29.091z" fill="#5A4A42"/><path d="M5308.316 4412.612c-2.607-81.968-14.722-160.608-35.038-237.242.542-15.97.758-32.043.287-48.327-5.685-196.875-82.319-380.333-223.106-518.757-81.28-79.917-178.4-141.422-270.39-208.437-19.482-16.369-38.19-33.471-55.669-51.903-1.03-1.69-1.973-3.437-2.978-5.141-.008-4.749-.005-9.505.147-14.247 19.392-84.6 55.427-164.309 88.397-244.477 47.478-115.444 82.479-233.794 84.373-360.147 2.06-137.461-43.23-276.249-116.828-391.428-56.908-89.063-127.637-168.433-193.71-250.823-11.036-14.7-22.077-29.385-33.207-44.022l19.744 25.555c-17.874-24.089-34.087-48.915-48.254-75.022a385.582 385.582 0 0 1-2.573-9.075c-.009-4.027.115-8.079.227-12.111 7.4-30.889 17.326-61.04 28.885-90.848 3.354-8.653 6.934-17.204 10.342-25.833.207-.522.362-.921.554-1.409 8.917-20.959 17.814-41.964 26.566-62.904 3.62-8.554 7.194-17.126 10.721-25.718l-17.036 40.248c22.2-61.226 54.472-117.823 68.581-181.842 19.678-89.287 20.293-164.824 6.578-253.979-40.995-266.493-288.548-445.172-526.85-526.248-108.219-36.818-221.714-54.091-331.644-84.675-23.947-6.663-47.271-14.74-70.863-22.324-11.364-6.432-29.076-11.653-38.103-16.26-50.085-25.569-97.592-55.797-144.764-86.306-110.622-71.55-219.331-133.644-343.136-180.765-118.695-45.171-246.315-64.693-372.306-75.463-238.504-20.393-485.868 14.516-716.636 73.157-242.71 61.679-492.375 110.424-689.473 275.581-212.1 177.728-298.039 512.023-127.59 746.839 86.562 119.251 204.965 201.522 346.016 244.757 128.098 39.266 267.221 38.706 399.484 28.519 274.848-21.169 549.306-58.752 820.079-110.957 51.246 11.728 102.568 21.896 156.341 26.678 49.174 4.371 98.219 9.054 147.198 14.83 79.989 11.839 161.143 25.961 241.614 43.564-14.032 79.225-7.991 161.904 5.584 240.688 17.468 101.374 68.48 192.019 119.476 279.992 22.918 39.535 46.122 78.994 66.141 120.108 2.769 7.204 6.688 17.143 7.653 20.133 3.78 11.719 6.992 23.542 9.754 35.468a442.824 442.824 0 0 1-.298 38.303c-34.672 170.389-119.422 326.414-99.107 507.127 13.548 120.512 55.15 227.48 125.065 326.659 10.146 14.393 20.505 28.616 30.831 42.844-54.227 77.71-101.742 159.662-141.846 245.662-57.713 123.755-104.193 248.768-131.759 382.528-27.618 134.017-49.312 274.035-39.323 411.132 19.066 261.674 111.694 510.767 302.448 684.883 43.49 81.515 98.499 156.473 170.834 215.592 139.559 114.059 302.926 182.988 486.313 181.454 530.775-4.437 1009.011-508.655 992.254-1035.611z" fill="#4E342E"/><path d="M5308.316 4412.612c-2.04-64.127-9.899-126.218-22.951-186.905-6.95-32.312-10.858-65.139-11.786-98.176a77.263 77.263 0 0 0-.014-.488c-5.685-196.875-82.319-380.333-223.106-518.757-81.28-79.917-178.4-141.422-270.39-208.437-20.085-16.875-39.348-34.531-57.289-53.618l-1.358-3.424c-.008-4.749-.005-9.505.147-14.248 19.392-84.6 55.427-164.309 88.397-244.477 47.478-115.444 82.479-233.794 84.373-360.147 2.06-137.461-43.23-276.249-116.828-391.428-56.908-89.063-127.637-168.433-193.71-250.823-11.036-14.7-22.077-29.385-33.207-44.022l19.744 25.555c-18.05-24.327-34.407-49.405-48.673-75.795l-2.154-8.293c-.009-4.03.115-8.085.227-12.12 7.4-30.889 17.326-61.04 28.885-90.848 3.354-8.653 6.934-17.204 10.342-25.833.207-.522.362-.921.554-1.409 8.917-20.959 17.814-41.964 26.566-62.904 3.62-8.554 7.194-17.126 10.721-25.718l-17.036 40.248c22.2-61.226 54.472-117.823 68.581-181.842 19.678-89.287 20.293-164.824 6.578-253.979-40.995-266.493-288.548-445.172-526.85-526.248-108.219-36.818-221.714-54.091-331.644-84.675-23.947-6.663-47.271-14.74-70.863-22.324-11.364-6.432-29.076-11.653-38.103-16.26-50.085-25.569-97.592-55.797-144.764-86.306-110.622-71.55-219.331-133.644-343.136-180.765-118.695-45.171-246.315-64.693-372.306-75.463-180.999-15.476-367.089.925-547.164 35.357l-.769 1.181c3.662 15.83 7.832 31.509 12.618 47.025a704.461 704.461 0 0 0 26.558 44.864c24.401 26.749 50.386 51.903 77.72 75.685 90.085 62.411 187.28 113.639 287.012 159.192 128.319 8.974 257.804 32.933 375.875 79.584 161.604 63.851 315.308 145.602 430.651 280.025 44.808 52.224 84.731 105.647 121.401 161.241 100.705 110.254 183.179 236.834 242.849 375.931 4.351 7.503 8.335 15.106 12.243 22.73a860.51 860.51 0 0 0 19.188 17.228c107.174 77.257 218.74 147.289 321.679 231.403 145.666 119.03 246.645 292.558 299.301 471.464 61.394 208.593 60.348 452.524-13.274 658.056-36.021 100.56-80.786 199.112-131.832 293.04-21.262 39.124-43.783 77.632-64.898 116.844 8.326 51.976 13.04 104.688 12.989 156.686a1017.912 1017.912 0 0 0 33.663 29.135c55.304 41.227 111.071 82.683 160.48 130.456 94.792 91.653 152.938 193.723 198.688 315.104 68.909 182.826 39.07 402.434-33.232 579.461-58.115 142.288-125.516 266.831-212.653 392.639-48.594 70.162-97.522 140.383-136.782 216.084a641.223 641.223 0 0 0-10.501 37.052 634.414 634.414 0 0 0 .259 35.544c4.232 18.875 9.229 37.583 14.859 56.083 10.513 18.573 21.948 36.619 34.068 54.219l1.388.677c513.072-30.662 964.965-521.576 948.669-1034.061z" fill="#3E2723"/><path d="M2132.567 2734.823c-12.46-41.089-48.835-72.453-88.72-96.73-44.783-48.48-121.437-74.682-182.333-90.568-61.717-16.099-129.565-22.779-184.787 14.908-59.605 40.677-70.935 120.401-34.908 180.741 36.244 60.704 105.21 91.194 170.112 110.492 67.18 19.974 143.36 30.37 213.217 21.58 69.052-8.69 130.33-64.883 107.419-140.423z" fill="#ED896F"/><path d="M4925.681 2456.27c-5.993-134.421-19.749-266.104-45.815-398.283-9.064-45.971-55.137-70.516-97.368-74.135-100.165-8.584-202.635 1.759-300.51 24.084-35.736 8.151-73.983 18.631-111.312 32.422 6.404-20.737 12.214-41.618 17.334-62.529 13.128-53.597 28.225-117.639 26.529-176.598 2.512-12.088 5.057-24.168 7.409-36.287 7.854-40.438-11.227-71.706-38.669-88.255-4.658-8.183-12.009-15.58-22.802-21.323-81.615-43.411-202.503-41.196-292.896-33.344-101.506 8.816-199.952 32.057-294.209 70.819-33.053 13.594-63.926 47.709-49.463 87.116 38.458 104.798 73.333 197.45 142.43 286.987 26.563 34.42 54.896 66.878 86.129 96.893-50.508 26.849-99.948 55.694-148.149 86.697-81.603 52.489-247.663 134.159-214.586 254.522 16.004 58.223 76.363 87.829 122.978 118.326 50.844 33.262 101.723 66.468 152.521 99.786 108.047 70.854 209.975 151.347 319.871 219.301 61.312 37.913 151.38 2.568 168.172-68.417 26.158-110.576 39.309-220.929 33.122-334.271 19.943 18.277 39.971 36.469 60.222 54.427 48.355 42.878 97.755 84.67 148.44 124.779 55.667 44.053 115.159 80.237 189.13 58.979 144.004-41.383 146.955-199.15 141.492-321.696z" fill="#ED896F"/><path d="M4701.386 2426.217c-64.68-36.506-130.644-68.865-198.97-97.998-12.271-5.233-25.154-11.194-38.43-17.298 84.223-38.856 163.526-93.429 207.834-170.241.765-1.333 1.279-2.719 1.929-4.077 32.089-9.686 58.298-44.974 46.661-79.234-44.269-130.303-238.302-263.437-377.091-255.536-88.823 5.056-119.702 73.216-145.729 146.908-17.18 48.64-35.096 102.057-45.239 155.939a1465.596 1465.596 0 0 0-37.951-34.539c-67.157-58.987-140.261-114.581-220.021-155.418-85.147-43.595-144.855-13.218-166.322 78.393-23.772 101.431-53.053 201.481-75.855 303.163-10.491 46.775 13.875 98.923 63.156 111.227 89.56 22.361 179.815 35.511 272.172 37.805 51.244 1.273 109.765 2.868 165.871-2.502-1.958 51.737-3.185 103.505-3.51 155.321-.662 104.431-5.788 259.115 138.36 264.755 94.725 3.707 195.974-63.522 266.738-119.214 73.669-57.978 121.5-136.474 173.822-212.861 23.099-33.733 6.587-85.396-27.425-104.593z" fill="#FC845B"/><path d="M4335.676 2184.096c-1.096-.303-2.197-.346-3.293-.599a118.802 118.802 0 0 0-16.781-9.443c-38.618-25.331-89.103-32.412-133.886-5.332-50.975 30.824-75.45 91.315-63.606 149.144 10.65 52.001 52.5 92.167 103.349 105.162 57.825 14.779 128.429-8.058 159.085-61.533 32.626-56.897 31.855-156.272-44.868-177.399z" fill="#EF401D"/></g><metadata><rdf:RDF xmlns:rdf="http://www.w3.org/1999/02/22-rdf-syntax-ns#" xmlns:rdfs="http://www.w3.org/2000/01/rdf-schema#" xmlns:dc="http://purl.org/dc/elements/1.1/"><rdf:Description about="https://iconscout.com/legal#licenses" dc:title="-dancer" dc:description="-dancer" dc:publisher="Iconscout" dc:date="2018-02-21" dc:format="image/svg+xml" dc:language="en"><dc:creator><rdf:Bag><rdf:li>Sooodesign .</rdf:li></rdf:Bag></dc:creator></rdf:Description></rdf:RDF></metadata></svg>