<?xml version="1.0" encoding="UTF-8"?><svg xmlns="http://www.w3.org/2000/svg" xmlns:xlink="http://www.w3.org/1999/xlink" version="1.1" x="0px" y="0px" viewBox="0 0 5984.956 5984.956" xml:space="preserve"><g id="_x33_-Doctor"><circle cx="2992.478" cy="2992.478" r="2992.478" fill="#1D3FBC"/><path d="M4033.104 2511.881c-20.532-61.627-82.3-72.451-125.052-43.29-15.26-.29-30.873 3.717-45.51 13.223-56.482 36.683-96.5 85.956-140.402 136.197-41.842 47.885-84.154 95.442-126.59 142.803-87.081 97.192-178.724 189.754-273.005 279.927-92.196 88.177-187.322 173.08-286.291 253.604-86.13 70.078-204 168.991-203.157 291.494-1.016 1.731-1.999 3.498-2.817 5.429-24.339 57.456-18.682 111.919-15.459 172.909 3.161 59.831 8.89 119.443 10.957 179.358 4.05 117.381-.402 234.688-9.791 351.705-18.678 232.771-69.54 461.76-147.316 681.929-20.025 56.684 17.958 121.06 70.825 143.468 23.082 19.735 53.535 31.882 86.353 35.348 344.687 36.396 689.375 72.772 1034.075 109.062 74.337 7.826 131.582-67.965 134.317-134.316 14.058-340.891 22.722-681.96 32.676-1022.993 9.851-337.536 21.724-675.479 23.093-1013.155.386-95.087.758-190.172 1.333-285.257.594-98.1 13.167-203.188-18.239-297.445z" fill="#E2A983"/><path d="M3369.996 4123.824c163.605 84.633 335.254 154.063 501.197 234.535 71.755 34.795 143.443 69.746 215.733 103.589 1.385-44.189 2.753-88.374 4.168-132.561 11.485-358.55 25.328-717.533 26.924-1076.232.45-101.007.884-202.012 1.554-303.017.692-104.207 15.353-215.838-21.265-315.963-23.938-65.464-95.955-76.961-145.801-45.985-17.792-.308-35.995 3.949-53.061 14.046-65.854 38.966-112.511 91.307-163.697 144.676-48.785 50.866-98.117 101.384-147.594 151.694-101.529 103.243-208.377 201.568-318.302 297.355-107.492 93.666-218.402 183.855-333.791 269.393-91.349 67.718-213.286 160.786-233.836 275.004 220.35 131.131 438.797 265.017 667.771 383.466z" fill="#D39B75"/><path d="M4420.936 2101.668c-26.799-116.845-136.508-198.685-251.026-217.443-77.551-12.705-153.585-.914-226.143 23.971 11.846-189.472 28.446-378.582 44.062-567.819 2.957-35.84-28.897-76.117-63.704-83.674-329.886-71.623-664.624-116.976-1002.198-128.226-167.61-5.586-335.502-3.212-502.882 7.233-164.948 10.296-345.285 18.588-500.664 75.724-49.013 18.025-60.706 72.325-38.339 107.141-79.687 95.297-128.128 219.691-172.82 332.733-55.618 140.681-99.117 285.221-131.328 433.022-64.077 294.016-111.688 626.674 5.907 913.591 19.375 47.27 42.207 92.121 68.073 134.585 113.974 236.917 314.807 408.693 557.75 510.031 280.265 116.906 591.014 121.763 887.97 81.898 143.504-19.265 282.839-48.914 414.756-110.46 128.252-59.837 236.369-157.507 314.03-275.387 163.545-248.245 176.968-553.342 168.551-843.312 95.342-.448 191.549-13.62 272.821-64.708 109.799-69.017 185.36-197.324 155.184-328.9z" fill="#E2A983"/><path d="M2053.175 2250.796c-16.047-18.946-46.42-24.656-69.373-18.336-26.198 7.214-40.036 25.971-49.799 49.8-25.184 61.462 10.526 206.82 100.401 182.122 89.84-24.688 63.485-160.79 18.771-213.586z" fill="#5A4A42"/><path d="M3015.263 2250.797c16.047-18.946 46.42-24.656 69.373-18.336 26.198 7.214 40.036 25.971 49.799 49.8 25.184 61.462-10.527 206.82-100.402 182.121-89.839-24.687-63.484-160.789-18.77-213.585z" fill="#5A4A42"/><path d="M2715.751 3018.402c-2.923-10.944-14.301-16.556-24.942-14.162-78.672 17.717-125.261 89.05-213.373 82.031-86.495-6.892-127.7-81.449-200.345-115.069-13.415-6.208-26.233-.961-31.487 12.81-46.787 122.631 126.626 213.309 224.737 218.576 93.617 5.023 278.304-61.04 245.41-184.186z" fill="#5A4A42"/><path d="M2526.565 2742.127c-25.871-26.313-59.846-18.964-92.069-30.13-42.853-14.85-22.205-52.319-10.627-84.41l42.095-116.683c13.158-36.467 31.085-75.376 20.77-114.558-3.963-15.053-23.389-24.005-36.963-15.039-44.448 29.363-58.749 92.365-77.747 139.334-20.774 51.36-57.73 112.49-55.955 169.127 1.507 48.128 36.583 86.279 79.671 103.468 43.207 17.237 106.256 17.759 134.16-25.269 5.148-7.937 3.079-19.317-3.335-25.84z" fill="#5A4A42"/><path d="M3510.042 2797.95c-6.194-148.167-182.471-176.426-297.836-163.116-45.527 5.252-107.439 18.765-161.955 43.552-10.19 3.684-20.329 7.548-30.368 11.753-57.928 24.263-130.155 60.661-134.045 132.306-4.05 74.584 52.875 113.005 123.733 132.393 67.49 32.541 162.071 29.811 228.286 17.097 110.206-5.769 278.084-32.886 272.185-173.985z" fill="#ED896F"/><path d="M1590.564 2720.113c5.136-122.854 151.283-146.285 246.93-135.249 37.745 4.355 89.075 15.559 134.273 36.112 8.448 3.054 16.854 6.259 25.178 9.745 48.027 20.119 107.909 50.299 111.133 109.703 3.358 61.843-43.838 93.699-102.585 109.775-55.955 26.981-134.369 24.718-189.267 14.176-91.369-4.783-230.554-27.268-225.662-144.262z" fill="#ED896F"/><path d="M3008.38 2049.266c34.569 25.371 84.274 23.964 125.076 34.099 51.914 12.896 102.885 27.791 152.237 48.575 19.657 8.277 31.192-18.742 13.68-29.422-44.738-27.282-91.627-52.06-141.952-67.26-42.159-12.733-101.111-34.795-143.661-15.743-11.17 5.002-16.924 21.28-5.38 29.751z" fill="#5A4A42"/><path d="M2090.125 2019.364c-34.569 25.37-84.274 23.964-125.076 34.099-51.914 12.896-102.885 27.791-152.237 48.575-19.657 8.277-31.193-18.743-13.68-29.422 44.738-27.281 91.627-52.06 141.952-67.259 42.159-12.733 101.111-34.794 143.661-15.743 11.17 5 16.924 21.278 5.38 29.75z" fill="#5A4A42"/><path d="M3780.801 4840.618c-7.281-1.193-14.583-2.291-21.867-3.471-3.776-31.167-22.87-58.678-60.488-64.319-323.721-48.527-651.711-80.501-978.284-103.119-49.595-3.432-91.943 44.718-91.943 91.945 0 21.051 6.257 38.486 16.71 52.384-49.123 60.577-39.172 179.248 53.416 192.794 32.702 4.789 65.41 9.54 98.115 14.309 16.834 25.804 41.807 45.684 73.624 51.356 214.738 38.288 429.006 80.661 646.93 95.472 33.625 2.289 60.339-8.482 79.773-26.518 14.889 1.545 29.786 3.013 44.667 4.645 32.417 3.558 63.088-12.808 84.735-37.168 4.733.333 9.463.724 14.196 1.052 52.989 3.665 98.233-47.774 98.233-98.232 0-13.609-2.559-25.83-7.03-36.733 4.835-7.304 8.679-15.656 11.272-25.094 11.664-42.452-14.433-101.497-62.059-109.303z" fill="#FFF"/><path d="M2992.478 5984.956c769.849 0 1471.71-290.803 2001.975-768.43-180.306-165.178-373.546-332.692-455.75-382.094a1795.8 1795.8 0 0 0-166.098-88.348c-37.845-28.375-76.713-55.286-116.48-81.114-41.892-27.208-81.302-51.146-125.21-61.231-36.388-49.899-111.006-69.419-165.061-35.244-49.3 31.167-97.488 64.188-144.526 98.782-2.813 1.241-5.631 2.443-8.426 3.862-28.424 14.426-53.869 36.111-79.976 54.548-52.859 37.332-106.411 73.682-160.586 109.075-106.112 69.32-212.073 138.526-321.46 202.634-42.876 25.127-86.198 49.483-129.75 73.418-31.481-44.679-70.751-85.666-101.006-123.124-17.55-21.727-45.587-59.827-68.651-92.681a2519.097 2519.097 0 0 1-75.453-113.944c-48.022-76.981-92.238-156.774-136.247-236.1-39.009-70.317-129.322-213.837-223.305-138.679-33.8 6.182-61.235 19.473-87.884 36.147-119.368 29.468-235.48 80.887-348.698 124.127-164.229 62.723-323.965 136.578-482.269 212.915-149.055 71.876-296.692 146.75-440.634 228.421-8.556 4.854-111.631 71.138-231.553 148.381 537.232 513.359 1265.308 828.679 2067.048 828.679z" fill="#02BCAA"/><path d="M3860.189 4695.294l.298-.42c-12.174 6.838-18.034 17.512-17.413 20.052 5.405-7.881 11.191-15.593 17.115-19.632z" fill="#FFD400"/><path d="M3688.728 4866.629c-4.695 1.689-14.168 7.816-17.341 15.402l.227-.157c2.64-4.563 9.662-10.041 17.114-15.245z" fill="#FFD400"/><path d="M4831.986 4313.398c-26.813-50.268-59.773-97.52-98.459-139.399a354.992 354.992 0 0 0-40.455-37.517l-34.676-84.304a1876.076 1876.076 0 0 0 3.861-37.569c1.11-12.011 1.762-24.124 2.02-36.292.168-7.91 1.63-15.725 4.423-23.127 4.041-10.709 7.869-21.497 11.354-32.392 61.228-191.368 102.682-391.146 138.746-588.592 38.894-212.942 69.076-428.665 86.325-644.493.358-4.487.691-8.987 1.03-13.483a63.178 63.178 0 0 1 1.037-7.563c81.522-410.535 73.799-849.819-50.524-1248.406-77.063-247.061-207.83-488.949-412.367-653.137-108.267-86.91-227.637-156.72-362.625-193.216-63.923-17.283-131.385-27.236-197.461-30.272-28.139-1.294-56.476-.946-84.558 1.46l-.313.027c-17.579 1.521-35.232-3.32-48.836-14.556-134.647-111.211-300.87-186.755-470.441-221.817-112.507-23.262-227.91-33.251-342.667-28.416-112.056 4.721-232.5 18.767-338.575 57.345-451.473 164.197-794.283 514.107-1041.355 917.294-68.929 112.486-130.681 229.218-188.374 347.813-20.11 41.337-42.137 83.427-60.529 126.559-.736.234-1.494.398-2.227.639-55.436 18.063-135.549 47.238-172.44 94.906-67.583 87.329-74.455 183.774 0 271.332 70.457 82.859 224.23 105.585 325.795 97.273 76.318-6.246 152.393-15.383 228.233-25.981 183.917-25.702 365.558-66.049 542.184-123.402 308.718-100.245 614.698-236.871 872.28-435.879 72.959-56.367 146.465-116.396 209.615-183.802 20.883-22.292 41.218-46.434 58.652-72.17.442 1.921.802 3.898 1.261 5.81 28.433 118.154 89.885 224.188 173.694 311.807 85.709 89.605 189.169 148.103 300.913 178.535 10.438 2.843 19.918 8.229 27.831 15.605 18.913 17.63 52.334 40.524 69.342 47.194a378.34 378.34 0 0 0 9.993-6.169c69.567-22.602 142.183-32.947 216.218-20.818 114.518 18.758 224.227 100.598 251.024 217.443 30.177 131.577-45.385 259.884-155.182 328.903-63.37 39.835-135.821 56.618-209.861 62.291-35.302 2.705-62.014 32.939-61.494 68.341 1.078 73.313.136 147.233-4.789 220.629a67.385 67.385 0 0 1-7.598 26.862 668.893 668.893 0 0 1-6.779 12.593 66.677 66.677 0 0 0-3.566 7.443c-31.941 79.489-57.925 161.462-70.822 246.141-17.334 113.787-10.82 237.915 3.393 351.852 15.025 120.464 57.568 229.006 94.771 343.332 18.554 57.019 30.269 123.375 25.287 183.295-.238 2.875-.681 5.656-1.016 8.485 14.605 18.447 23.315 41.125 21.677 65.323-9.586 141.459-35.088 283.121-69.282 419.662-13.736 54.848-20.577 110.968-24.177 167.395-4.293 67.278-85.276 345.998-118.396 425.615-114.007 274.051-269.005 530.195-379.242 805.677-19.674 49.167 22.89 100.705 75.001 91.277 409.971-74.173 790.91-231.726 1124.482-454.698a68.893 68.893 0 0 0 16.634-15.657c35.661-47.072 68.811-95.979 98.679-146.899 113.025-192.699 175.576-434.708 156.765-658.194-10.358-123.057-34.969-238.338-93.434-347.938z" fill="#FFD400"/><path d="M4831.986 4313.398c-26.813-50.268-59.773-97.52-98.459-139.399-21.416-23.186-44.147-41.756-68.542-57.75l-11.341-25.379c3.372-25.417 6.263-50.859 8.613-76.261 1.474-15.943 2.139-32.065 2.149-48.256 5.625-14.37 10.949-28.865 15.647-43.555 61.228-191.368 102.682-391.146 138.746-588.592 38.894-212.942 69.076-428.665 86.325-644.493.459-5.757.877-11.533 1.32-17.297 82.315-411.609 74.925-852.354-49.777-1252.154-77.063-247.061-207.83-488.949-412.367-653.137-108.267-86.91-227.637-156.72-362.625-193.216-63.923-17.283-131.385-27.236-197.461-30.272-28.139-1.294-56.476-.946-84.558 1.46-10.444.893-19.342 2.17-27.618 3.797-138.236-121.261-313.244-203.188-491.972-240.144-112.507-23.262-227.91-33.251-342.667-28.416-71.369 3.007-146.114 9.876-218.408 24.376-11.744 40.54-33.303 77.308-65.556 104.299-16.781 14.042-31.636 29.699-47.809 44.283-.849 1.536-1.719 3.024-2.555 4.588-1.102 3.601-3.867 9.664-9.095 18.596-.171 5.584-.469 11.127-.702 16.355 1.838 7.64 3.867 15.261 6.144 22.77.739 2.424 1.652 4.789 2.433 7.2 5.001 9.192 8.977 19.898 13.804 28.541 12.487 22.356 31.822 43.638 43.581 66.285 2.476 2.892 4.883 5.843 7.396 8.704 9.774 11.135 19.827 22.025 30.107 32.694 20.69 21.474 42.353 42.015 64.777 61.669 9.068 7.948 18.982 15.36 28.546 23.051-13.567-12.252-22.657-23.954 11.338 9.243 22.915 16.233 46.415 31.651 70.507 46.081 24.322 14.567 49.477 27.119 74.525 40.292 16.903 5.899 33.65 12.254 50.604 18.023 147.384 50.154 299.74 81.546 451.201 116.38 144.555 33.246 283.252 75.186 419.427 134.445 147.78 64.308 278.851 156.003 398.823 263.321 222.547 199.075 404.597 475.718 379.672 786.828-23.979 299.292-182.795 541.761-319.848 799.772a2419.62 2419.62 0 0 1-4.489 9.891c-2.971 7.728-6.033 15.421-8.815 23.22-5.67 15.893-10.893 31.924-15.774 48.074a1061.117 1061.117 0 0 0-26.203 106.318c-.839 4.356-3.083 13.15-5.297 21.357-2.078 14.935-2.125 31.148-3.165 45.383-2.378 32.576-3.472 65.243-3.501 97.904-.063 70.629 2.657 143.981 13.023 214.428 1.903 10.375 4.659 25.894 5.532 31.36 3.158 19.805 6.524 39.578 10.044 59.322 5.892 33.04 12.236 65.998 18.844 98.901 62.983 313.559 150.091 627.938 134.104 950.78-15.61 315.272-116.557 614.387-278.364 884.446-54.409 90.811-114.205 178.118-173.899 265.498 240.43-84.771 466.807-199.316 674.603-339.382 38.337-49.894 73.882-101.857 105.702-156.105 113.025-192.699 175.576-434.708 156.765-658.194-10.359-123.052-34.97-238.333-93.435-347.933z" fill="#FFB600"/><path d="M4685.194 3937.486c-94.319-43.137-198.645-30.887-300.154-30.675-45.362.094-90.351 3.157-135.628 5.938-52.454 3.22-107.046 2.544-157.834 16.814-63.726 17.906-117.896 82.446-114.834 150.827 2.851 63.667 45.886 139.663 114.833 150.827 94.602 15.321 198.151 4.992 293.462-5.503 96.613-10.635 215.678-5.706 300.155-56.758 79.211-47.871 95.138-187.959 0-231.47z" fill="#FC845B"/><path d="M2203.322 5301.751c-72.351 0-131.003-58.652-131.002-131.002l.001-716.807c0-72.351 58.652-131.002 131.002-131.002 72.351 0 131.002 58.652 131.002 131.002l-.001 716.806c.001 72.351-58.651 131.003-131.002 131.003z" fill="#FFF"/><g><path d="M2650.707 5319.072c.002 247.086-200.298 447.388-447.383 447.388s-447.388-200.304-447.39-447.39c-.002-247.085 200.298-447.388 447.383-447.387s447.388 200.303 447.39 447.389z" fill="#C9D4DF"/></g><g><circle cx="2203.321" cy="5319.071" r="246.062" fill="#FFF"/></g></g><metadata><rdf:RDF xmlns:rdf="http://www.w3.org/1999/02/22-rdf-syntax-ns#" xmlns:rdfs="http://www.w3.org/2000/01/rdf-schema#" xmlns:dc="http://purl.org/dc/elements/1.1/"><rdf:Description about="https://iconscout.com/legal#licenses" dc:title="-doctor" dc:description="-doctor" dc:publisher="Iconscout" dc:date="2018-02-21" dc:format="image/svg+xml" dc:language="en"><dc:creator><rdf:Bag><rdf:li>Sooodesign .</rdf:li></rdf:Bag></dc:creator></rdf:Description></rdf:RDF></metadata></svg>