<?xml version="1.0" encoding="UTF-8"?><svg xmlns="http://www.w3.org/2000/svg" xmlns:xlink="http://www.w3.org/1999/xlink" version="1.1" x="0px" y="0px" viewBox="0 0 5984.956 5984.956" xml:space="preserve"><g id="_x38_-Employee"><circle cx="2992.478" cy="2992.478" r="2992.478" fill="#03A9F4"/><path d="M2891.281 3706.171a2257.286 2257.286 0 0 0 2.656-47.837c.415-9.272-.639-17.692-2.84-25.289 6.248-23.28 12.251-46.572 17.873-69.865 15.052-62.348-52.385-114.806-107.407-105.405-10.762-46.245-65.553-68.625-111.467-55.394-18.637-4.225-38.612-3.386-56.373 3.712-5.588-38.383-46.738-60.322-87.037-57.588.086-.177.165-.354.25-.531 25.596-54.439-54.264-103.594-87.406-49.405-6.57 10.736-12.937 21.563-19.408 32.342-22.123-7.199-48.326-5.998-69.962 5.386 2.274-13.363 4.481-26.75 6.3-40.254 21.827-161.837 2.801-325.046-33.254-484.725-33.722-149.356-74.456-303.971-133.366-446.838-52.293-126.819-138.117-248.253-284.017-288.074-119.678-32.662-265.796-6.854-327.994 99.666-195.089 83.552-259.943 304.417-261.637 496.117-1.252 142.255 30.71 289.979 1.74 430.61-22.967 111.467-91.841 200.862-166.165 286.851-150.54 174.15-297.817 351.444-242.11 592.666 48.332 209.314 229.919 365.854 282.548 572.142 27.89 109.325-12.245 221.315-4.541 331.616 8.811 126.226 70.97 242.714 199.419 295.091 269.855 110.04 504.189-107.034 562.288-339.779 21.761-87.161 24.43-176.041 27.659-264.932 5.048-6.808 10.116-13.605 15.085-20.462 36.338 25.081 89.501 30.638 120.528-4.433 11.684-13.213 23.092-26.657 34.546-40.064 31.501 16.979 75.267 16.973 108.264-4.728 16.047 56.61 97.271 76.875 150.737 41.038 7.005 23.413 23.092 43.152 51.054 54.653 38.072 15.658 98.01 5.766 116.007-34.182 12.086-26.83 23.678-53.842 35.04-80.936 39.752 46.461 130.591 46.193 161.367-26.88 88.598-210.378 149.63-429.79 195.043-652.408 13.242-64.922-39.941-106.796-93.42-101.881z" fill="#FA0"/><path d="M2992.478 5984.956c761.527 0 1456.468-284.614 1984.664-753.067-287.451-255.145-677.404-546.021-959.133-645.026-12.437-4.371-24.306-4.935-35.228-2.686-4.928-.594-9.966-.85-15.051-.904 5.565-180.398 10.528-360.817 15.793-541.229 9.632-330.051 21.241-660.502 22.58-990.69.377-92.979.742-185.956 1.301-278.932.582-95.925 12.877-198.682-17.834-290.849-20.077-60.26-80.476-70.844-122.279-42.33-14.923-.283-30.188 3.635-44.5 12.93-55.231 35.869-94.363 84.05-137.29 133.177-40.913 46.823-82.288 93.326-123.783 139.637-85.15 95.037-174.761 185.547-266.952 273.721-90.15 86.221-183.169 169.242-279.943 247.982-84.217 68.524-199.476 165.244-198.651 285.031-.993 1.692-1.955 3.42-2.754 5.308-23.798 56.182-18.268 109.438-15.117 169.075 3.091 58.504 8.693 116.794 10.713 175.381 3.961 114.778-.391 229.484-9.572 343.906-4.141 51.604-9.983 103.007-17.3 154.174-190.215-61.801-398.774-48.13-592.214-8.572-196.619 40.207-387.513 109.404-568.447 195.627-63.378 30.205-125.233 63.293-185.549 98.941-35.105 17.792-69.819 36.297-104.031 55.621-64.263 36.299-311.064 227.208-474.801 367.456 543.004 553.097 1299.055 896.318 2135.378 896.318z" fill="#F4C5A2"/><path d="M2992.478 5984.956c779.095 0 1488.568-297.821 2021.016-785.713-1.895-2.369-3.824-4.815-5.708-7.175-68.162-85.291-143.572-163.321-224.159-235.241-78.897-70.414-161.562-134.935-249.774-191.503-84.229-54.013-178.937-120.082-278.296-134.301-24.875-24.687-60.616-37.989-96.175-28.847-101.74 26.151-191.659 106.947-280.048 163.799-91.397 58.785-182.401 118.554-277.936 169.53-172.498 92.032-361.24 154.181-555.604 149.691-170.729-3.946-338.718-57.751-486.165-148.778-76.101-46.983-145.449-102.692-208.017-168.591-64.994-68.458 91.603-115.788 27.032-182.576-31.107-32.173 318.273-266.692 280.688-260.184-131.271-28.294-654.234 69.86-841.635 140.272-163.594 61.465-494.641 186.493-650.369 269.64-138.56 73.984-268.502 166.086-387.473 272.217 547.311 600.729 1335.926 977.76 2212.623 977.76z" fill="#FFEBEE"/><path d="M3041.661 5139.509c-9.155-24.545-24.663-43.667-43.093-56.816-32.859-2.521-65.536-6.852-97.933-12.915-24.851 10.757-45.879 33.289-55.907 69.731-22.443 81.578-18.316 171.828-23.835 256.148-5.531 84.564-9.931 169.333-17.22 253.752-6.57 76.085-13.881 152.432-23.459 228.158-4.229 33.399-9.675 66.203-14.366 98.893a3033.847 3033.847 0 0 0 226.63 8.497c12.774 0 25.479-.324 38.213-.484 2.894-19.683 5.576-39.262 8.442-58.42 13.071-87.38 23.807-175.05 29.731-263.317 5.668-84.54 9.349-168.991 5.811-253.707-3.659-87.545-2.341-187.291-33.014-269.52z" fill="#FFCDD2"/><path d="M2939.125 5502.936c-112.102-12.663-130.762 172.868-18.474 185.552 112.102 12.662 130.763-172.868 18.474-185.552z" fill="#FFEBEE"/><path d="M3107.526 4962.392c-76.819-64.655-153.85-128.884-222.001-203.755-11.32-12.436-23.181-24.909-35.436-37.418-60.808-62.073-92.302-149.862-86.297-239.342 2.98-44.417 9.104-86.229 20.009-110.775 45.509-102.424-19.484-81.588-118.898-67.239-82.956 11.973-159.62 24.999-227.274 71.722-11.365 5.976-32.815 25.993-42.088 35.861-57.062 48.937-95.693 95.777-109.653 184.634-30.641 195.037 45.507 414.969 106.115 596.55 54.853 164.336 141.462 419.922 352.309 345.631 17.355-4.302 34.007-12.169 48.44-23.35 69.895-43.648 122.238-120.915 165.671-190.715 26.935-43.286 50.352-88.972 70.554-136.246 18.478-43.239 47.283-79.913 79.345-112.94 28.461-29.319 38.147-79.842-.796-112.618z" fill="#FFF"/><path d="M4216.405 4468.209c-34.424-2.79-67.786-3.968-99.671 3.118-83.318 8.874-165.79 37.747-245.091 62.832-100.172 31.687-198.884 68.204-296.202 108.713-102.823 42.801-204.319 87.678-303.622 139.211-87.323 45.316-193.677 91.559-220.893 202.177-28.913 117.523 40.594 223.689 93.635 320.292 27.647 50.345 55.289 100.69 82.936 151.036 27.617 50.3 53.57 105.536 101.684 137.097 117.952 77.377 216.764-31.392 301.172-109.398 78.345-72.402 155.002-146.809 228.927-224.32 171.507-179.825 326.7-376.722 468.814-583.458 62.975-91.61-24.227-200.213-111.689-207.3z" fill="#ECEFF1"/><path d="M3248.247 3968.827c137.212 77.906 281.17 141.818 420.342 215.894 60.179 32.029 120.302 64.202 180.93 95.355 1.161-40.677 2.308-81.35 3.496-122.024 9.632-330.052 21.241-660.502 22.58-990.69.378-92.979.741-185.955 1.303-278.932.581-95.925 12.875-198.682-17.834-290.849-20.077-60.26-80.475-70.844-122.28-42.33-14.922-.283-30.188 3.635-44.501 12.93-55.229 35.869-94.36 84.05-137.289 133.177-40.915 46.823-82.288 93.326-123.783 139.637-85.15 95.037-174.76 185.547-266.951 273.72-90.151 86.221-183.168 169.242-279.942 247.982-76.612 62.335-178.877 148.007-196.112 253.146 184.8 120.705 368.006 243.95 560.041 352.984z" fill="#E5AC85"/><path d="M4368.802 2080.455c-26.205-114.254-133.481-194.279-245.46-212.621-75.831-12.423-150.179-.893-221.129 23.44 11.583-185.27 27.814-370.188 43.084-555.228 2.892-35.045-28.256-74.429-62.291-81.818-322.571-70.034-649.886-114.381-979.976-125.381-163.894-5.462-328.063-3.141-491.731 7.073-161.29 10.068-337.629 18.176-489.563 74.045-47.926 17.626-59.359 70.722-37.489 104.766-77.92 93.184-125.287 214.82-168.987 325.355-54.385 137.561-96.919 278.897-128.416 423.421-62.656 287.497-109.211 612.778 5.777 893.333 18.945 46.222 41.271 90.078 66.564 131.601 111.447 231.664 307.827 399.63 545.383 498.722 274.051 114.313 577.909 119.062 868.281 80.081 140.322-18.838 276.567-47.83 405.559-108.011 125.408-58.51 231.128-154.015 307.066-269.281 159.918-242.741 173.043-541.073 164.813-824.613 93.228-.438 187.302-13.318 266.771-63.274 107.365-67.489 181.251-192.951 151.744-321.61z" fill="#F4C5A2"/><path d="M2053.543 2226.279c-15.691-18.526-45.391-24.109-67.835-17.929-25.617 7.054-39.148 25.395-48.695 48.696-24.625 60.1 10.293 202.234 98.175 178.083 87.849-24.141 62.079-157.225 18.355-208.85z" fill="#5A4A42"/><path d="M2994.299 2226.279c15.691-18.526 45.391-24.109 67.835-17.929 25.617 7.054 39.148 25.395 48.695 48.696 24.625 60.1-10.293 202.234-98.175 178.083-87.849-24.141-62.079-157.225-18.355-208.85z" fill="#5A4A42"/><path d="M2701.428 2976.864c-2.858-10.702-13.984-16.189-24.389-13.848-76.928 17.324-122.484 87.076-208.641 80.212-84.578-6.739-124.869-79.643-195.903-112.518-13.117-6.071-25.652-.939-30.789 12.526-45.75 119.912 123.819 208.579 219.754 213.729 91.541 4.912 272.133-59.687 239.968-180.101z" fill="#5A4A42"/><path d="M2516.438 2706.715c-25.297-25.73-58.519-18.543-90.027-29.462-41.902-14.521-21.713-51.159-10.392-82.538l41.161-114.096c12.866-35.658 30.396-73.704 20.309-112.018-3.875-14.719-22.87-23.473-36.143-14.705-43.462 28.711-57.446 90.317-76.023 136.245-20.313 50.221-56.449 109.995-54.714 165.377 1.474 47.061 35.771 84.366 77.904 101.174 42.249 16.854 103.9 17.365 131.185-24.708 5.034-7.763 3.011-18.891-3.26-25.269z" fill="#5A4A42"/><path d="M3478.106 2761.299c-6.056-144.882-178.425-172.514-291.231-159.499-44.518 5.136-105.057 18.349-158.364 42.587-9.964 3.602-19.878 7.381-29.695 11.492-56.643 23.726-127.269 59.317-131.073 129.372-3.961 72.931 51.702 110.5 120.99 129.457 65.994 31.819 158.477 29.15 223.225 16.718 107.761-5.641 271.917-32.157 266.148-170.127z" fill="#ED896F"/><path d="M2987.568 2029.217c33.803 24.808 82.406 23.432 122.302 33.343 50.763 12.61 100.604 27.174 148.861 47.498 19.221 8.094 30.501-18.327 13.377-28.77-43.746-26.677-89.595-50.906-138.805-65.768-41.225-12.451-98.869-34.023-140.476-15.394-10.921 4.89-16.547 20.807-5.259 29.091z" fill="#FF8F00"/><path d="M2089.674 1999.978c-33.803 24.808-82.406 23.432-122.302 33.343-50.763 12.61-100.604 27.174-148.861 47.498-19.222 8.094-30.501-18.327-13.377-28.77 43.746-26.677 89.595-50.906 138.805-65.768 41.225-12.451 98.869-34.023 140.475-15.394 10.922 4.89 16.548 20.807 5.26 29.091z" fill="#FF8F00"/><path d="M2064.823 2802.9c-7.306-4.875-14.383-10.126-21.352-15.563-4.247-16.958-13.282-34.353-28.059-51.131-37.328-42.384-93.706-68.348-142.361-94.854-46.138-25.135-99.788-55.091-153.543-35.904-11.975 4.274-22.052 9.732-30.576 16.041-5.622 1.987-11.196 4.268-16.667 7.1a153.197 153.197 0 0 0-16.415 9.857c-17.409 2.852-34.061 9.374-49.075 21.661-34.888 28.549-47.571 78.76-21.384 117.76 6.096 9.077 13.864 16.861 22.645 23.734 41.969 76.378 168.103 107.7 258.584 114.8 63.093 10.481 127.444-1.881 185.971-30.39 14.167-6.9 22.662-23 23.921-39.371 7.312-13.994 4.583-32.879-11.689-43.74z" fill="#ED896F"/><path d="M4842.257 2516.407c-76.934-143.967-137.441-291.769-141.243-448.783 3.311-35.65 5.617-71.966 6.747-108.771 2.711-18.146 6.182-36.41 10.611-54.827 4.965-20.612-.108-39.128-10.628-53.18-5.108-158.319-32.733-319.241-91.842-460.467-39.229-53.725-80.262-106.148-120.975-158.799-115.398-85.669-219.746-187.925-330.099-278.6-148.509-122.034-326.949-217.353-503.522-292.193-309.089-131.01-671.933-198.582-995.76-135.656-279.706 54.353-512.18 190.686-705.574 397.39-7.135 7.626-14.024 15.514-21.021 23.283-96.768 47.229-185.044 126.635-258.142 194.177-112.881 104.295-213.28 225.73-291.641 358.052-171.887 290.261-251.43 632.148-220.819 968.355 7.272 79.843 18.436 167.396 40.382 251.665 4.429 47.973 13.327 95.594 28.099 142.414 20.879 66.179 62.596 150.326 122.544 203.726-3.196-37.668-5.074-75.432-5.325-113.187-1.381-207.871 43.104-418.906 142.869-602.253 112.128-206.05 286.715-340.314 501.804-426.364 104.206-41.69 212.698-71.213 320.698-101.172 127.379-35.336 251.339-65.601 383.94-74.267 128.469-8.397 257.229-2.16 385.715 2.105 67.168 2.229 133.994 5.445 200.449 16.254 45.73 7.436 87.231 26.921 132.225 35.028 52.602 9.478 91.129 65.653 94.902 116.969 5.531 12.899 10.805 25.999 15.531 39.604 15.319 44.125 20.896 89.906 25.742 135.738-8.967 87.173-21.358 186.792 4.269 265.424 7.072 21.687 25.645 38.557 47.089 47.193 29.971 27.616 82.248 19.315 97.642-26.419 9.914-29.448 13.75-62.019 15.753-95.269 7.648-46.511 9.275-95.362 10.262-142.753 5.759-34.278 14.292-68.617 21.866-102.98 25.245-28.409 56.061-52.124 87.91-68.616 82.705-42.827 184.336-51.155 261.344 8.341 35.416 27.364 57.773 61.43 71.118 98.958 1.707 2.862 3.385 5.747 4.777 8.818 27.26 60.116 47.043 126.536 25.143 192.215-16.912 50.707-49.286 89.309-92.408 115.56-16.444 23.367-39.942 41.111-68.738 46.507-30.873 5.786-62.134 9.451-93.424 12.689-37.648 20.805-70.89 44.442-100.119 75.176-36.563 38.442-58.681 83.138-73.344 144.772-40.662 170.876 16.547 382.006-2.511 568.726-6.775 66.365-20.194 129.748-40.251 190.295-.793 97.806-16.655 193.998-68.515 277.581-80.387 129.556-222.03 210.106-316.56 328.636-55.764 69.915-97.008 146.584-118.509 233.961-20.297 82.498-23.892 167.765-36.147 251.536-9.252 63.244-27.346 136.179-62.705 180.635-1.273 2.814-2.529 5.635-3.956 8.386-7.243 13.952-16.141 26.96-23.379 40.913-4.874 9.177-11.164 17.278-18.344 24.502-53.413 119.149-109.371 238.538-104.582 370.354 4.087 112.328 42.134 237.209 103.732 340.81 57.157 96.132 146.334 185.474 239.193 224.326 16.844 7.047 32.848 12.677 48.299 17.169 157.561 67.262 343.94 64.918 491.536-28.244 151.973-95.922 237.942-253.726 323.039-406.102 38.036-68.105 76.688-137.931 129.679-195.567 59.286-64.478 131.779-113.555 200.814-166.666 80.37-61.835 155.489-128.657 208.32-216.578 54.954-91.457 79.954-194.791 92.282-299.687 25.485-216.755-33.75-439.451 22.933-652.762 51.209-192.714 160.832-366.115 189.918-565.23 37.024-253.393-73.261-466.096-189.093-682.851z" fill="#FFD400"/><path d="M4842.257 2516.407c-76.934-143.967-137.441-291.769-141.243-448.783 3.311-35.65 5.617-71.966 6.747-108.771 2.711-18.146 6.182-36.41 10.611-54.827 4.965-20.612-.108-39.128-10.628-53.18-5.108-158.319-32.733-319.241-91.842-460.467-39.229-53.725-80.262-106.148-120.975-158.799-115.398-85.669-219.746-187.925-330.099-278.6-148.509-122.034-326.949-217.353-503.522-292.193-309.089-131.01-671.933-198.582-995.76-135.656-279.706 54.353-512.18 190.686-705.574 397.39-7.135 7.626-14.024 15.514-21.021 23.283-45.005 21.967-88.144 50.928-128.806 82.384 231.55-47.256 466.753-79.056 702.355-79.009 351.686.069 690.557 78.904 1009.144 225.939 246.019 113.54 499.041 272.719 679.239 477.936 181.339 206.52 285.259 461.47 275.008 738.922-5.913 160.147-46.552 310.103-88.583 463.351-11.644 42.443-22.928 85.005-32.54 127.962-3.116 13.936-25.142 80.201-17.151 88.869 4.96-39.991 5.719-45.403 2.283-16.237-.576 5.957-1.158 11.914-1.735 17.871a928.247 928.247 0 0 0-2.825 45.069c-1.313 34.049-.713 68.127 1.946 102.101.388 4.906 1.01 9.789 1.478 14.688.6 3.362 1.393 8.009 2.392 14.078 3.077 13.726 5.531 27.572 8.716 41.278 9.001 38.785 20.365 77.072 31.175 115.386 17.905 63.472 36.912 126.642 53.584 190.46 36.929 141.382 67.425 293.237 52.551 439.782-18.607 183.274-87.431 355.339-222.726 484.909-58.635 56.155-127.007 103.37-195.254 147.191-26.986 17.329-54.314 34.131-81.124 51.736-8.916 5.855-17.802 11.754-26.598 17.791-.245.17-.491.351-.736.522-13.236 20.702-51.598 45.782-68.972 62.434-.32.312-.582.546-.89.842-8.647 15.006-18.573 29.292-26.935 44.503-4.6 8.213-8.756 16.655-12.859 25.123-1.701 5.925-2.985 10.914-3.242 11.724-11.45 35.55-18.036 71.75-25.93 108.134a524.33 524.33 0 0 1-1.301 5.863c-1.798 18.626-3.858 37.211-5.417 55.864-3.111 37.215-5.228 74.502-7.386 111.782-3.659 63.135-3.19 125.779-4.326 188.971-2.517 140.244-21.712 289.019-95.478 410.944 54.714-11.728 107.664-32.381 156.357-63.116 151.973-95.922 237.942-253.726 323.039-406.102 38.036-68.105 76.688-137.931 129.679-195.567 59.286-64.478 131.779-113.555 200.814-166.666 80.37-61.835 155.489-128.657 208.32-216.578 54.954-91.457 79.954-194.791 92.282-299.687 25.485-216.755-33.75-439.451 22.933-652.762 51.209-192.714 160.832-366.115 189.918-565.23 37.024-253.394-73.261-466.097-189.093-682.852z" fill="#FA0"/><path d="M2507.335 1012.036c367.975-20.336 772.571 89.335 1044.298 347.19 76.683 72.769 143.029 152.019 195.529 244.054 51.261 89.849 73.635 190.742 122.75 280.595 13.716 25.077 48.025 11.377 50.131-13.577 7.979-94.601-34.863-190.848-74.411-275.018-40.999-87.259-94.057-169.146-153.149-245.201-119.074-153.263-282.371-297.091-454.287-388.324-385.726-204.694-833.364-203.933-1242.606-76.025a1543.085 1543.085 0 0 0-35.616 36.791c-7.135 7.626-14.024 15.514-21.021 23.283-96.768 47.229-185.044 126.635-258.142 194.177-74.993 69.291-144.291 146.278-205.466 228.867 136.1-66.211 263.673-151.554 404.739-210.119 199.716-82.915 411.215-134.753 627.251-146.693z" fill="#37474F"/></g><metadata><rdf:RDF xmlns:rdf="http://www.w3.org/1999/02/22-rdf-syntax-ns#" xmlns:rdfs="http://www.w3.org/2000/01/rdf-schema#" xmlns:dc="http://purl.org/dc/elements/1.1/"><rdf:Description about="https://iconscout.com/legal#licenses" dc:title="-employee" dc:description="-employee" dc:publisher="Iconscout" dc:date="2018-02-21" dc:format="image/svg+xml" dc:language="en"><dc:creator><rdf:Bag><rdf:li>Sooodesign .</rdf:li></rdf:Bag></dc:creator></rdf:Description></rdf:RDF></metadata></svg>