<?xml version="1.0" encoding="UTF-8"?><svg xmlns="http://www.w3.org/2000/svg" xmlns:xlink="http://www.w3.org/1999/xlink" version="1.1" x="0px" y="0px" viewBox="0 0 5984.956 5984.956" xml:space="preserve"><g id="_x31_-Girl"><circle cx="2992.478" cy="2992.478" r="2992.478" fill="#553999"/><path d="M2992.478 5984.956c764.145 0 1461.255-286.568 1990.11-757.902-267.095-253.277-639.133-525.823-964.581-640.192-12.434-4.371-24.304-4.935-35.225-2.686-24.351-2.937-50.819.576-77.229 11.943-166.355 71.597-364.885 80.429-540.091 40.677-197.613-44.84-355.543-169.799-541.855-242.517-201.058-78.473-426.085-65.739-633.678-23.287-196.617 40.207-387.513 109.404-568.445 195.627-63.378 30.205-125.232 63.293-185.549 98.941-35.106 17.792-69.82 36.297-104.03 55.621-55.346 31.262-309.498 217.714-483.584 358.461 543.616 558.368 1303.312 905.314 2144.157 905.314z" fill="#FC845B"/><path d="M3989.571 2481.573c-20.077-60.26-80.475-70.844-122.28-42.329-14.922-.283-30.188 3.635-44.501 12.93-55.229 35.869-94.36 84.05-137.289 133.177-40.915 46.823-82.288 93.326-123.783 139.637-85.15 95.037-174.76 185.547-266.951 273.721-90.151 86.221-183.168 169.242-279.942 247.981-84.22 68.524-199.476 165.244-198.651 285.031-.994 1.692-1.954 3.42-2.754 5.308-23.799 56.182-18.268 109.437-15.116 169.075 3.091 58.504 8.693 116.794 10.714 175.381 3.961 114.779-.393 229.484-9.573 343.906-18.264 227.61-67.998 451.521-144.049 666.808-19.581 55.427 17.561 118.375 69.254 140.286 22.57 19.298 52.348 31.175 84.438 34.564 337.044 35.588 674.09 71.158 1011.146 106.643 72.689 7.652 128.664-66.458 131.338-131.338 13.746-333.332 22.218-666.839 31.95-1000.31 9.632-330.051 21.241-660.501 22.58-990.69.378-92.979.741-185.956 1.303-278.932.581-95.924 12.875-198.682-17.834-290.849z" fill="#F4C5A2"/><path d="M3248.247 3968.827c137.212 77.906 281.17 141.818 420.342 215.894 60.179 32.029 120.302 64.202 180.93 95.355 1.161-40.677 2.308-81.35 3.496-122.024 9.632-330.052 21.241-660.502 22.58-990.69.378-92.979.741-185.955 1.303-278.932.581-95.925 12.875-198.682-17.834-290.849-20.077-60.26-80.475-70.844-122.28-42.33-14.922-.283-30.188 3.635-44.501 12.93-55.229 35.869-94.36 84.05-137.289 133.177-40.915 46.823-82.288 93.326-123.783 139.637-85.15 95.037-174.76 185.547-266.951 273.72-90.151 86.221-183.168 169.242-279.942 247.982-76.612 62.335-178.877 148.007-196.112 253.146 184.8 120.705 368.006 243.95 560.041 352.984z" fill="#E5AC85"/><path d="M4368.802 2080.455c-26.205-114.254-133.481-194.279-245.46-212.621-75.831-12.423-150.179-.893-221.129 23.44 11.583-185.27 27.814-370.188 43.084-555.228 2.892-35.045-28.256-74.429-62.291-81.818-322.571-70.034-649.886-114.381-979.976-125.381-163.894-5.462-328.063-3.141-491.731 7.073-161.29 10.068-337.629 18.176-489.563 74.045-47.926 17.626-59.359 70.722-37.489 104.766-77.92 93.184-125.287 214.82-168.987 325.355-54.385 137.561-96.919 278.897-128.416 423.421-62.656 287.497-109.211 612.778 5.777 893.333 18.945 46.222 41.271 90.078 66.564 131.601 111.447 231.664 307.827 399.63 545.383 498.722 274.051 114.313 577.909 119.062 868.281 80.081 140.322-18.838 276.567-47.83 405.559-108.011 125.408-58.51 231.128-154.015 307.066-269.281 159.918-242.741 173.043-541.073 164.813-824.613 93.228-.438 187.302-13.318 266.771-63.274 107.365-67.489 181.251-192.951 151.744-321.61z" fill="#F4C5A2"/><path d="M2053.543 2226.279c-15.691-18.526-45.391-24.109-67.835-17.929-25.617 7.054-39.148 25.395-48.695 48.696-24.625 60.1 10.293 202.234 98.175 178.083 87.849-24.141 62.079-157.225 18.355-208.85z" fill="#5A4A42"/><path d="M2994.299 2226.279c15.691-18.526 45.391-24.109 67.835-17.929 25.617 7.054 39.148 25.395 48.695 48.696 24.625 60.1-10.293 202.234-98.175 178.083-87.849-24.141-62.079-157.225-18.355-208.85z" fill="#5A4A42"/><path d="M2701.428 2976.864c-2.858-10.702-13.984-16.189-24.389-13.848-76.928 17.324-122.484 87.076-208.641 80.212-84.578-6.739-124.869-79.643-195.903-112.518-13.117-6.071-25.652-.939-30.789 12.526-45.75 119.912 123.819 208.579 219.754 213.729 91.541 4.912 272.133-59.687 239.968-180.101z" fill="#5A4A42"/><path d="M2516.438 2706.715c-25.297-25.73-58.519-18.543-90.027-29.462-41.902-14.521-21.713-51.159-10.392-82.538l41.161-114.096c12.866-35.658 30.396-73.704 20.309-112.018-3.875-14.719-22.87-23.473-36.143-14.705-43.462 28.711-57.446 90.317-76.023 136.245-20.313 50.221-56.449 109.995-54.714 165.377 1.474 47.061 35.771 84.366 77.904 101.174 42.249 16.854 103.9 17.365 131.185-24.708 5.034-7.763 3.011-18.891-3.26-25.269z" fill="#5A4A42"/><path d="M3478.106 2761.299c-6.056-144.882-178.425-172.514-291.231-159.499-44.518 5.136-105.057 18.349-158.364 42.587-9.964 3.602-19.878 7.381-29.695 11.492-56.643 23.726-127.269 59.317-131.073 129.372-3.961 72.931 51.702 110.5 120.99 129.457 65.994 31.819 158.477 29.15 223.225 16.718 107.761-5.641 271.917-32.157 266.148-170.127z" fill="#ED896F"/><path d="M1616.186 2721.085c4.556-108.999 134.234-129.788 219.102-119.996 33.492 3.864 79.037 13.804 119.142 32.039 7.496 2.71 14.955 5.553 22.34 8.646 42.615 17.85 95.749 44.626 98.61 97.331 2.98 54.868-38.897 83.132-91.024 97.395-49.649 23.938-119.227 21.93-167.938 12.577-81.072-4.244-204.572-24.192-200.232-127.992z" fill="#ED896F"/><path d="M4077.562 4535.113c-37.374-33.82-87.496-26.543-124.538 3.297-145.087 116.873-337.244 178.901-522.965 170.64-170.857-7.598-335.952-83.856-458.385-202.183-27.755-26.825-54.274-55.417-77.33-86.391-31.109-41.787-53.307-108.942-99.024-135.679-94.544-55.301-238.056 18.627-303.868 88.24-162.016 171.376-109.749 431.35 46.398 587.549 154.413 154.462 391.117 226.274 600.576 265 223.569 41.336 457.948 37.023 670.648-49.687 101.778-41.492 194.148-95.252 278.283-166.311 80.684-68.144 159.458-159.636 154.892-271.903-4.017-98.789-73.362-183.883-164.687-202.572z" fill="#FFF"/><path d="M2987.568 2029.217c33.803 24.808 82.406 23.432 122.302 33.343 50.763 12.61 100.604 27.174 148.861 47.498 19.221 8.094 30.501-18.327 13.377-28.77-43.746-26.677-89.595-50.906-138.805-65.768-41.225-12.451-98.869-34.023-140.476-15.394-10.921 4.89-16.547 20.807-5.259 29.091z" fill="#5A4A42"/><path d="M2089.674 1999.978c-33.803 24.808-82.406 23.432-122.302 33.343-50.763 12.61-100.604 27.174-148.861 47.498-19.222 8.094-30.501-18.327-13.377-28.77 43.746-26.677 89.595-50.906 138.805-65.768 41.225-12.451 98.869-34.023 140.475-15.394 10.922 4.89 16.548 20.807 5.26 29.091z" fill="#5A4A42"/><path d="M5308.316 4412.612c-2.607-81.968-14.722-160.608-35.038-237.242.542-15.97.758-32.043.287-48.327-5.685-196.875-82.319-380.333-223.106-518.757-81.28-79.917-178.4-141.422-270.39-208.437-19.482-16.369-38.19-33.471-55.669-51.903-1.03-1.69-1.973-3.437-2.978-5.141-.008-4.749-.005-9.505.147-14.247 19.392-84.6 55.427-164.309 88.397-244.477 47.478-115.444 82.479-233.794 84.373-360.147 2.06-137.461-43.23-276.249-116.828-391.428-56.908-89.063-127.637-168.433-193.71-250.823-11.036-14.7-22.077-29.385-33.207-44.022l19.744 25.555c-17.874-24.089-34.087-48.915-48.254-75.022a385.582 385.582 0 0 1-2.573-9.075c-.009-4.027.115-8.079.227-12.111 7.4-30.889 17.326-61.04 28.885-90.848 3.354-8.653 6.934-17.204 10.342-25.833.207-.522.362-.921.554-1.409 8.917-20.959 17.814-41.964 26.566-62.904 3.62-8.554 7.194-17.126 10.721-25.718l-17.036 40.248c22.2-61.226 54.472-117.823 68.581-181.842 19.678-89.287 20.293-164.824 6.578-253.979-40.995-266.493-288.548-445.172-526.85-526.248-108.219-36.818-221.714-54.091-331.644-84.675-23.947-6.663-47.271-14.74-70.863-22.324-11.364-6.432-29.076-11.653-38.103-16.26-50.085-25.569-97.592-55.797-144.764-86.306-110.622-71.55-219.331-133.644-343.136-180.765-118.695-45.171-246.315-64.693-372.306-75.463-238.504-20.393-485.868 14.516-716.636 73.157-242.71 61.679-492.375 110.424-689.473 275.581-212.1 177.728-298.039 512.023-127.59 746.839 86.562 119.251 204.965 201.522 346.016 244.757 128.098 39.266 267.221 38.706 399.484 28.519 274.848-21.169 549.306-58.752 820.079-110.957 51.246 11.728 102.568 21.896 156.341 26.678 49.174 4.371 98.219 9.054 147.198 14.83 79.989 11.839 161.143 25.961 241.614 43.564-14.032 79.225-7.991 161.904 5.584 240.688 17.468 101.374 68.48 192.019 119.476 279.992 22.918 39.535 46.122 78.994 66.141 120.108 2.769 7.204 6.688 17.143 7.653 20.133 3.78 11.719 6.992 23.542 9.754 35.468a442.824 442.824 0 0 1-.298 38.303c-34.672 170.389-119.422 326.414-99.107 507.127 13.548 120.512 55.15 227.48 125.065 326.659 10.146 14.393 20.505 28.616 30.831 42.844-54.227 77.71-101.742 159.662-141.846 245.662-57.713 123.755-104.193 248.768-131.759 382.528-27.618 134.017-49.312 274.035-39.323 411.132 19.066 261.674 111.694 510.767 302.448 684.883 43.49 81.515 98.499 156.473 170.834 215.592 139.559 114.059 302.926 182.988 486.313 181.454 530.775-4.437 1009.011-508.655 992.254-1035.611z" fill="#EF401D"/><path d="M1623.478 615.827c-.318 12.651-.611 25.243-.32 37.887 4.628 12.245 5.838 31.653 9.272 42.848.299.973.767 2.379 1.301 3.95 4.286 8.004 13.517 27.437 17.153 33.437.269.444 7.057 9.451 11.847 16.685 18.882 20.011 37.999 39.048 59.146 57.168 2.617 1.667 6.149 3.993 10.848 7.17a816.312 816.312 0 0 0 42.193 26.669c27.615 16.304 57.579 28.337 85.663 43.436 5.549 2.028 11.086 4.087 16.661 6.046a1128.563 1128.563 0 0 0 55.325 17.854c32.178 9.473 64.748 17.616 97.536 24.684 37.446 8.071 75.168 14.416 113.004 20.292.993.099 1.977.197 3.124.315 20.153 2.065 40.266 4.482 60.432 6.445 151.016 14.703 302.785 19.601 453.851 33.675 336.144 31.319 682.383 109.338 930.022 356.032 206.126 205.339 295.485 485.58 377.927 756.914 19.555 64.36 39.188 128.704 60.639 192.463 11.912 35.404 24.36 70.627 37.588 105.562a2409.447 2409.447 0 0 0 17.726 45.45c.669 1.665 1.392 3.326 2.093 4.987 64.669 143.543 95.102 298.906 75.135 456.171-17.631 138.873-55.76 265.452-106.31 395.554-41.898 107.839-87.218 215.93-109.043 330.076-.193 1.006-.337 2.05-.502 3.076-.678 6.956-1.373 13.914-1.721 20.882-1.179 23.612 2.87 48.365 2.323 71.961.222 1.02.398 2.045.636 3.062a491.976 491.976 0 0 0 10.528 38.061c.419 1.309.909 2.635 1.406 3.963 3.543 7.812 6.758 15.946 10.608 23.072 9.586 17.74 20.15 35 31.471 51.687.25.368.521.723.773 1.09 26.965 18.354 51.929 57.992 74.609 81.746 45.261 47.403 90.829 94.599 134.035 143.903 94.034 107.306 174.479 219.467 218.081 356.774 47.172 148.551 33.405 305.116 8.393 455.898-13.302 80.194-34.961 156.536-58.765 234.037-12.08 39.331-23.123 79.046-30.854 119.483.348 16.167-.279 32.771-.683 49.05.447 3.012.887 5.922 1.473 8.187.669 2.583 2.46 8.458 4.419 14.793 2.563 5.476 7.189 15.627 12.025 24.37.411.402.705.683 1.16 1.132 5.243 5.17 9.863 11.235 15.027 16.542 7.315 7.519 15.225 14.341 23.013 21.295 1.026.722 2.041 1.479 3.079 2.166 22.962 15.206 47.023 28.778 71.664 41.062 2.738 1.365 5.546 2.598 8.329 3.881.602.141 1.214.32 1.822.484 457.373-96.636 834.588-547.627 819.673-1016.644-2.607-81.968-14.722-160.608-35.037-237.242.542-15.97.758-32.043.287-48.327-5.685-196.875-82.318-380.333-223.107-518.757-81.28-79.917-178.399-141.422-270.389-208.437-19.482-16.369-38.19-33.471-55.669-51.903-1.03-1.689-1.973-3.437-2.977-5.141-.009-4.749-.006-9.505.147-14.247 19.392-84.6 55.427-164.309 88.397-244.477 47.478-115.444 82.479-233.794 84.372-360.147 2.061-137.46-43.23-276.248-116.827-391.428-56.908-89.063-127.637-168.433-193.711-250.823-11.036-14.7-22.077-29.385-33.207-44.022l19.744 25.555c-17.874-24.089-34.087-48.914-48.254-75.021a384.298 384.298 0 0 1-2.573-9.076c-.009-4.026.115-8.079.228-12.11 7.399-30.889 17.326-61.04 28.885-90.847 3.354-8.653 6.933-17.204 10.342-25.834l.554-1.409c8.917-20.959 17.814-41.964 26.566-62.904a2609.96 2609.96 0 0 0 10.721-25.718l-17.036 40.248c22.199-61.226 54.471-117.823 68.58-181.842 19.678-89.288 20.294-164.824 6.578-253.979-40.995-266.493-288.548-445.172-526.851-526.248-108.219-36.818-221.713-54.09-331.644-84.675-23.947-6.663-47.271-14.74-70.863-22.323-11.363-6.432-29.076-11.653-38.103-16.26-50.085-25.569-97.592-55.797-144.764-86.306-110.622-71.55-219.33-133.644-343.136-180.765-118.695-45.171-246.315-64.693-372.306-75.464-238.503-20.393-485.868 14.516-716.636 73.157-163.262 41.489-329.648 77.18-481.087 146.333-1.988 7.892-3.964 15.787-6.059 23.656z" fill="#DD1010"/></g><metadata><rdf:RDF xmlns:rdf="http://www.w3.org/1999/02/22-rdf-syntax-ns#" xmlns:rdfs="http://www.w3.org/2000/01/rdf-schema#" xmlns:dc="http://purl.org/dc/elements/1.1/"><rdf:Description about="https://iconscout.com/legal#licenses" dc:title="-girl" dc:description="-girl" dc:publisher="Iconscout" dc:date="2018-02-21" dc:format="image/svg+xml" dc:language="en"><dc:creator><rdf:Bag><rdf:li>Sooodesign .</rdf:li></rdf:Bag></dc:creator></rdf:Description></rdf:RDF></metadata></svg>