<?xml version="1.0" encoding="UTF-8"?><svg xmlns="http://www.w3.org/2000/svg" xmlns:xlink="http://www.w3.org/1999/xlink" version="1.1" x="0px" y="0px" viewBox="0 0 5984.956 5984.956" xml:space="preserve"><g id="_x35_-Manager"><circle cx="2992.478" cy="2992.478" r="2992.478" fill="#D6EA15"/><path d="M2925.761 3605.649c-6.98-114.16-65.55-202.675-174.667-241.811-76.235-27.344-160.917-34.343-243.682-44.405-370.655-132.581-702.355-373.072-937.712-689.822-28.587-38.474-71.007-62.377-120.119-48.881-44.135 12.129-79.403 56.073-78.087 102.564.054 1.926.248 3.777.317 5.695-17.172 16.019-28.296 38.031-25.81 61.555 18.718 177.253 29.691 355.531 48.064 532.957l105.581 1019.569c17.437 168.369 28.984 338.805 61.84 505.075 11.524 58.315 27.083 115.792 47.034 171.592-49.172 61.204-22.751 177.539 79.825 178.329 1.179.009 2.36-.017 3.536-.009 15.028 25.251 31.244 49.858 48.738 73.697 71.846 97.907 222.015 218.591 336.703 112.654 14.286.216 28.107-.045 41.232-.755 89.046-4.818 175.329-27.83 253.328-67.539 159.901-51.598 315.028-137.095 410.506-277.284 104.197-152.996 116.277-348.019 123.692-526.978.93-22.378-7.62-41.073-21.227-54.889 19.683-141.052 15.73-289.42 22.959-423.577 6.862-127.36 25.74-260.331 17.949-387.737z" fill="#455A64"/><path d="M3989.571 2481.573c-20.077-60.26-80.475-70.844-122.28-42.329-14.922-.283-30.188 3.635-44.501 12.93-55.229 35.869-94.36 84.05-137.289 133.177-40.915 46.823-82.288 93.326-123.783 139.637-85.15 95.037-174.76 185.547-266.951 273.721-90.151 86.221-183.168 169.242-279.942 247.981-84.22 68.524-199.476 165.244-198.651 285.031-.994 1.692-1.954 3.42-2.754 5.308-23.799 56.182-18.268 109.437-15.116 169.075 3.091 58.504 8.693 116.794 10.714 175.381 3.961 114.779-.393 229.484-9.573 343.906-18.264 227.61-67.998 451.521-144.049 666.808-19.581 55.427 17.561 118.375 69.254 140.286 22.57 19.298 52.348 31.175 84.438 34.564 337.044 35.588 674.09 71.158 1011.146 106.643 72.689 7.652 128.664-66.458 131.338-131.338 13.746-333.332 22.218-666.839 31.95-1000.31 9.632-330.051 21.241-660.501 22.58-990.69.378-92.979.741-185.956 1.303-278.932.581-95.924 12.875-198.682-17.834-290.849z" fill="#F4C5A2"/><path d="M4018.009 4586.862c-12.437-4.371-24.306-4.935-35.228-2.686-2.469-.298-4.974-.483-7.486-.646-59.831 71.034-137.658 127.957-220.594 167.081-221.148 104.322-499.889 132.354-731.673 44.641-128.397-48.589-230.851-125.446-305.433-241.428-10.591 3.151-21.606 5.331-32.936 6.215-181.199 14.149-357.025 71.271-530.177 123.254-176.999 53.138-351.3 110.556-522.175 181.354-165.192 68.444-325.792 145.969-483.057 230.945-61.109 33.021-122.21 66.092-183.948 97.803 533.122 491.32 1245.023 791.561 2027.175 791.561 452.592 0 881.611-100.669 1266.179-280.531 254.955-143.978 493.239-317.828 711.236-491.271-268.124-276.925-584.607-497.223-951.883-626.292z" fill="#FFD400"/><path d="M965.303 5193.396c407.495 375.543 919.51 639.25 1487.438 742.774 4.403-206.985 8.33-413.972 11.878-620.979 2.183-127.368.497-254.583-.925-381.957-1.159-103.672 7.246-228.464-25.862-331.034-95.51 23.494-189.827 53.016-283.35 81.094-176.999 53.138-351.3 110.556-522.175 181.354-165.192 68.444-325.792 145.969-483.057 230.945-61.109 33.02-122.21 66.092-183.947 97.803z" fill="#AD1457"/><path d="M4997.901 5213.467c-164.19-165.62-346.178-310.018-546.438-425.64-132.418 295.929-210.911 616.315-241.978 939.129 290.102-129.308 555.844-303.358 788.416-513.489z" fill="#AD1457"/><path d="M3248.247 3968.827c137.212 77.906 281.17 141.818 420.342 215.894 60.179 32.029 120.302 64.202 180.93 95.355 1.161-40.677 2.308-81.35 3.496-122.024 9.632-330.052 21.241-660.502 22.58-990.69.378-92.979.741-185.955 1.303-278.932.581-95.925 12.875-198.682-17.834-290.849-20.077-60.26-80.475-70.844-122.28-42.33-14.922-.283-30.188 3.635-44.501 12.93-55.229 35.869-94.36 84.05-137.289 133.177-40.915 46.823-82.288 93.326-123.783 139.637-85.15 95.037-174.76 185.547-266.951 273.72-90.151 86.221-183.168 169.242-279.942 247.982-76.612 62.335-178.877 148.007-196.112 253.146 184.8 120.705 368.006 243.95 560.041 352.984z" fill="#E5AC85"/><path d="M4368.802 2080.455c-26.205-114.254-133.481-194.279-245.46-212.621-75.831-12.423-150.179-.893-221.129 23.44 11.583-185.27 27.814-370.188 43.084-555.228 2.892-35.045-28.256-74.429-62.291-81.818-322.571-70.034-649.886-114.381-979.976-125.381-163.894-5.462-328.063-3.141-491.731 7.073-161.29 10.068-337.629 18.176-489.563 74.045-47.926 17.626-59.359 70.722-37.489 104.766-77.92 93.184-125.287 214.82-168.987 325.355-54.385 137.561-96.919 278.897-128.416 423.421-62.656 287.497-109.211 612.778 5.777 893.333 18.945 46.222 41.271 90.078 66.564 131.601 111.447 231.664 307.827 399.63 545.383 498.722 274.051 114.313 577.909 119.062 868.281 80.081 140.322-18.838 276.567-47.83 405.559-108.011 125.408-58.51 231.128-154.015 307.066-269.281 159.918-242.741 173.043-541.073 164.813-824.613 93.228-.438 187.302-13.318 266.771-63.274 107.365-67.489 181.251-192.951 151.744-321.61z" fill="#F4C5A2"/><path d="M2053.543 2226.279c-15.691-18.526-45.391-24.109-67.835-17.929-25.617 7.054-39.148 25.395-48.695 48.696-24.625 60.1 10.293 202.234 98.175 178.083 87.849-24.141 62.079-157.225 18.355-208.85z" fill="#5A4A42"/><path d="M2994.299 2226.279c15.691-18.526 45.391-24.109 67.835-17.929 25.617 7.054 39.148 25.395 48.695 48.696 24.625 60.1-10.293 202.234-98.175 178.083-87.849-24.141-62.079-157.225-18.355-208.85z" fill="#5A4A42"/><path d="M2647.077 2992.301c-2.188-8.192-10.705-12.394-18.67-10.601-58.891 13.262-93.765 66.659-159.722 61.405-64.747-5.159-95.591-60.969-149.97-86.136-10.042-4.647-19.637-.719-23.57 9.589-35.023 91.797 94.787 159.674 168.229 163.617 70.077 3.76 208.326-45.692 183.703-137.874z" fill="#5A4A42"/><path d="M2516.438 2706.715c-25.297-25.73-58.519-18.543-90.027-29.462-41.902-14.521-21.713-51.159-10.392-82.538l41.161-114.096c12.866-35.658 30.396-73.704 20.309-112.018-3.875-14.719-22.87-23.473-36.143-14.705-43.462 28.711-57.446 90.317-76.023 136.245-20.313 50.221-56.449 109.995-54.714 165.377 1.474 47.061 35.771 84.366 77.904 101.174 42.249 16.854 103.9 17.365 131.185-24.708 5.034-7.763 3.011-18.891-3.26-25.269z" fill="#5A4A42"/><path d="M3478.106 2761.299c-6.056-144.882-178.425-172.514-291.231-159.499-44.518 5.136-105.057 18.349-158.364 42.587-9.964 3.602-19.878 7.381-29.695 11.492-56.643 23.726-127.269 59.317-131.073 129.372-3.961 72.931 51.702 110.5 120.99 129.457 65.994 31.819 158.477 29.15 223.225 16.718 107.761-5.641 271.917-32.157 266.148-170.127z" fill="#ED896F"/><path d="M2987.568 2029.217c33.803 24.808 82.406 23.432 122.302 33.343 50.763 12.61 100.604 27.174 148.861 47.498 19.221 8.094 30.501-18.327 13.377-28.77-43.746-26.677-89.595-50.906-138.805-65.768-41.225-12.451-98.869-34.023-140.476-15.394-10.921 4.89-16.547 20.807-5.259 29.091z" fill="#37474F"/><path d="M2089.674 1999.978c-33.803 24.808-82.406 23.432-122.302 33.343-50.763 12.61-100.604 27.174-148.861 47.498-19.222 8.094-30.501-18.327-13.377-28.77 43.746-26.677 89.595-50.906 138.805-65.768 41.225-12.451 98.869-34.023 140.475-15.394 10.922 4.89 16.548 20.807 5.26 29.091z" fill="#37474F"/><path d="M2037.785 2717.548c-2.46-10.576-7.428-21.781-15.605-33.545-10.782-15.518-25.784-27.746-42.459-38.083-12.957-10.678-25.964-19.958-36.88-27.344-64.437-43.603-155.264-79.349-234.335-72.044-25.676 2.372-47.011 12.769-62.514 27.821-12.089 8.059-20.545 19.866-22.894 36.488-9.389 28.367-4.743 61.722 19.044 90.976 56.675 69.7 183.691 99.956 268.076 111.255 1.41.189 2.845.308 4.269.448 44.363 5.884 88.538 1.705 112.778-29.664 17.244-22.315 18.38-44.925 10.52-66.308z" fill="#ED896F"/><path d="M4861.287 2224.754c-5.845-410.162-33.048-844.844-260.488-1200.414-214.721-335.687-642.906-574.476-1033.421-418.389-295.91-306.688-795.28-152.66-1147.539-45.721-381.094 115.691-748.071 303.225-985.631 633.35-72.95 101.374-125.535 212.06-162.256 328.08-67.502 134.408-116.928 278.952-153.283 414.374-88.447 329.46-103.361 670.284-88.709 1009.573 15.576 360.758 55.827 720.069 77.813 1080.457 22.126 362.677 37.123 726.517 39.069 1089.879.414 77.431.408 154.879.166 232.329 158.483 124.324 329.911 232.837 511.804 323.499-9.058-135.989-12.494-272.45-13.738-408.405-2.614-285.394 3.955-570.158-16.475-855.089-20.202-281.736-49.357-563.104-82.667-843.56-32.137-270.577-65.693-546.33-37.328-818.788 7.994-76.77 23.544-149.303 43.938-220.866 6.615-54.867 14.272-109.603 23.385-164.132 14.509-86.84 32.154-173.208 48.721-259.673 11.09-57.871 28.952-117.893 39.34-177.77 15.879-38.904 31.723-78.683 39.375-118.09 146.688-163.498 367.119-243.742 587.151-289.691 175.298-36.607 353.715-55.972 527.42-100.454 112.43-28.791 231.693-70.973 335.116-133.504 2.429 119.899 60.662 251.837 119.785 336.315 100.741 143.947 244.932 245.898 417.795 282.521 154.011 32.629 391.32 8.48 499.704 148.873 51.164 66.281 38.824 157.264 4.406 228.093-13.499 27.777-30.468 52.108-49.292 74.675-5.91.392-12.114 1.697-18.581 4.093-191.399 70.917-245.274 278.115-252.734 464.824-8.855 221.624-2.146 444.682-7.614 666.583-6.792 275.66-24.814 550.217-45.599 824.685-9.983 64.015-19.789 127.865-29.714 191.313-64.286 410.881-118.386 825.172-146.933 1240.222-3.938 57.282-7.366 114.591-10.565 171.915 316.007-69 613.315-187.89 883.312-348.068 104.813-517.351 184.424-1039.799 241.644-1564.523 33.37-306.009 60.002-613.523 73.558-921.154 23.38-284.967 33.152-570.706 29.065-857.362z" fill="#37474F"/><path d="M4861.287 2224.754c-5.845-410.162-33.048-844.844-260.488-1200.414-214.721-335.687-642.906-574.476-1033.421-418.389-295.91-306.688-795.28-152.66-1147.539-45.721-296.795 90.1-585.008 223.801-810.214 434.469-1.29 10.065-2.945 24.182-5.282 32.65-.08 1.725-.268 3.443-.328 5.17-.696 17.354-.562 34.75.32 52.093.254 4.964.828 9.9 1.207 14.854.24 1.34.485 2.719.753 4.249 4.506 16.304 9.09 33.591 12.731 50.243 5.482 9.852 10.693 19.79 16.724 29.373 5.054 4.769 10.048 9.652 15.048 14.529a1988.909 1988.909 0 0 1 20.725 11.846 448.08 448.08 0 0 0 32.765 9.174c3.901.935 13.507 2.566 21.846 3.985 28.216 1.87 56.543 1.931 84.782.583 25.508-1.218 115.781-17.446 23.33.29 31.064-5.959 62.359-10.186 93.324-16.868 97.096-20.952 189.847-53.618 284.2-83.821 8.085-2.984 12.172-4.384 12.334-4.227l3.308-1.423c18.895-8.114 37.791-16.225 56.712-24.282 46.001-19.589 92.037-39.147 138.292-58.141 69.249-28.438 139.162-55.422 210.457-78.333 333.752-107.251 705.32-111.324 1019.207 59.09 522.277 283.551 692.538 923.333 679.179 1475.315-4.272 176.553-20.805 352.571-41.723 527.85-13.083 109.607-27.928 218.997-42.711 328.384-5.068 37.487-10.183 74.968-15.262 112.452-1.208 8.888-11.707 84.136-2.769 20.332-3.139 22.423-5.961 44.899-8.881 67.352-46.689 359.148-77.63 719.517-130.347 1078.054-50.145 341.037-116.394 679.166-163.554 1020.617-9.146 66.216-18.108 132.513-27.297 198.791 217.954-69.179 425.146-162.502 618.301-277.092 104.813-517.351 184.424-1039.799 241.644-1564.523 33.37-306.009 60.002-613.523 73.558-921.154 23.384-284.962 33.156-570.701 29.069-857.357z" fill="#263238"/></g><metadata><rdf:RDF xmlns:rdf="http://www.w3.org/1999/02/22-rdf-syntax-ns#" xmlns:rdfs="http://www.w3.org/2000/01/rdf-schema#" xmlns:dc="http://purl.org/dc/elements/1.1/"><rdf:Description about="https://iconscout.com/legal#licenses" dc:title="-manager" dc:description="-manager" dc:publisher="Iconscout" dc:date="2018-02-21" dc:format="image/svg+xml" dc:language="en"><dc:creator><rdf:Bag><rdf:li>Sooodesign .</rdf:li></rdf:Bag></dc:creator></rdf:Description></rdf:RDF></metadata></svg>