<?xml version="1.0" encoding="UTF-8"?><svg xmlns="http://www.w3.org/2000/svg" xmlns:xlink="http://www.w3.org/1999/xlink" version="1.1" x="0px" y="0px" viewBox="0 0 5984.956 5984.956" xml:space="preserve"><g id="_x33_2-Grand_mother"><circle cx="2992.478" cy="2992.478" r="2992.478" fill="#553999"/><path d="M4899.502 3129.877c212.011-246.711 322.081-582.027 292.011-906.457-.365-3.942-.792-7.917-1.196-11.879-1.407-183.324-57.415-358.162-198.677-487.584-80.43-73.687-185.146-115.592-293.777-119.088-108.201-3.485-255.486 37.456-271.745 164.577-2.706 21.152 5.935 47.421 23.171 62.359-8.837 9.75-15.162 22.812-17.294 39.624-9.365 63.644-18.946 127.264-28.563 190.878-39.542 232.392-96.064 463.135-161.51 690.128-41.844 107.134-83.669 214.274-125.596 321.373-6.831 17.451-5.415 36.787 1.395 54.158a3399.035 3399.035 0 0 0-19.104 41.792c-3.546-1.307-7.097-2.616-10.729-3.875-49.237-17.098-90.847 19.881-79.46 70.622 35.54 158.363 264.671 215.714 402.589 194.882 195.632-29.553 362.165-154.513 488.485-301.51z" fill="#ECEFF1"/><path d="M4736.256 2909.679c-181.778 31.061-367.98 22.463-545.844-25.439-24.685 63.193-49.354 126.394-74.085 189.567-6.832 17.451-5.416 36.786 1.394 54.16a3378.685 3378.685 0 0 0-19.104 41.792c-3.546-1.307-7.097-2.617-10.728-3.875-49.237-17.1-90.847 19.88-79.46 70.621 35.539 158.36 264.67 215.714 402.589 194.881 195.631-29.552 362.163-154.51 488.484-301.509 90.361-105.153 162.125-226.43 212.492-356.072-118.462 62.77-244.625 113.469-375.738 135.874z" fill="#CFD8DC"/><path d="M2992.478 5984.956c761.527 0 1456.468-284.614 1984.664-753.067-287.451-255.145-677.404-546.021-959.133-645.026-12.437-4.371-24.306-4.935-35.228-2.686-4.928-.594-9.966-.85-15.051-.904 5.565-180.398 10.528-360.817 15.793-541.229 9.632-330.051 21.241-660.502 22.58-990.69.377-92.979.742-185.956 1.301-278.932.582-95.925 12.877-198.682-17.834-290.849-20.077-60.26-80.476-70.844-122.279-42.33-14.923-.283-30.188 3.635-44.5 12.93-55.231 35.869-94.363 84.05-137.29 133.177-40.913 46.823-82.288 93.326-123.783 139.637-85.15 95.037-174.761 185.547-266.952 273.721-90.15 86.221-183.169 169.242-279.943 247.982-84.217 68.524-199.476 165.244-198.651 285.031-.993 1.692-1.955 3.42-2.754 5.308-23.798 56.182-18.268 109.438-15.117 169.075 3.091 58.504 8.693 116.794 10.713 175.381 3.961 114.778-.391 229.484-9.572 343.906-4.141 51.604-9.983 103.007-17.3 154.174-190.215-61.801-398.774-48.13-592.214-8.572-196.619 40.207-387.513 109.404-568.447 195.627-63.378 30.205-125.233 63.293-185.549 98.941-35.105 17.792-69.819 36.297-104.031 55.621-64.263 36.299-311.064 227.208-474.801 367.456 543.004 553.097 1299.055 896.318 2135.378 896.318z" fill="#F4C5A2"/><path d="M3787.521 4384.226c60.958 32.445 121.919 64.917 183.24 96.664 4.352-146.278 8.493-292.563 12.762-438.846 9.632-330.051 21.241-660.502 22.58-990.69.377-92.979.742-185.956 1.301-278.932.268-44.145 2.979-89.733 2.877-135.074-2.617-11.039-5.582-21.997-9.181-32.799-22.511-67.571-90.236-79.438-137.113-47.464-16.732-.318-33.85 4.076-49.9 14.498-61.928 40.221-105.806 94.246-153.942 149.333-45.878 52.504-92.271 104.647-138.8 156.576-95.478 106.566-195.959 208.056-299.334 306.926-101.089 96.681-205.389 189.773-313.904 278.065-31.31 25.475-66.415 54.466-99.36 86.683-18.299 51.773-13.367 101.611-10.445 156.938 2.069 39.183 5.211 78.273 7.703 117.418 167.707 110.004 335.693 219.549 510.183 318.621 153.856 87.357 315.278 159.022 471.333 242.083z" fill="#E5AC85"/><path d="M4343.806 2311.673c-26.205-114.254-133.481-194.279-245.46-212.621-75.831-12.423-150.179-.893-221.129 23.44 11.583-185.27 27.814-370.188 43.084-555.228 2.892-35.045-28.256-74.429-62.291-81.818-322.571-70.034-649.886-114.381-979.976-125.381-163.894-5.462-328.063-3.141-491.731 7.073-161.29 10.068-337.629 18.176-489.563 74.045-47.926 17.626-59.359 70.722-37.489 104.766-77.92 93.184-125.287 214.82-168.988 325.355-54.385 137.561-96.919 278.897-128.416 423.421-62.656 287.497-109.211 612.778 5.777 893.333 18.945 46.222 41.271 90.078 66.564 131.601 111.447 231.664 307.827 399.63 545.384 498.721 274.05 114.313 577.909 119.062 868.281 80.081 140.322-18.838 276.567-47.83 405.559-108.011 125.408-58.51 231.128-154.015 307.066-269.281 159.918-242.741 173.043-541.073 164.813-824.613 93.228-.438 187.302-13.318 266.771-63.274 107.365-67.488 181.251-192.95 151.744-321.609z" fill="#F4C5A2"/><path d="M4600.445 1595.791c-107.236-232.187-292.668-419.943-512.428-547.935-261.338-189.728-606.851-261.893-924.653-260.935-466.479 1.406-932.507 172.935-1263.51 508.682-157.575 159.831-302.237 366.399-354.753 588.779-5.365 8.364-9.369 17.364-11.353 26.716-8.35 39.388-4.098 72.499 8.875 100.483 11.407 31.044 32.796 57.588 62.996 70.077 78.675 53.008 200.948 70.836 281.435 76.514 187.275 13.213 375.595 24.179 563.401 20.041 175.58-3.869 352.684-20.733 520.939-73.281 67.622-21.121 139.268-44.354 202.261-79.291 22.383-6.577 45.422-13.716 67.499-22.692 74.702 56.765 143.218 121.478 204.555 192.547 40.408 46.819 74.466 99.15 109.779 150.221 6.244 21.856 11.515 43.976 15.171 66.279 8.29 50.574 7.483 102.214 19.697 152.259 1.575 6.458 4.281 12.262 7.777 17.426 10.091 66.436 39.891 125.517 105.881 161.475 22.426 12.221 44.24.148 53.124-21.612 51.775-126.797 66.458-265.995 87.145-400.888 5.454-35.568 9.986-71.235 14.015-106.963 6.29-3.985 12.426-9.229 18.259-15.929 97.513-112.004 294.982-131.63 390.9-4.687 43.732 57.877 62.776 139.061 46.329 209.883-19.794 85.24-87.781 139.808-153.38 191.983l-.174.139c-10.791 8.591-22.874 15.465-36.013 19.654-9.86 3.144-19.164 8.102-29.309 10.435-117.002 26.905-197.173 110.552-238.439 222.469l-.069.283c-.656 283.805-11.118 567.399-19.697 851.041 53.507 16.328 122.239-6.504 144.199-70.573 61.301-178.855 160.777-348.885 275.279-498.799 115.527-151.258 250.939-290.09 337.068-461.664 168.263-335.191 163.466-733.777 7.194-1072.137z" fill="#B0BEC5"/><path d="M4600.445 1595.791c-107.236-232.188-292.668-419.943-512.429-547.935-261.338-189.727-606.851-261.893-924.653-260.936-182.723.551-365.338 27.327-539.835 79.728-13.213 15.317-1.107-1.136-14.02 19.81-.167.271-5.237 9.572-6.92 11.828-1.494 5.922-4.171 16.803-5.372 19.863.334 3.907.905 8.644.491 8.604 24.094 76.429 118.346 124.172 196.679 147.256 204.909 60.385 435.671 44.686 634.802 79.326 342.026 59.494 690.157 221.436 908.149 499.172 229.021 291.789 289.383 698.094 152.571 1044.985-120.243 304.88-366.993 535.899-643.981 702.424-2.973 99.685-6.206 199.364-9.221 299.049 53.507 16.33 122.239-6.501 144.199-70.573 61.301-178.854 160.777-348.883 275.28-498.799 115.526-151.257 250.939-290.088 337.068-461.665 168.261-335.191 163.463-733.777 7.192-1072.137z" fill="#90A4AE"/><path d="M2028.547 2457.497c-15.691-18.526-45.391-24.109-67.835-17.929-25.617 7.054-39.148 25.395-48.695 48.696-24.625 60.1 10.293 202.234 98.175 178.083 87.848-24.141 62.078-157.225 18.355-208.85z" fill="#5A4A42"/><path d="M2969.302 2457.497c15.691-18.526 45.391-24.109 67.835-17.929 25.617 7.054 39.148 25.395 48.695 48.696 24.625 60.1-10.293 202.234-98.175 178.083-87.848-24.141-62.078-157.225-18.355-208.85z" fill="#5A4A42"/><path d="M2676.432 3208.082c-2.858-10.702-13.984-16.189-24.389-13.848-76.928 17.324-122.484 87.076-208.641 80.212-84.578-6.739-124.869-79.643-195.903-112.518-13.117-6.071-25.652-.939-30.789 12.526-45.75 119.912 123.819 208.579 219.754 213.729 91.541 4.912 272.132-59.687 239.968-180.101z" fill="#5A4A42"/><path d="M2491.441 2937.933c-25.297-25.73-58.519-18.543-90.027-29.462-41.902-14.521-21.713-51.159-10.391-82.538l41.161-114.096c12.866-35.658 30.395-73.704 20.309-112.018-3.875-14.719-22.87-23.473-36.143-14.705-43.462 28.711-57.446 90.317-76.023 136.245-20.313 50.221-56.449 109.995-54.714 165.377 1.473 47.061 35.771 84.366 77.904 101.174 42.249 16.854 103.9 17.365 131.185-24.708 5.033-7.763 3.011-18.891-3.261-25.269z" fill="#5A4A42"/><path d="M3453.11 2992.517c-6.056-144.882-178.425-172.514-291.231-159.499-44.517 5.136-105.057 18.349-158.364 42.587-9.964 3.602-19.878 7.381-29.695 11.492-56.643 23.726-127.269 59.317-131.073 129.372-3.961 72.931 51.702 110.5 120.99 129.457 65.994 31.819 158.477 29.15 223.224 16.718 107.762-5.641 271.917-32.157 266.149-170.127z" fill="#E5AC85"/><path d="M2962.572 2260.435c33.803 24.808 82.406 23.433 122.302 33.343 50.763 12.61 100.604 27.174 148.861 47.498 19.221 8.094 30.501-18.327 13.377-28.77-43.746-26.677-89.595-50.906-138.805-65.768-41.225-12.451-98.869-34.023-140.476-15.394-10.922 4.89-16.548 20.807-5.259 29.091z" fill="#78909C"/><path d="M2064.677 2231.197c-33.803 24.808-82.406 23.432-122.302 33.343-50.763 12.61-100.604 27.175-148.861 47.498-19.222 8.094-30.501-18.327-13.377-28.77 43.746-26.677 89.595-50.906 138.805-65.768 41.225-12.451 98.869-34.023 140.476-15.394 10.921 4.889 16.547 20.807 5.259 29.091z" fill="#78909C"/><path d="M2039.826 3034.118c-7.306-4.875-14.383-10.126-21.353-15.563-4.246-16.958-13.282-34.353-28.059-51.131-37.328-42.384-93.706-68.348-142.361-94.854-46.138-25.135-99.788-55.091-153.543-35.904-11.975 4.274-22.052 9.732-30.576 16.041-5.622 1.987-11.196 4.268-16.667 7.1a153.197 153.197 0 0 0-16.415 9.857c-17.408 2.852-34.061 9.374-49.075 21.661-34.888 28.549-47.571 78.76-21.384 117.76 6.096 9.077 13.864 16.861 22.645 23.734 41.969 76.378 168.103 107.7 258.584 114.8 63.093 10.481 127.444-1.881 185.971-30.39 14.167-6.9 22.662-23 23.921-39.371 7.313-13.994 4.585-32.879-11.688-43.74z" fill="#E5AC85"/><path d="M4039.168 4416.049c-10.475-89.948-36.548-187.659-127.197-219.096-68.045-23.598-141.351 4.849-187.451 59.009-31.189-34.461-68.41-61.8-111.784-75.997-76.048-24.894-142.234-5.285-195.445 38.011-32.216-35.014-71.885-62.316-118.093-77.572-60.383-19.936-122.033-16.491-177.535 4.55-2.254-4.145-4.542-8.274-7.01-12.335-46.643-76.747-122.498-130.061-207.445-126.955-80.67 2.948-152.193 56.292-192.047 129.545-44.99 82.689-42.27 181.939-32.024 275.726 6.349 58.123 35.093 108.66 81.162 128.71 55.471 64.245 151.062 91.979 231.191 117.641 104.513 33.471 210.288 63.192 317.483 86.353 109.551 23.671 221.141 41.718 332.56 50.033 98.746 7.368 202.325 5.544 283.514-47.352 32.415 4.64 64.156-8.691 80.498-49.877 35.579-89.665 41.02-182.537 29.623-280.394z" fill="#FFF"/><path d="M4018.009 4586.861c-12.437-4.369-24.306-4.934-35.228-2.683-1.741-.211-3.552-.188-5.317-.319-59.545 14.429-121.03 21.395-181.757 28.016-145.12 15.825-290.363-5.414-433.842-26.433-110.522-16.192-229.184-30.359-334.763-67.785-51.596-18.289-100.351-39.872-146.797-64.651-162.9-86.91-347.027-127.635-530.556-107.465-53.938 5.928-107.432 14.739-159.818 25.452-196.619 40.208-387.513 109.405-568.447 195.628-63.378 30.205-125.233 63.292-185.549 98.94-35.105 17.794-69.819 36.298-104.031 55.622-64.263 36.298-311.064 227.207-474.801 367.456 543.002 553.096 1299.052 896.317 2135.376 896.317 761.527 0 1456.468-284.614 1984.664-753.068-287.452-255.145-677.405-546.021-959.134-645.027z" fill="#FF8A65"/><path d="M3870.479 4366.053c-14.8 0-30.349 6.438-40.816 16.906-10.012 10.011-17.551 26.438-16.907 40.816 1.401 31.275 25.363 57.725 57.723 57.725 14.801 0 30.349-6.441 40.816-16.909 10.012-10.012 17.551-26.436 16.907-40.816-1.4-31.273-25.362-57.722-57.723-57.722z" fill="#B0BEC5"/><path d="M3541.878 4344.061c-95.9 0-96.058 149.04 0 149.04 95.9 0 96.059-149.04 0-149.04z" fill="#B0BEC5"/><path d="M3275.839 4318.354c-14.794-13.579-32.98-22.146-53.468-22.146-19.388 0-39.756 8.436-53.468 22.146-13.115 13.116-22.991 34.634-22.147 53.47.875 19.555 7.299 39.84 22.147 53.47 14.794 13.579 32.98 22.146 53.468 22.146 19.388 0 39.756-8.436 53.468-22.146 13.115-13.116 22.991-34.634 22.147-53.47-.876-19.555-7.3-39.84-22.147-53.47z" fill="#B0BEC5"/><path d="M2946.864 4231.996c-9.572-9.506-20.855-16.084-33.85-19.726-13.595-3.656-27.191-3.656-40.786 0-.614.125-1.229.254-1.843.382l-18.229 7.691c-8.893 4.797-16.031 11.35-21.412 19.658-4.729 4.76-8 10.374-9.813 16.834-4.778 9.095-6.969 18.898-6.572 29.403.606 13.547 4.084 26.526 10.419 38.519 4.795 8.893 11.347 16.03 19.655 21.41 7.371 6.746 16.021 11.301 25.952 13.661l1.843.382c13.595 3.653 27.191 3.653 40.786 0 12.995-3.644 24.279-10.22 33.85-19.729 13.778-15.008 22.468-33.458 22.468-54.243 0-19.667-8.557-40.329-22.468-54.242z" fill="#B0BEC5"/><path d="M3191.49 4778.703l-7.733-18.328c-4.82-8.938-11.406-16.113-19.757-21.521-4.786-4.754-10.428-8.042-16.926-9.866-5.982-3.467-12.435-5.214-19.359-5.234-6.797-1.827-13.595-1.827-20.393 0-6.923.02-13.376 1.767-19.358 5.234-9.51 3.094-17.74 8.382-24.688 15.862-8.731 9.512-16.272 21.301-19.728 33.853l-2.74 20.394 2.74 20.391 7.733 18.325c4.82 8.941 11.406 16.116 19.757 21.523 12.147 9.384 30.596 18.459 46.48 16.473 7.912-.99 15.961-1.39 23.709-3.276 23.354-5.685 44.043-26.375 49.728-49.729 1.886-7.748 2.284-15.796 3.274-23.707a43567.88 43567.88 0 0 0-2.739-20.394z" fill="#FFCCBC"/><path d="M2986.647 5070.231c-17.153-15.745-38.238-25.676-61.993-25.676-22.479 0-46.093 9.777-61.992 25.676-8.55 7.942-14.592 17.346-18.128 28.216-5.489 10.448-8.006 21.707-7.551 33.778 1.016 22.671 8.464 46.187 25.678 61.991 17.153 15.748 38.238 25.679 61.992 25.679 22.479 0 46.094-9.78 61.993-25.679 8.55-7.939 14.592-17.346 18.127-28.213 5.49-10.451 8.007-21.709 7.551-33.778-1.015-22.673-8.463-46.191-25.677-61.994z" fill="#FFCCBC"/><path d="M2843.856 5481.514c-.425-9.352-3.205-18.065-8.341-26.13-1.466-3.319-3.721-6.261-5.733-9.278-13.982-20.973-36.454-37.28-62.927-36.093-19.331.865-37.583 7.397-51.531 21.344-13.215 13.216-21.345 32.845-21.345 51.532 0 26.872 14.356 48.433 36.094 62.925 3.021 2.015 5.952 4.264 9.277 5.733 5.596 2.363 11.194 4.723 16.79 7.086 9.342 2.928 18.685 3.348 28.027 1.253 6.343-.017 12.256-1.618 17.737-4.797 8.714-2.834 16.253-7.68 22.62-14.532 8.24-8.976 14.323-19.42 18.076-31.016 2.93-9.34 3.348-18.683 1.256-28.027z" fill="#FFCCBC"/><path d="M2673.472 5734.071c-12.971-11.909-28.917-19.42-46.882-19.42-17 0-34.858 7.397-46.882 19.42-11.499 11.498-20.159 30.365-19.419 46.88.769 17.146 6.401 34.931 19.419 46.883 12.972 11.906 28.917 19.417 46.882 19.417 17 0 34.858-7.394 46.882-19.417 11.5-11.501 20.159-30.368 19.419-46.883-.768-17.145-6.401-34.93-19.419-46.88z" fill="#FFCCBC"/></g><metadata><rdf:RDF xmlns:rdf="http://www.w3.org/1999/02/22-rdf-syntax-ns#" xmlns:rdfs="http://www.w3.org/2000/01/rdf-schema#" xmlns:dc="http://purl.org/dc/elements/1.1/"><rdf:Description about="https://iconscout.com/legal#licenses" dc:title="-grand,mother" dc:description="-grand,mother" dc:publisher="Iconscout" dc:date="2018-02-21" dc:format="image/svg+xml" dc:language="en"><dc:creator><rdf:Bag><rdf:li>Sooodesign .</rdf:li></rdf:Bag></dc:creator></rdf:Description></rdf:RDF></metadata></svg>