<?xml version="1.0" encoding="UTF-8"?><svg xmlns="http://www.w3.org/2000/svg" xmlns:xlink="http://www.w3.org/1999/xlink" version="1.1" x="0px" y="0px" viewBox="0 0 5984.956 5984.956" xml:space="preserve"><g id="_x31_9-Journalist"><circle cx="2992.478" cy="2992.478" r="2992.478" fill="#3949AB"/><path d="M1617.973 3694.151c8.173 14.848 13.367 29.525 16.255 43.847 139.627 56.139 292.508 84.956 441.856 99.879 254.872 25.467 510.462 14.751 765.962 10.603-8.858-85.895-18.607-171.678-30.045-257.256-.519.006-.993.078-1.518.078-142.955.037-283.056-33.996-419.093-77.162-86.82-27.55-176.014-52.69-262.805-82.854-.462 4.049-1.01 8.092-1.467 12.141-1.279-4.66-2.597-9.303-3.875-13.96-30.331-10.626-60.353-21.875-89.856-34.105-27.054-11.216-52.163-23.987-75.884-38.034-2.346 4.044-4.406 8.343-6.005 13.014-2.688-7.179-5.32-14.368-8.014-21.547-87.779-55.239-155.969-129.242-227.726-213.881-57.659-68.014-103.526-243.538-160.209-311.93-2.603 9.905-19.144 129.246-23.487 138.744-48.75 106.575-25.702 261.446-15.816 374.874 10.923 125.435 41.339 247.94 101.727 357.549z" fill="#FF8F00"/><path d="M2992.478 5984.956c761.527 0 1456.468-284.614 1984.664-753.067-287.451-255.145-677.404-546.021-959.133-645.026-12.437-4.371-24.306-4.935-35.228-2.686-4.928-.594-9.966-.85-15.051-.904 5.565-180.398 10.528-360.817 15.793-541.229 9.632-330.051 21.241-660.502 22.58-990.69.377-92.979.742-185.956 1.301-278.932.582-95.925 12.877-198.682-17.834-290.849-20.077-60.26-80.476-70.844-122.279-42.33-14.923-.283-30.188 3.635-44.5 12.93-55.231 35.869-94.363 84.05-137.29 133.177-40.913 46.823-82.288 93.326-123.783 139.637-85.15 95.037-174.761 185.547-266.952 273.721-90.15 86.221-183.169 169.242-279.943 247.982-84.217 68.524-199.476 165.244-198.651 285.031-.993 1.692-1.955 3.42-2.754 5.308-23.798 56.182-18.268 109.438-15.117 169.075 3.091 58.504 8.693 116.794 10.713 175.381 3.961 114.778-.391 229.484-9.572 343.906-4.141 51.604-9.983 103.007-17.3 154.174-190.215-61.801-398.774-48.13-592.214-8.572-196.619 40.207-387.513 109.404-568.447 195.627-63.378 30.205-125.233 63.293-185.549 98.941-35.105 17.792-69.819 36.297-104.031 55.621-64.263 36.299-311.064 227.208-474.801 367.456 543.004 553.097 1299.055 896.318 2135.378 896.318z" fill="#F4C5A2"/><path d="M3801.972 4408.469c55.998 29.806 112.036 59.574 168.303 88.872 4.538-151.761 8.818-303.531 13.248-455.297 9.629-330.051 21.238-660.502 22.58-990.69.377-92.979.742-185.956 1.301-278.932.377-61.665 5.531-126.145 1.05-188.828-28.824-48.809-87.117-54.864-129.011-26.287-16.952-.322-34.292 4.13-50.553 14.689-62.745 40.75-107.196 95.485-155.969 151.296-46.478 53.194-93.487 106.023-140.621 158.635-96.74 107.968-198.542 210.792-303.273 310.961-102.419 97.952-208.091 192.268-318.027 281.72-34.229 27.849-72.91 59.857-108.503 95.637-10.736 44.381-6.718 88.071-4.195 135.858 2.363 44.7 6.164 89.277 8.739 133.954 170.084 111.563 340.441 222.67 517.403 323.145 155.877 88.506 319.419 161.113 477.528 245.267z" fill="#E5AC85"/><path d="M4368.802 2080.455c-26.205-114.254-133.481-194.279-245.46-212.621-75.831-12.423-150.179-.893-221.129 23.44 11.583-185.27 27.814-370.188 43.084-555.228 2.892-35.045-28.256-74.429-62.291-81.818-322.571-70.034-649.886-114.381-979.976-125.381-163.894-5.462-328.063-3.141-491.731 7.073-161.29 10.068-337.629 18.176-489.563 74.045-47.926 17.626-59.359 70.722-37.489 104.766-77.92 93.184-125.287 214.82-168.987 325.355-54.385 137.561-96.919 278.897-128.416 423.421-62.656 287.497-109.211 612.778 5.777 893.333 18.945 46.222 41.271 90.078 66.564 131.601 111.447 231.664 307.827 399.63 545.383 498.722 274.051 114.313 577.909 119.062 868.281 80.081 140.322-18.838 276.567-47.83 405.559-108.011 125.408-58.51 231.128-154.015 307.066-269.281 159.918-242.741 173.043-541.073 164.813-824.613 93.228-.438 187.302-13.318 266.771-63.274 107.365-67.489 181.251-192.951 151.744-321.61z" fill="#F4C5A2"/><path d="M2053.543 2226.279c-15.691-18.526-45.391-24.109-67.835-17.929-25.617 7.054-39.148 25.395-48.695 48.696-24.625 60.1 10.293 202.234 98.175 178.083 87.849-24.141 62.079-157.225 18.355-208.85z" fill="#5A4A42"/><path d="M2994.299 2226.279c15.691-18.526 45.391-24.109 67.835-17.929 25.617 7.054 39.148 25.395 48.695 48.696 24.625 60.1-10.293 202.234-98.175 178.083-87.849-24.141-62.079-157.225-18.355-208.85z" fill="#5A4A42"/><path d="M2701.428 2976.864c-2.858-10.702-13.984-16.189-24.389-13.848-76.928 17.324-122.484 87.076-208.641 80.212-84.578-6.739-124.869-79.643-195.903-112.518-13.117-6.071-25.652-.939-30.789 12.526-45.75 119.912 123.819 208.579 219.754 213.729 91.541 4.912 272.133-59.687 239.968-180.101z" fill="#5A4A42"/><path d="M2516.438 2706.715c-25.297-25.73-58.519-18.543-90.027-29.462-41.902-14.521-21.713-51.159-10.392-82.538l41.161-114.096c12.866-35.658 30.396-73.704 20.309-112.018-3.875-14.719-22.87-23.473-36.143-14.705-43.462 28.711-57.446 90.317-76.023 136.245-20.313 50.221-56.449 109.995-54.714 165.377 1.474 47.061 35.771 84.366 77.904 101.174 42.249 16.854 103.9 17.365 131.185-24.708 5.034-7.763 3.011-18.891-3.26-25.269z" fill="#5A4A42"/><path d="M3478.106 2761.299c-6.056-144.882-178.425-172.514-291.231-159.499-44.518 5.136-105.057 18.349-158.364 42.587-9.964 3.602-19.878 7.381-29.695 11.492-56.643 23.726-127.269 59.317-131.073 129.372-3.961 72.931 51.702 110.5 120.99 129.457 65.994 31.819 158.477 29.15 223.225 16.718 107.761-5.641 271.917-32.157 266.148-170.127z" fill="#ED896F"/><path d="M2987.568 2029.217c33.803 24.808 82.406 23.432 122.302 33.343 50.763 12.61 100.604 27.174 148.861 47.498 19.221 8.094 30.501-18.327 13.377-28.77-43.746-26.677-89.595-50.906-138.805-65.768-41.225-12.451-98.869-34.023-140.476-15.394-10.921 4.89-16.547 20.807-5.259 29.091z" fill="#5A4A42"/><path d="M2089.674 1999.978c-33.803 24.808-82.406 23.432-122.302 33.343-50.763 12.61-100.604 27.174-148.861 47.498-19.222 8.094-30.501-18.327-13.377-28.77 43.746-26.677 89.595-50.906 138.805-65.768 41.225-12.451 98.869-34.023 140.475-15.394 10.922 4.89 16.548 20.807 5.26 29.091z" fill="#5A4A42"/><path d="M2064.823 2802.9c-7.306-4.875-14.383-10.126-21.352-15.563-4.247-16.958-13.282-34.353-28.059-51.131-37.328-42.384-93.706-68.348-142.361-94.854-46.138-25.135-99.788-55.091-153.543-35.904-11.975 4.274-22.052 9.732-30.576 16.041-5.622 1.987-11.196 4.268-16.667 7.1a153.197 153.197 0 0 0-16.415 9.857c-17.409 2.852-34.061 9.374-49.075 21.661-34.888 28.549-47.571 78.76-21.384 117.76 6.096 9.077 13.864 16.861 22.645 23.734 41.969 76.378 168.103 107.7 258.584 114.8 63.093 10.481 127.444-1.881 185.971-30.39 14.167-6.9 22.662-23 23.921-39.371 7.312-13.994 4.583-32.879-11.689-43.74z" fill="#ED896F"/><path d="M3828.953 1984.165c123.149 4.926 261.749-29.644 380.064 15.609 82.213 31.446 125.084 114.83 120.135 200.72-5.987 103.859-84.234 148.647-165.734 197.185-15.371 9.152-264.283 59.065-278.65 68.778 25.022 359.782-1.324 674.896-50.656 1032.561-7.129 51.685-13.79 101.253-20 149.552 36.997-9.483 73.749-20.031 109.788-33.45 132.938-49.5 259.438-131.891 363.546-227.547 160.124-147.125 285.625-334.971 387.444-531.187 53.116-220.457 81.512-442.95 76.375-673.062-6.324-283.439-54.703-564.522-139.582-834.921-74.959-238.797-173.366-483.489-327.422-683.257-48.236-62.55-104.617-125.542-168.121-178.948-109.348-70.892-233.764-115.161-363.615-129.931-128.983-14.674-242.794 6.637-354.317 58.468-104.388-72.615-223.16-120.206-348.033-147.376-306.395-29.63-636.876 120.788-885.949 273.412-565.559 346.559-850.721 1006.714-939.573 1641.294-45.479 324.815-13.419 651.027 73.492 966.475 62.556 227.068 152.202 453.742 278.81 655.249 42.911 16.197 86.9 29.735 131.037 41.613 14.503 3.903 29.041 7.354 43.59 10.506-18.202-52.695-34.977-105.903-51.118-159.248-79.046-261.25-209.752-513.976-137.116-793.021 61.54-236.41 229.9-436.754 411.137-593.481 174.33-150.76 369.79-273.573 583.801-359.117 125.221-50.054 270.151-93.165 398.061-158.822 121.254-86.512 238.205-187.839 315.174-257.58a669.127 669.127 0 0 0 10.753 39.835c33.076 108.98 101.163 209.101 189.85 280.555 104.155 83.916 223.543 123.805 356.829 129.136z" fill="#FF6F00"/><path d="M4751.266 2183.324c-6.324-283.439-54.703-564.522-139.582-834.921-74.959-238.797-173.366-483.489-327.422-683.257-48.236-62.55-104.617-125.542-168.121-178.948-109.348-70.892-233.764-115.161-363.615-129.931-128.983-14.674-242.794 6.637-354.317 58.468-104.388-72.615-223.16-120.206-348.033-147.376-306.395-29.63-636.876 120.788-885.949 273.412-250.128 153.272-445.32 367.945-593.03 614.554 28.19-11.475 56.443-22.444 84.611-32.931 231.259-86.092 473.842-131.897 718.04-162.081 424.607-52.482 859.859 9.463 1234.963 223.255 393.734 224.405 675.94 599.372 814.101 1027.863 100.701 312.32 103.789 654.514 42.231 980.008 79.845-104.168 149.051-218.084 209.747-335.055 53.116-220.455 81.512-442.948 76.376-673.06z" fill="#E65100"/><path d="M3508.277 1307.957c87.647 66.484 164.644 146.052 226.824 237.903 66.843 98.731 105.986 205.252 144.616 317.556 17.939 52.161 101.797 40.981 96.397-17.747-20.057-218.543-157.789-416.215-306.852-565.55-164.016-164.319-371.451-275.344-589.04-344.724-455.246-145.157-992.141-158.479-1416.822 85.8-2.711 1.561-5.354 3.251-8.059 4.834-108.743 154.345-196.391 324.755-264.757 503.067 181.59-313.65 518.419-494.195 871.937-529.347 223.314-22.205 450.6 1.318 668.811 53.111 203.433 48.289 407.923 126.884 576.945 255.097z" fill="#37474F"/><path d="M857.102 5088.639c543.002 553.096 1299.049 896.317 2135.376 896.317 761.527 0 1456.468-284.614 1984.664-753.068-277.8-246.576-651.306-526.487-930.372-634.373-6.752 18.633-14.343 36.853-25.553 53.456-18.853 27.925-44.543 50.833-70.37 72.265-54.942 45.592-120.153 79.385-186.602 104.899-178.063 68.371-372.827 107.6-563.721 83.229-165.278-21.099-313.958-92.419-424.402-218.075-45.639-51.93-83.03-114.044-104.782-179.806-10.611-32.089-19.321-65.136-22.768-98.743-2.3-22.44-1.872-44.519-1.764-66.526-151.123-22.538-308.438-7.577-456.878 22.779-196.619 40.207-387.513 109.404-568.447 195.627-63.378 30.205-125.233 63.293-185.552 98.941-35.102 17.792-69.817 36.297-104.028 55.621-64.263 36.299-311.064 227.208-474.801 367.457z" fill="#263238"/><path d="M4159.554 4987.767c-14.794-13.582-32.979-22.149-53.47-22.149-19.389 0-39.754 8.436-53.47 22.149-13.111 13.113-22.99 34.631-22.146 53.467.879 19.557 7.3 39.839 22.146 53.47 14.794 13.58 32.985 22.146 53.47 22.146 19.389 0 39.754-8.435 53.47-22.146 13.116-13.117 22.99-34.634 22.146-53.47-.873-19.555-7.3-39.837-22.146-53.467z" fill="#F5F5F5"/><path d="M3861.389 5397.077c-69.577 0-69.691 108.127 0 108.127 69.572 0 69.686-108.127 0-108.127z" fill="#F5F5F5"/><path d="M3804.703 5119.874c-13.276-13.276-35.679-20.698-54.023-14.281l-5.331 1.866c-11.284 3.947-20.434 9.621-27.836 19.204-6.986 9.04-12.032 20.733-11.507 32.471.428 9.515 2.865 18.63 7.317 27.049 6.541 12.381 19.326 20.185 32.026 24.629 1.775.622 3.556 1.243 5.331 1.863 17.751 6.21 41.466-.602 54.023-14.278 9.971-10.864 16.261-24.218 16.261-39.263 0-14.235-6.193-29.192-16.261-39.26z" fill="#F5F5F5"/><path d="M3432.941 5482.148c-17.294-15.877-38.556-25.893-62.505-25.893-22.665 0-46.478 9.861-62.511 25.893-8.619 8.008-14.714 17.49-18.276 28.45-5.537 10.534-8.076 21.888-7.614 34.058 1.022 22.863 8.533 46.575 25.89 62.509 17.294 15.877 38.556 25.892 62.511 25.892 22.665 0 46.478-9.86 62.505-25.892 8.624-8.007 14.714-17.49 18.282-28.449 5.531-10.537 8.071-21.889 7.614-34.061-1.027-22.862-8.533-46.573-25.896-62.507z" fill="#F5F5F5"/><path d="M3050.925 5093.642c-78.978 0-79.109 122.739 0 122.739 78.977-.001 79.108-122.739 0-122.739z" fill="#F5F5F5"/><path d="M2878.341 5562.451c-.16-.618-.314-1.237-.474-1.856-6.524-25.522-29.771-51.235-56.404-56.405-.634-.121-1.261-.244-1.889-.367-14.092-3.787-28.185-3.787-42.277 0-13.476 3.778-25.171 10.596-35.091 20.451-9.857 9.923-16.678 21.619-20.451 35.091-3.79 14.092-3.79 28.186 0 42.28l.365 1.887c5.166 26.632 30.885 49.882 56.404 56.405l1.855.475c27.682 7.075 57.123-.12 77.482-20.479 20.36-20.364 27.558-49.798 20.48-77.482z" fill="#F5F5F5"/><path d="M2534.487 4909.69c-12.352-11.343-27.54-18.498-44.651-18.498-16.193 0-33.202 7.046-44.651 18.498-10.953 10.952-19.206 28.922-18.499 44.653.73 16.333 6.096 33.271 18.499 44.654 12.352 11.343 27.54 18.496 44.651 18.496 16.193 0 33.202-7.043 44.651-18.496 10.953-10.953 19.206-28.924 18.499-44.654-.731-16.332-6.097-33.271-18.499-44.653z" fill="#F5F5F5"/><path d="M2302.805 5370.046c-74.274 0-74.4 115.432 0 115.432 74.275 0 74.4-115.432 0-115.432z" fill="#F5F5F5"/><path d="M2692.453 5126.761c-86.5 0-86.643 134.428 0 134.428 86.494-.001 86.637-134.428 0-134.428z" fill="#F5F5F5"/><path d="M2339.957 4502.219c-12.437-11.416-27.722-18.616-44.942-18.616-16.301 0-33.419 7.09-44.948 18.616-15.194 15.197-23.693 40.841-16.347 61.842l1.866 5.33c4.543 12.979 11.067 23.497 22.083 32.012 10.399 8.031 23.847 13.837 37.345 13.232 10.936-.49 21.421-3.298 31.101-8.414 14.241-7.523 23.213-22.228 28.322-36.831l1.866-5.33c7.107-20.319-.69-47.469-16.346-61.841z" fill="#F5F5F5"/><path d="M1733.925 4760.007c-107.185 0-107.362 166.573 0 166.573 107.179.001 107.356-166.573 0-166.573z" fill="#F5F5F5"/><path d="M2115.775 4984.785c-98.72 0-98.886 153.423 0 153.423 98.721 0 98.886-153.423 0-153.423z" fill="#F5F5F5"/><path d="M2013.773 4555.649c-11.25-11.254-26.729-14.521-41.934-11.085l-5.502 1.244c-17.14 3.873-31.489 22.714-30.702 40.321.799 17.833 12.312 36.167 30.702 40.321 1.832.415 3.664.829 5.502 1.243 27.146 6.135 54.56-12.754 54.56-41.564 0-11.053-4.806-22.663-12.626-30.48z" fill="#F5F5F5"/><path d="M1266.35 4999.152c-90.261 0-90.41 140.272 0 140.272 90.256.001 90.404-140.272 0-140.272z" fill="#F5F5F5"/><path d="M1687.167 5061.982c-99.662 0-99.828 154.884 0 154.884 99.657.001 99.822-154.884 0-154.884z" fill="#F5F5F5"/><path d="M1936.537 5417.778c-93.075 0-93.23 144.656 0 144.656 93.081 0 93.235-144.656 0-144.656z" fill="#F5F5F5"/><path d="M4594.646 5208.834c-15.291-14.04-34.092-22.896-55.273-22.896-20.045 0-41.101 8.722-55.279 22.896-13.556 13.559-23.767 35.805-22.894 55.276.902 20.218 7.545 41.187 22.894 55.276 15.296 14.041 34.098 22.896 55.279 22.896 20.04 0 41.102-8.718 55.273-22.896 13.562-13.558 23.773-35.802 22.899-55.276-.907-20.216-7.551-41.183-22.899-55.276z" fill="#F5F5F5"/><path d="M4180.895 5437.503c-97.779 0-97.938 151.962 0 151.962 97.784 0 97.944-151.962 0-151.962z" fill="#F5F5F5"/><path d="M4227.652 5200.307c-62.048 0-62.151 96.438 0 96.438 62.055 0 62.158-96.438 0-96.438z" fill="#F5F5F5"/><path d="M4095.177 4730.541c-64.874 0-64.982 100.821 0 100.821 64.874 0 64.976-100.821 0-100.821z" fill="#F5F5F5"/><path d="M2333.975 5654.244c-99.656 0-99.822 154.884 0 154.884 99.662-.001 99.828-154.884 0-154.884z" fill="#F5F5F5"/><path d="M3689.942 5694.669c-67.693 0-67.802 105.205 0 105.205 67.699 0 67.807-105.205 0-105.205z" fill="#F5F5F5"/><path d="M3089.623 5794.293c-12.859-11.81-28.676-19.259-46.489-19.259-16.861 0-34.572 7.335-46.495 19.259-11.404 11.404-19.994 30.114-19.258 46.493.759 17.005 6.347 34.642 19.258 46.494 12.865 11.811 28.676 19.259 46.495 19.259 16.855 0 34.572-7.334 46.489-19.259 11.41-11.404 19.994-30.114 19.263-46.494-.764-17.004-6.352-34.64-19.263-46.493z" fill="#F5F5F5"/><path d="M2561.256 4654.978c-13.293-12.203-29.634-19.9-48.042-19.9-17.42 0-35.724 7.579-48.042 19.9-11.786 11.784-20.662 31.119-19.903 48.044.788 17.572 6.558 35.797 19.903 48.044 13.293 12.203 29.635 19.9 48.042 19.9 17.42 0 35.725-7.579 48.042-19.9 11.786-11.785 20.662-31.119 19.903-48.044-.788-17.572-6.559-35.796-19.903-48.044z" fill="#F5F5F5"/><path d="M2194.051 4725.662c-5.103-9.655-17.751-19.764-28.556-21.959l-5.536-1.125c-16.855-3.424-35.365-.764-47.625 12.588-8.79 9.577-14.338 21.35-14.338 34.612 0 12.551 5.462 25.736 14.338 34.612 12.985 12.986 30.171 16.134 47.625 12.588l5.536-1.124 11.416-4.817c5.565-3.003 10.034-7.105 13.407-12.308 6.221-8.059 10.725-18.485 10.257-28.952-.383-8.48-2.557-16.608-6.524-24.115z" fill="#F5F5F5"/><path d="M3393.815 5073.186c-75.216 0-75.342 116.894 0 116.894 75.216-.001 75.336-116.894 0-116.894z" fill="#F5F5F5"/></g><metadata><rdf:RDF xmlns:rdf="http://www.w3.org/1999/02/22-rdf-syntax-ns#" xmlns:rdfs="http://www.w3.org/2000/01/rdf-schema#" xmlns:dc="http://purl.org/dc/elements/1.1/"><rdf:Description about="https://iconscout.com/legal#licenses" dc:title="-journalist" dc:description="-journalist" dc:publisher="Iconscout" dc:date="2018-02-21" dc:format="image/svg+xml" dc:language="en"><dc:creator><rdf:Bag><rdf:li>Sooodesign .</rdf:li></rdf:Bag></dc:creator></rdf:Description></rdf:RDF></metadata></svg>