<?xml version="1.0" encoding="UTF-8"?><svg xmlns="http://www.w3.org/2000/svg" xmlns:xlink="http://www.w3.org/1999/xlink" version="1.1" x="0px" y="0px" viewBox="0 0 5984.956 5984.956" xml:space="preserve"><g id="_x32_1-Hair_Stylist"><circle cx="2992.478" cy="2992.478" r="2992.478" fill="#553999"/><path d="M2908.15 3473.606c-5.925-90.028-83.332-130.629-150.904-120.204-6.392-3.913-13.027-7.684-20.212-11.22-30.112-14.819-59.103-31.691-87.896-48.845-57.992-34.552-115.421-73.45-170.234-112.814-108.545-77.951-207.046-170.208-294.681-272.63-198.024-231.431-331.319-509.518-477.089-774.435-39.626-72.015-113.189-89.808-177.846-71.767-29.858-9.688-62.9-4.802-81.517 21.137-41.648-19.799-97.759-9.421-130.529 36.064-55.425 76.928-82.349 184.932-102.319 276.501-22.54 103.354-34.31 209.115-37.99 314.761-7.137 204.937 14.632 407.968 42.592 610.667 56.812 411.86 151.858 819.133 234.984 1226.298 23.24 113.834 43.798 228.63 70.164 341.781 22.498 96.55 66.6 238.792 150.915 309.747 12.115 49.021 43.899 91.567 89.64 116.824 92.768 51.222 217.69 13.82 314.915-7.399 96.586-21.078 191.457-49.979 282.351-88.932 167.93-71.965 342.347-167.272 437.645-328.087 22.894-16.087 40.137-39.038 44.386-67.816 34.808-235.791 40.874-473.795 43.999-712.07 27.988-210.939 33.615-424.99 19.626-637.561z" fill="#039BE5"/><path d="M2992.478 5984.956c761.527 0 1456.468-284.614 1984.664-753.067-287.451-255.145-677.404-546.021-959.133-645.026-12.437-4.371-24.306-4.935-35.228-2.686-4.928-.594-9.966-.85-15.051-.904 5.565-180.398 10.528-360.817 15.793-541.229 9.632-330.051 21.241-660.502 22.58-990.69.377-92.979.742-185.956 1.301-278.932.582-95.925 12.877-198.682-17.834-290.849-20.077-60.26-80.476-70.844-122.279-42.33-14.923-.283-30.188 3.635-44.5 12.93-55.231 35.869-94.363 84.05-137.29 133.177-40.913 46.823-82.288 93.326-123.783 139.637-85.15 95.037-174.761 185.547-266.952 273.721-90.15 86.221-183.169 169.242-279.943 247.982-84.217 68.524-199.476 165.244-198.651 285.031-.993 1.692-1.955 3.42-2.754 5.308-23.798 56.182-18.268 109.438-15.117 169.075 3.091 58.504 8.693 116.794 10.713 175.381 3.961 114.778-.391 229.484-9.572 343.906-4.141 51.604-9.983 103.007-17.3 154.174-190.215-61.801-398.774-48.13-592.214-8.572-196.619 40.207-387.513 109.404-568.447 195.627-63.378 30.205-125.233 63.293-185.549 98.941-35.105 17.792-69.819 36.297-104.031 55.621-64.263 36.299-311.064 227.208-474.801 367.456 543.004 553.097 1299.055 896.318 2135.378 896.318z" fill="#F4C5A2"/><path d="M3801.972 4408.469c55.998 29.806 112.036 59.574 168.303 88.872 4.538-151.761 8.818-303.531 13.248-455.297 9.629-330.051 21.238-660.502 22.58-990.69.377-92.979.742-185.956 1.301-278.932.377-61.665 5.531-126.145 1.05-188.828-28.824-48.809-87.117-54.864-129.011-26.287-16.952-.322-34.292 4.13-50.553 14.689-62.745 40.75-107.196 95.485-155.969 151.296-46.478 53.194-93.487 106.023-140.621 158.635-96.74 107.968-198.542 210.792-303.273 310.961-102.419 97.952-208.091 192.268-318.027 281.72-34.229 27.849-72.91 59.857-108.503 95.637-10.736 44.381-6.718 88.071-4.195 135.858 2.363 44.7 6.164 89.277 8.739 133.954 170.084 111.563 340.441 222.67 517.403 323.145 155.877 88.506 319.419 161.113 477.528 245.267z" fill="#E5AC85"/><path d="M4368.802 2080.455c-26.205-114.254-133.481-194.279-245.46-212.621-75.831-12.423-150.179-.893-221.129 23.44 11.583-185.27 27.814-370.188 43.084-555.228 2.892-35.045-28.256-74.429-62.291-81.818-322.571-70.034-649.886-114.381-979.976-125.381-163.894-5.462-328.063-3.141-491.731 7.073-161.29 10.068-337.629 18.176-489.563 74.045-47.926 17.626-59.359 70.722-37.489 104.766-77.92 93.184-125.287 214.82-168.987 325.355-54.385 137.561-96.919 278.897-128.416 423.421-62.656 287.497-109.211 612.778 5.777 893.333 18.945 46.222 41.271 90.078 66.564 131.601 111.447 231.664 307.827 399.63 545.383 498.722 274.051 114.313 577.909 119.062 868.281 80.081 140.322-18.838 276.567-47.83 405.559-108.011 125.408-58.51 231.128-154.015 307.066-269.281 159.918-242.741 173.043-541.073 164.813-824.613 93.228-.438 187.302-13.318 266.771-63.274 107.365-67.489 181.251-192.951 151.744-321.61z" fill="#F4C5A2"/><path d="M2053.543 2226.279c-15.691-18.526-45.391-24.109-67.835-17.929-25.617 7.054-39.148 25.395-48.695 48.696-24.625 60.1 10.293 202.234 98.175 178.083 87.849-24.141 62.079-157.225 18.355-208.85z" fill="#5A4A42"/><path d="M2994.299 2226.279c15.691-18.526 45.391-24.109 67.835-17.929 25.617 7.054 39.148 25.395 48.695 48.696 24.625 60.1-10.293 202.234-98.175 178.083-87.849-24.141-62.079-157.225-18.355-208.85z" fill="#5A4A42"/><path d="M2701.428 2976.864c-2.858-10.702-13.984-16.189-24.389-13.848-76.928 17.324-122.484 87.076-208.641 80.212-84.578-6.739-124.869-79.643-195.903-112.518-13.117-6.071-25.652-.939-30.789 12.526-45.75 119.912 123.819 208.579 219.754 213.729 91.541 4.912 272.133-59.687 239.968-180.101z" fill="#5A4A42"/><path d="M2516.438 2706.715c-25.297-25.73-58.519-18.543-90.027-29.462-41.902-14.521-21.713-51.159-10.392-82.538l41.161-114.096c12.866-35.658 30.396-73.704 20.309-112.018-3.875-14.719-22.87-23.473-36.143-14.705-43.462 28.711-57.446 90.317-76.023 136.245-20.313 50.221-56.449 109.995-54.714 165.377 1.474 47.061 35.771 84.366 77.904 101.174 42.249 16.854 103.9 17.365 131.185-24.708 5.034-7.763 3.011-18.891-3.26-25.269z" fill="#5A4A42"/><path d="M3478.106 2761.299c-6.056-144.882-178.425-172.514-291.231-159.499-44.518 5.136-105.057 18.349-158.364 42.587-9.964 3.602-19.878 7.381-29.695 11.492-56.643 23.726-127.269 59.317-131.073 129.372-3.961 72.931 51.702 110.5 120.99 129.457 65.994 31.819 158.477 29.15 223.225 16.718 107.761-5.641 271.917-32.157 266.148-170.127z" fill="#ED896F"/><path d="M2987.568 2029.217c33.803 24.808 82.406 23.432 122.302 33.343 50.763 12.61 100.604 27.174 148.861 47.498 19.221 8.094 30.501-18.327 13.377-28.77-43.746-26.677-89.595-50.906-138.805-65.768-41.225-12.451-98.869-34.023-140.476-15.394-10.921 4.89-16.547 20.807-5.259 29.091z" fill="#5A4A42"/><path d="M2089.674 1999.978c-33.803 24.808-82.406 23.432-122.302 33.343-50.763 12.61-100.604 27.174-148.861 47.498-19.222 8.094-30.501-18.327-13.377-28.77 43.746-26.677 89.595-50.906 138.805-65.768 41.225-12.451 98.869-34.023 140.475-15.394 10.922 4.89 16.548 20.807 5.26 29.091z" fill="#5A4A42"/><path d="M1430.231 5545.029c454.726 278.978 989.651 439.927 1562.247 439.927 338.813 0 664.386-56.466 968.017-160.267 16.97-131.969 33.74-263.958 50.044-396.014l55.581-450.184c14.037-113.688 39.464-238.46 38.121-356.942-29.649-13.259-58.482-24.934-86.232-34.687-12.437-4.371-24.306-4.936-35.228-2.686-4.928-.595-9.966-.85-15.051-.904.726-23.523 1.382-47.047 2.089-70.572-.26 1.781-.527 3.559-.538 5.424-.874 157.237-156.487 188.995-284.374 207.683-139.384 20.37-284.19 20.752-421.771-11.468-115.682-27.088-225.996-77.985-315.226-157.418-43.005-38.285-80.996-81.329-111.169-130.457-17.199-28.003-28.399-67.056-48.37-95.58-2.013 16.236-3.913 32.49-6.228 48.681-58.864-19.126-119.488-30.99-180.873-37.128-81.625 106.717-150.819 224.016-233.179 330.16-99.296 127.974-204.81 250.164-317.931 366.146-110.811 113.615-228.886 220.23-353.51 318.511-64.589 50.937-131.196 99.525-199.069 145.988-19.967 13.67-43.579 27.241-67.35 41.787z" fill="#EF401D"/><path d="M4724.912 2495.323c-9.835-176.85-22.392-354.267-43.756-530.391-18.839-122.305-44.113-243.57-77.532-361.724-51.706-154.164-116.579-303.914-196.444-447.078-130.632-234.168-328.255-470.531-582.265-572.285a28.046 28.046 0 0 0-6.585-1.743c-145.6-20.127-296.443-14.948-443.111-14.548-1.388.004-2.742.161-4.107.411-10.972 2.012-23.247 1.287-36.635-3.122-234.442-77.189-476.012-123.943-723.546-119.806-138.205 2.31-269.566 29.833-395.618 73.709-.833.29-1.653.617-2.457.98-18.596 8.383-37.127 16.915-55.538 25.706-.988.472-1.953 1-2.882 1.579-558.988 348.168-841.449 1004.188-929.78 1635.053-18.55 132.489-45.817 288.965-48.892 430.748-.583 26.911 35.53 36.212 48.386 12.563 6.37-11.718 11.769-22.131 14.817-29.711 54.481-135.481 158.254-239.783 273.113-326.603 240.331-181.662 554.262-268.242 843.849-335.031 225.765-52.071 478-89.956 684.988-205.288a28.536 28.536 0 0 0 3.61-2.392c77.497-60.284 149.265-122.054 204.906-171.826 9.863-8.822 25.465-4.395 29.303 8.269l.508 1.678c34.091 112.486 99.031 214.057 190.131 288.328 104.801 85.44 225.117 125.987 359.578 131.365 123.149 4.926 261.749-29.643 380.064 15.609 82.213 31.445 125.084 114.83 120.135 200.721-5.987 103.857-84.234 148.646-165.734 197.184-13.111 7.807-196.146 45.271-258.594 62.145-11.754 3.176-19.51 14.287-18.74 26.437 1.678 26.445 3.028 52.617 4.183 78.643a25.142 25.142 0 0 1-1.845 10.588c-57.624 142.098-77.26 303.546-104.923 452.702-31.748 171.179-66.615 342.011-95.595 513.676-58.751 348.012-114.317 697.635-162.635 1047.226l-33.553 242.764c-13.223 95.668-33.038 192.702-34.382 289.493a547.403 547.403 0 0 0-.002 15.108c1.71 125.252 95.109 230.469 219.645 243.95 2.34.253 4.686.492 7.037.716 1.561.149 3.136.177 4.701.081 28.122-1.731 56.725-5.828 85.581-11.75 15.948-3.274 32.242-7.146 48.659-11.577a27.772 27.772 0 0 0 5.766-2.271c75.131-39.809 149.419-90.712 205.698-152.787a27.324 27.324 0 0 0 4.136-6.039c18.964-37.498 37.05-75.267 54.339-112.907 212.359-462.355 389.256-949.701 512.183-1443.49 32.919-132.236 60.493-265.15 82.598-398.653.096-.583.176-1.168.239-1.756 18.035-168.742 30.447-338.069 35.618-507.713 2.069-67.892 3.162-136.295 3.065-204.96 0-.494-.015-.989-.042-1.482-.558-10.164-1.077-20.333-1.643-30.499z" fill="#4FC3F7"/><path d="M4726.557 2525.822c-.56-10.165-1.079-20.333-1.645-30.499-9.835-176.85-22.392-354.267-43.756-530.391-18.839-122.305-44.113-243.57-77.532-361.724-51.706-154.164-116.579-303.914-196.444-447.078-130.632-234.168-328.255-470.531-582.265-572.284a27.951 27.951 0 0 0-6.585-1.744c-145.6-20.128-296.443-14.948-443.111-14.549-1.387.004-2.742.161-4.107.411-10.972 2.012-23.248 1.287-36.635-3.121-234.442-77.189-476.012-123.943-723.546-119.806-138.205 2.309-269.566 29.833-395.618 73.709a29.7 29.7 0 0 0-2.457.979c-18.596 8.383-37.128 16.915-55.539 25.706-.988.472-1.953 1-2.882 1.58-148.298 92.368-276.947 206.565-387.858 336.049 15.083 4.341 30.273 8.322 45.791 11.587 12.924 2.72 26.402 4.164 39.467 6.658 68.465 6.29 137.435 6.403 206.054 2.737 35.303-1.885 70.553-4.816 105.704-8.59 10.051-1.079 20.088-2.367 30.126-3.627 2.586-.371 5.171-.759 7.751-1.159 126.276-19.505 249.866-52.292 376.372-70.561 156.739-22.637 313.721-37.511 472.224-30.973 292.181 12.049 603.369 77.481 846.282 248.794 278.522 196.426 442.799 481.794 488.032 818.42 62.33 463.865-86.043 920.58-176.633 1370.501-77.594 385.375-175.249 767.032-298.326 1140.462-105.996 321.607-230.332 638.577-377.909 943.669 38.147 37.727 88.47 63.261 145.466 69.431 2.34.253 4.686.491 7.037.716 1.561.148 3.136.177 4.701.08 28.122-1.729 56.725-5.828 85.581-11.749 15.948-3.273 32.242-7.146 48.659-11.577a27.884 27.884 0 0 0 5.766-2.271c75.131-39.81 149.419-90.712 205.698-152.788a27.3 27.3 0 0 0 4.136-6.039c18.965-37.498 37.05-75.266 54.339-112.907 212.359-462.355 389.256-949.701 512.183-1443.49 32.919-132.236 60.493-265.151 82.597-398.654.097-.582.176-1.167.239-1.755 18.036-168.742 30.448-338.069 35.618-507.713 2.07-67.892 3.162-136.296 3.065-204.961.001-.49-.013-.985-.04-1.479z" fill="#29B6F6"/><path d="M1965.477 2679.971c-89.684-58.835-266.17-141.4-363.161-52.033-114.193 105.218 57.547 236.989 149.623 268.836 69.129 23.908 304.378 65.939 319.124-48.296 5.58-10.801 8.386-23.646 7.566-37.769-3.571-61.464-67.02-100.475-113.152-130.738z" fill="#ED896F"/></g><metadata><rdf:RDF xmlns:rdf="http://www.w3.org/1999/02/22-rdf-syntax-ns#" xmlns:rdfs="http://www.w3.org/2000/01/rdf-schema#" xmlns:dc="http://purl.org/dc/elements/1.1/"><rdf:Description about="https://iconscout.com/legal#licenses" dc:title="-hair,stylist" dc:description="-hair,stylist" dc:publisher="Iconscout" dc:date="2018-02-21" dc:format="image/svg+xml" dc:language="en"><dc:creator><rdf:Bag><rdf:li>Sooodesign .</rdf:li></rdf:Bag></dc:creator></rdf:Description></rdf:RDF></metadata></svg>