<?xml version="1.0" encoding="UTF-8"?><svg xmlns="http://www.w3.org/2000/svg" xmlns:xlink="http://www.w3.org/1999/xlink" version="1.1" x="0px" y="0px" viewBox="0 0 5984.956 5984.956" xml:space="preserve"><g id="_x33_1-Mother"><circle cx="2992.478" cy="2992.478" r="2992.478" fill="#553999"/><path d="M5525.839 3662.471c-53.679-120.57-155.536-203.188-273.977-256.244-107.337-48.082-231.903-78.093-317.553-163.332-32.646-32.488-59.214-72.685-54.647-120.766 5.98-62.97 43.824-120.427 58.238-181.642 33.834-143.694-21.224-281.464-117.755-387.924-99.082-109.274-231.824-168.566-366.475-221.266-125.602-49.159-268.971-95.008-357.121-203.625-64.012-78.875-109.673-217.803-37.896-305.507 34.992-42.756-11.841-122.868-64.74-83.907a310.366 310.366 0 0 0-33.738 28.804c-11.652-14.228-28.138-26.661-50.15-35.789-278.962-115.684-605.972-112.106-886.979-4.422-145.406 55.719-279.279 134.79-394.827 239.621-110.524 100.27-194.422 224.591-268.76 353.005-73.9 127.66-139.632 262.419-230.708 379.201-39.805 51.041-86.223 100.413-138.671 138.597-60.512 44.058-129.419 70.741-197.025 101.474-152.109 69.143-260.538 188.534-244.253 365.458 7.787 84.588 37.348 165.954 43.756 250.351 6.378 84.017-27.202 152.358-75.028 219.338-110.412 154.633-271.484 280.916-281.985 485.896-7.87 153.646 98.827 292.879 241.698 319.209 87.025 205.149 270.793 346.178 478.156 425.235 280.695 107.011 587.851 76.495 880.823 61.44 588.2-30.225 1203.88 91.737 1777.336-85.812 440.459-136.369 884.584-464.173 954.699-949.559 18.034-124.846 9.326-251.611-42.418-367.834z" fill="#F9A825"/><path d="M3581.861 2050.745c-12.416-121.904 3.978-268.402 56.655-393.26-206.491-29.577-421.895-4.814-615.47 69.366-145.406 55.719-279.279 134.79-394.827 239.621-110.524 100.27-194.422 224.591-268.76 353.005-73.9 127.66-139.632 262.419-230.708 379.201-38.148 48.918-82.433 96.189-132.216 133.66-.822 2.537-1.599 5.083-2.535 7.594-19.284 51.778-36.532 104.226-49.11 158.066-4.621 19.783-6.167 41.929-11.212 61.963-.563 8.499-1.278 16.989-1.632 25.508a716.636 716.636 0 0 0-.111 56.378c.206 5.528 1.367 19.027 2.365 30.719 1.847 10.402 4.164 23.95 5.292 28.907 4.449 19.557 9.732 38.944 15.69 58.096 5.701 18.322 12.518 36.201 18.979 54.252 14.359 30.251 28.976 60.288 44.784 89.822 37.031 69.186 77.619 136.4 117.527 203.945 56.784 96.106 109.403 190.352 148.566 295.519 37.682 101.189 54.728 206.35 67.182 313.227 19.725 169.288 2.883 339.166.852 508.861-.564 47.174.019 94.388 2.958 141.485 1.045 16.743 2.594 33.424 4.101 50.122 1.054 7.117 2.721 19.035 3.548 23.584 8.378 46.107 19.787 91.6 34.48 136.103.319.967.868 2.548 1.524 4.415 145.697 3.219 292.772-7.842 436.44-15.226 195.898-10.065 394.848-3.25 594.268 3.759-64.99-470.269-31.052-954.795 17.119-1424.896 25.581-249.643 57.579-499.478 103.987-746.176 29.928-159.096 62.569-325.667 138.432-470.443 2.996-5.716 6.206-11.159 9.517-16.465-60.995-110.039-104.167-227.997-117.685-360.712z" fill="#F57F17"/><path d="M5525.839 3662.471c-53.679-120.57-155.536-203.188-273.977-256.244-107.337-48.082-231.903-78.093-317.553-163.332-32.646-32.488-59.214-72.685-54.647-120.766 5.98-62.97 43.824-120.427 58.238-181.642 33.834-143.694-21.224-281.464-117.755-387.924-99.082-109.274-231.824-168.566-366.475-221.266-90.814-35.543-190.818-69.484-272.621-126.544 10.404 16.361 21.271 32.421 32.471 48.246 4.111 5.811 8.356 11.528 12.578 17.264 118.476 131.023 227.465 276.724 318.116 427.958 76.637 127.855 94.1 261.57 85.07 407.884-2.825 45.761-7.515 91.52-8.514 137.362-.931 42.725 7.4 86.643 6.515 129.025 1.342 7.352 2.643 14.709 4.153 22.032 4.448 21.575 9.577 43.022 15.319 64.289 9.791 36.258 21.414 72.014 34.246 107.308 7.217 19.846 14.852 39.546 22.744 59.135 2.86 7.1 6.465 14.557 9.398 21.983 13.043 29.552 26.104 59.094 39.122 88.658 38.973 88.503 78.289 177.461 108.598 269.392 58.753 178.206 73.703 355.944 46.855 540.234-17.866 122.644-51.232 244.107-97.857 360.456 368.445-164 698.753-462.774 758.396-875.669 18.032-124.851 9.324-251.616-42.42-367.839z" fill="#F57F17"/><path d="M2992.478 5984.956c761.527 0 1456.468-284.614 1984.664-753.067-287.451-255.145-677.404-546.021-959.133-645.026-12.437-4.371-24.306-4.935-35.228-2.686-4.928-.594-9.966-.85-15.051-.904 5.565-180.398 10.528-360.817 15.793-541.229 9.632-330.051 21.241-660.502 22.58-990.69.377-92.979.742-185.956 1.301-278.932.582-95.925 12.877-198.682-17.834-290.849-20.077-60.26-80.476-70.844-122.279-42.33-14.923-.283-30.188 3.635-44.5 12.93-55.231 35.869-94.363 84.05-137.29 133.177-40.913 46.823-82.288 93.326-123.783 139.637-85.15 95.037-174.761 185.547-266.952 273.721-90.15 86.221-183.169 169.242-279.943 247.982-84.217 68.524-199.476 165.244-198.651 285.031-.993 1.692-1.955 3.42-2.754 5.308-23.798 56.182-18.268 109.438-15.117 169.075 3.091 58.504 8.693 116.794 10.713 175.381 3.961 114.778-.391 229.484-9.572 343.906-4.141 51.604-9.983 103.007-17.3 154.174-190.215-61.801-398.774-48.13-592.214-8.572-196.619 40.207-387.513 109.404-568.447 195.627-63.378 30.205-125.233 63.293-185.549 98.941-35.105 17.792-69.819 36.297-104.031 55.621-64.263 36.299-311.064 227.208-474.801 367.456 543.004 553.097 1299.055 896.318 2135.378 896.318z" fill="#F4C5A2"/><path d="M4266.16 4704.851c-41.127 56.977-85.142 111.782-131.014 164.167-195.11 222.817-450.626 401.608-732.525 494.695-128.873 42.557-273.383 63.253-408.522 47.471-125.285-14.632-216.335-38.119-331.331-90.008-77.523-34.979-142.506-84.793-208.458-138.734-233.605-191.071-348.638-485.868-388.873-781.935-152.777 40.941-301.463 98.209-443.954 166.114-63.378 30.205-125.233 63.292-185.549 98.94-35.105 17.794-69.819 36.298-104.031 55.622-64.263 36.298-311.064 227.207-474.801 367.456 543.002 553.096 1299.052 896.317 2135.376 896.317 761.527 0 1456.468-284.614 1984.664-753.068-209.723-186.151-473.973-391.237-710.982-527.037z" fill="#2BAFB2"/><path d="M3787.521 4384.226c60.958 32.445 121.919 64.917 183.24 96.664 4.352-146.278 8.493-292.563 12.762-438.846 9.632-330.051 21.241-660.502 22.58-990.69.377-92.979.742-185.956 1.301-278.932.268-44.145 2.979-89.733 2.877-135.074-2.617-11.039-5.582-21.997-9.181-32.799-22.511-67.571-90.236-79.438-137.113-47.464-16.732-.318-33.85 4.076-49.9 14.498-61.928 40.221-105.806 94.246-153.942 149.333-45.878 52.504-92.271 104.647-138.8 156.576-95.478 106.566-195.959 208.056-299.334 306.926-101.089 96.681-205.389 189.773-313.904 278.065-31.31 25.475-66.415 54.466-99.36 86.683-18.299 51.773-13.367 101.611-10.445 156.938 2.069 39.183 5.211 78.273 7.703 117.418 167.707 110.004 335.693 219.549 510.183 318.621 153.856 87.357 315.278 159.022 471.333 242.083z" fill="#E5AC85"/><path d="M4368.802 2080.455c-26.205-114.254-133.481-194.279-245.46-212.621-75.831-12.423-150.179-.893-221.129 23.44 11.583-185.27 27.814-370.188 43.084-555.228 2.892-35.045-28.256-74.429-62.291-81.818-322.571-70.034-649.886-114.381-979.976-125.381-163.894-5.462-328.063-3.141-491.731 7.073-161.29 10.068-337.629 18.176-489.563 74.045-47.926 17.626-59.359 70.722-37.489 104.766-77.92 93.184-125.287 214.82-168.987 325.355-54.385 137.561-96.919 278.897-128.416 423.421-62.656 287.497-109.211 612.778 5.777 893.333 18.945 46.222 41.271 90.078 66.564 131.601 111.447 231.664 307.827 399.63 545.383 498.722 274.051 114.313 577.909 119.062 868.281 80.081 140.322-18.838 276.567-47.83 405.559-108.011 125.408-58.51 231.128-154.015 307.066-269.281 159.918-242.741 173.043-541.073 164.813-824.613 93.228-.438 187.302-13.318 266.771-63.274 107.365-67.489 181.251-192.951 151.744-321.61z" fill="#F4C5A2"/><path d="M2053.543 2226.279c-15.691-18.526-45.391-24.109-67.835-17.929-25.617 7.054-39.148 25.395-48.695 48.696-24.625 60.1 10.293 202.234 98.175 178.083 87.849-24.141 62.079-157.225 18.355-208.85z" fill="#5A4A42"/><path d="M2994.299 2226.279c15.691-18.526 45.391-24.109 67.835-17.929 25.617 7.054 39.148 25.395 48.695 48.696 24.625 60.1-10.293 202.234-98.175 178.083-87.849-24.141-62.079-157.225-18.355-208.85z" fill="#5A4A42"/><path d="M2701.428 2976.864c-2.858-10.702-13.984-16.189-24.389-13.848-76.928 17.324-122.484 87.076-208.641 80.212-84.578-6.739-124.869-79.643-195.903-112.518-13.117-6.071-25.652-.939-30.789 12.526-45.75 119.912 123.819 208.579 219.754 213.729 91.541 4.912 272.133-59.687 239.968-180.101z" fill="#5A4A42"/><path d="M2516.438 2706.715c-25.297-25.73-58.519-18.543-90.027-29.462-41.902-14.521-21.713-51.159-10.392-82.538l41.161-114.096c12.866-35.658 30.396-73.704 20.309-112.018-3.875-14.719-22.87-23.473-36.143-14.705-43.462 28.711-57.446 90.317-76.023 136.245-20.313 50.221-56.449 109.995-54.714 165.377 1.474 47.061 35.771 84.366 77.904 101.174 42.249 16.854 103.9 17.365 131.185-24.708 5.034-7.763 3.011-18.891-3.26-25.269z" fill="#5A4A42"/><path d="M3478.106 2761.299c-6.056-144.882-178.425-172.514-291.231-159.499-44.518 5.136-105.057 18.349-158.364 42.587-9.964 3.602-19.878 7.381-29.695 11.492-56.643 23.726-127.269 59.317-131.073 129.372-3.961 72.931 51.702 110.5 120.99 129.457 65.994 31.819 158.477 29.15 223.225 16.718 107.761-5.641 271.917-32.157 266.148-170.127z" fill="#ED896F"/><path d="M2987.568 2029.217c33.803 24.808 82.406 23.432 122.302 33.343 50.763 12.61 100.604 27.174 148.861 47.498 19.221 8.094 30.501-18.327 13.377-28.77-43.746-26.677-89.595-50.906-138.805-65.768-41.225-12.451-98.869-34.023-140.476-15.394-10.921 4.89-16.547 20.807-5.259 29.091z" fill="#37474F"/><path d="M2089.674 1999.978c-33.803 24.808-82.406 23.432-122.302 33.343-50.763 12.61-100.604 27.174-148.861 47.498-19.222 8.094-30.501-18.327-13.377-28.77 43.746-26.677 89.595-50.906 138.805-65.768 41.225-12.451 98.869-34.023 140.475-15.394 10.922 4.89 16.548 20.807 5.26 29.091z" fill="#37474F"/><path d="M2064.823 2802.9c-7.306-4.875-14.383-10.126-21.352-15.563-4.247-16.958-13.282-34.353-28.059-51.131-37.328-42.384-93.706-68.348-142.361-94.854-46.138-25.135-99.788-55.091-153.543-35.904-11.975 4.274-22.052 9.732-30.576 16.041-5.622 1.987-11.196 4.268-16.667 7.1a153.197 153.197 0 0 0-16.415 9.857c-17.409 2.852-34.061 9.374-49.075 21.661-34.888 28.549-47.571 78.76-21.384 117.76 6.096 9.077 13.864 16.861 22.645 23.734 41.969 76.378 168.103 107.7 258.584 114.8 63.093 10.481 127.444-1.881 185.971-30.39 14.167-6.9 22.662-23 23.921-39.371 7.312-13.994 4.583-32.879-11.689-43.74z" fill="#ED896F"/><path d="M4628.695 1683.56c-30.115-215.066-120.566-409.382-257.81-576.674-267.38-325.924-695.835-500.594-1113.777-479.343-39.771 2.022-79.59 5.651-119.289 10.573-73.019 5.034-146.066 16.35-216.315 35.535-55.121 15.054-128.36 34.894-180.973 72.319-1.066.531-2.124 1.076-3.187 1.612-10.843-4.415-21.523-8.73-31.733-12.911-80.114-32.816-160.816-52.94-246.662-63.724-8.692-1.092-17.396-2.002-26.103-2.85-101.121 13.843-202.611 54.984-285.922 96.102-273.014 134.75-471.173 358.663-595.168 634.499-44.853 99.776-75.501 203.849-98.685 310.092-7.854 118.676-5.523 239.108 12.361 353.259 10.853 69.277 26.052 196.619 128.047 172.387 36.378-8.642 56.945-36.027 68.517-70.641 20.349-29.326 36.262-64.15 51.466-88.036 37.214-58.465 78.467-115.812 125.825-166.516 105.681-113.152 238.379-192.444 372.407-267.463 140.77-78.791 279.943-155.198 407.129-255.283 21.768-17.129 42.442-35.458 62.569-54.352 26.188 32.558 53.95 61.455 79.184 84.56 137.524 125.912 308.896 201.004 472.99 284.824 140.631 71.834 286.619 155.422 376.015 290.271 102.819 155.098 69.03 337.289 103.207 510.504 9.549 48.396 82.779 56.021 105.157 13.744 79.021-149.288 85.476-332.064 33.431-492.389 20.735-23.546 40.125-48.861 64.278-68.702 37.885-31.121 88.517-54.022 137.402-59.484 100.809-11.264 206.94 45.85 250.665 137.611 48.372 101.513 18.7 213.389-56.856 291.705-30.884 32.009-65.514 59.991-100.779 87.074-48.041 7.697-123.568 10.756-160.011 37.057-51.008 36.812-31.273 106.911-32.857 165.038-2.302 84.485-3.25 204.55 48.568 281.058 6.391 27.503 28.914 48.327 57.391 52.037 35.671 15.479 75.413-2.683 93.458-34.526 86.738-52.799 159.441-128.229 224.849-206.362 78.616-93.909 144.23-197.866 185.158-313.658 31.166-88.176 43.319-181.331 42.252-275.633 10.961-37.98 18.236-75.71 23.274-106.021 18.331-110.298 16.003-216.775.527-327.293z" fill="#FBC02D"/><path d="M4628.695 1683.56c-30.115-215.066-120.566-409.382-257.81-576.674-267.38-325.924-695.835-500.594-1113.777-479.343-39.771 2.022-79.59 5.651-119.289 10.573-73.019 5.034-146.066 16.35-216.315 35.535-55.121 15.054-128.36 34.894-180.973 72.319-1.066.531-2.124 1.076-3.187 1.612-10.843-4.415-21.523-8.73-31.733-12.911-80.114-32.816-160.816-52.94-246.662-63.724-8.692-1.092-17.396-2.002-26.103-2.85-101.121 13.843-202.611 54.984-285.922 96.102-241.047 118.971-423.646 307.522-548.465 539.874 265.142-182.432 589.657-293.07 904.765-342.463 351.176-55.047 712.484-44.245 1054.749 59.002 382.274 115.315 742.143 358.366 859.795 758.804 73.82 251.256 51.87 536.658-45.234 778.168-37.963 94.422-78.208 193.023-127.116 286.35 47.916-41.692 91.406-89.2 132.064-137.767 78.616-93.909 144.23-197.866 185.158-313.658 31.166-88.176 43.319-181.331 42.252-275.633 10.961-37.98 18.236-75.71 23.274-106.021 18.333-110.3 16.005-216.777.529-327.295z" fill="#F9A825"/></g><metadata><rdf:RDF xmlns:rdf="http://www.w3.org/1999/02/22-rdf-syntax-ns#" xmlns:rdfs="http://www.w3.org/2000/01/rdf-schema#" xmlns:dc="http://purl.org/dc/elements/1.1/"><rdf:Description about="https://iconscout.com/legal#licenses" dc:title="-mother" dc:description="-mother" dc:publisher="Iconscout" dc:date="2018-02-21" dc:format="image/svg+xml" dc:language="en"><dc:creator><rdf:Bag><rdf:li>Sooodesign .</rdf:li></rdf:Bag></dc:creator></rdf:Description></rdf:RDF></metadata></svg>