<?xml version="1.0" encoding="UTF-8"?><svg xmlns="http://www.w3.org/2000/svg" xmlns:xlink="http://www.w3.org/1999/xlink" version="1.1" x="0px" y="0px" viewBox="0 0 5984.956 5984.956" xml:space="preserve"><g id="_x32_0-Musician"><circle cx="2992.478" cy="2992.478" r="2992.478" fill="#00796B"/><path d="M3161.991 3213.086c-66.957-83.185-176.944-134.446-263.559-194.719-359.785-250.365-687.515-565.371-872.302-968.894-53.612-117.088-101.574-242.73-204.69-326.33-95.318-77.279-247.657-132.354-350.281-40.896-6.832 6.093-11.912 12.719-15.593 19.617-26.455.751-52.06 22.316-52.785 52.014-1.895 77.679-7.899 152.525-34.669 226.33-28.27 77.942-71.826 149.713-104.034 226.079-30.416 72.104-56.94 144.62-58.122 224.081-1.29 86.397 39.52 153.571 54.434 235.499 17.3 95.016-90.501 159.828-148.64 223.614-95.61 104.896-137.635 230.73-73.801 365.525 30.217 63.808 81.66 115.707 131.431 164.466 46.158 45.217 99.885 91.441 100.25 160.987.36 68.285-37.905 131.04-73.281 186.77-45.325 71.4-94.171 138.89-126.859 217.441-61.449 147.668-64.971 322.708-5.548 471.83 53.766 134.916 164.176 241.209 196.881 384.162 18.83 82.312 34.943 163.05 90.484 229.726 53.013 63.641 127.23 96.266 208.228 104.942 78.452 8.404 156.728-8.97 226.419-45.219 46.101-23.978 81.791-54.263 113.903-88.492 39.223-15.559 78.121-31.946 116.871-48.664 123.674-53.363 244.563-113.242 361.874-179.446 114.828-64.807 226.065-135.38 332.736-212.903 107.544-78.159 235.34-158.661 300.505-276.733.223-.402.348-.825.554-1.23 3.236-2.806 6.164-5.98 8.544-9.629 70.924-108.615 83.886-258.735 109.354-383.775 27.031-132.715 54.994-265.4 80.033-398.505 20.857-110.843 26.24-224.991-48.337-317.648z" fill="#E65100"/><path d="M2992.478 5984.956c761.527 0 1456.468-284.614 1984.664-753.067-287.451-255.145-677.404-546.021-959.133-645.026-12.437-4.371-24.306-4.935-35.228-2.686-4.928-.594-9.966-.85-15.051-.904 5.565-180.398 10.528-360.817 15.793-541.229 9.632-330.051 21.241-660.502 22.58-990.69.377-92.979.742-185.956 1.301-278.932.582-95.925 12.877-198.682-17.834-290.849-20.077-60.26-80.476-70.844-122.279-42.33-14.923-.283-30.188 3.635-44.5 12.93-55.231 35.869-94.363 84.05-137.29 133.177-40.913 46.823-82.288 93.326-123.783 139.637-85.15 95.037-174.761 185.547-266.952 273.721-90.15 86.221-183.169 169.242-279.943 247.982-84.217 68.524-199.476 165.244-198.651 285.031-.993 1.692-1.955 3.42-2.754 5.308-23.798 56.182-18.268 109.438-15.117 169.075 3.091 58.504 8.693 116.794 10.713 175.381 3.961 114.778-.391 229.484-9.572 343.906-4.141 51.604-9.983 103.007-17.3 154.174-190.215-61.801-398.774-48.13-592.214-8.572-196.619 40.207-387.513 109.404-568.447 195.627-63.378 30.205-125.233 63.293-185.549 98.941-35.105 17.792-69.819 36.297-104.031 55.621-64.263 36.299-311.064 227.208-474.801 367.456 543.004 553.097 1299.055 896.318 2135.378 896.318z" fill="#F4C5A2"/><path d="M3248.247 3968.827c137.212 77.906 281.17 141.818 420.342 215.894 60.179 32.029 120.302 64.202 180.93 95.355 1.161-40.677 2.308-81.35 3.496-122.024 9.632-330.052 21.241-660.502 22.58-990.69.378-92.979.741-185.955 1.303-278.932.581-95.925 12.875-198.682-17.834-290.849-20.077-60.26-80.475-70.844-122.28-42.33-14.922-.283-30.188 3.635-44.501 12.93-55.229 35.869-94.36 84.05-137.289 133.177-40.915 46.823-82.288 93.326-123.783 139.637-85.15 95.037-174.76 185.547-266.951 273.72-90.151 86.221-183.168 169.242-279.942 247.982-76.612 62.335-178.877 148.007-196.112 253.146 184.8 120.705 368.006 243.95 560.041 352.984z" fill="#E5AC85"/><path d="M4368.802 2080.455c-26.205-114.254-133.481-194.279-245.46-212.621-75.831-12.423-150.179-.893-221.129 23.44 11.583-185.27 27.814-370.188 43.084-555.228 2.892-35.045-28.256-74.429-62.291-81.818-322.571-70.034-649.886-114.381-979.976-125.381-163.894-5.462-328.063-3.141-491.731 7.073-161.29 10.068-337.629 18.176-489.563 74.045-47.926 17.626-59.359 70.722-37.489 104.766-77.92 93.184-125.287 214.82-168.987 325.355-54.385 137.561-96.919 278.897-128.416 423.421-62.656 287.497-109.211 612.778 5.777 893.333 18.945 46.222 41.271 90.078 66.564 131.601 111.447 231.664 307.827 399.63 545.383 498.722 274.051 114.313 577.909 119.062 868.281 80.081 140.322-18.838 276.567-47.83 405.559-108.011 125.408-58.51 231.128-154.015 307.066-269.281 159.918-242.741 173.043-541.073 164.813-824.613 93.228-.438 187.302-13.318 266.771-63.274 107.365-67.489 181.251-192.951 151.744-321.61z" fill="#F4C5A2"/><path d="M2053.543 2226.279c-15.691-18.526-45.391-24.109-67.835-17.929-25.617 7.054-39.148 25.395-48.695 48.696-24.625 60.1 10.293 202.234 98.175 178.083 87.849-24.141 62.079-157.225 18.355-208.85z" fill="#5A4A42"/><path d="M2994.299 2226.279c15.691-18.526 45.391-24.109 67.835-17.929 25.617 7.054 39.148 25.395 48.695 48.696 24.625 60.1-10.293 202.234-98.175 178.083-87.849-24.141-62.079-157.225-18.355-208.85z" fill="#5A4A42"/><path d="M2516.438 2706.715c-25.297-25.73-58.519-18.543-90.027-29.462-41.902-14.521-21.713-51.159-10.392-82.538l41.161-114.096c12.866-35.658 30.396-73.704 20.309-112.018-3.875-14.719-22.87-23.473-36.143-14.705-43.462 28.711-57.446 90.317-76.023 136.245-20.313 50.221-56.449 109.995-54.714 165.377 1.474 47.061 35.771 84.366 77.904 101.174 42.249 16.854 103.9 17.365 131.185-24.708 5.034-7.763 3.011-18.891-3.26-25.269z" fill="#5A4A42"/><path d="M3478.106 2761.299c-6.056-144.882-178.425-172.514-291.231-159.499-44.518 5.136-105.057 18.349-158.364 42.587-9.964 3.602-19.878 7.381-29.695 11.492-56.643 23.726-127.269 59.317-131.073 129.372-3.961 72.931 51.702 110.5 120.99 129.457 65.994 31.819 158.477 29.15 223.225 16.718 107.761-5.641 271.917-32.157 266.148-170.127z" fill="#ED896F"/><path d="M2987.568 2029.217c33.803 24.808 82.406 23.432 122.302 33.343 50.763 12.61 100.604 27.174 148.861 47.498 19.221 8.094 30.501-18.327 13.377-28.77-43.746-26.677-89.595-50.906-138.805-65.768-41.225-12.451-98.869-34.023-140.476-15.394-10.921 4.89-16.547 20.807-5.259 29.091z" fill="#BF360C"/><path d="M2089.674 1999.978c-33.803 24.808-82.406 23.432-122.302 33.343-50.763 12.61-100.604 27.174-148.861 47.498-19.222 8.094-30.501-18.327-13.377-28.77 43.746-26.677 89.595-50.906 138.805-65.768 41.225-12.451 98.869-34.023 140.475-15.394 10.922 4.89 16.548 20.807 5.26 29.091z" fill="#BF360C"/><path d="M1409.1 5531.834c459.259 287.047 1001.867 453.122 1583.378 453.122 367.25 0 718.93-66.36 1043.972-187.444-66.518-100.764-184.576-177.886-285.768-230.196-136.043-70.321-286.606-110.863-439.927-114.556-230.437-5.549-459.846 69.029-641.905 207.803-117.476-198.705-352.313-323.724-585.347-343.741-174.222-14.965-353.278 40.112-507.814 116.349-57.938 28.583-113.331 62.087-166.589 98.663z" fill="#AD1457"/><path d="M1743.285 2553.104c-32.437-2.441-64.046 1.564-91.774 16.448-72.625 38.984-85.05 134.389-34.589 196.401 94.896 116.62 435.178 244.633 491.21 42.141-48.218-138.187-222.605-218.462-364.847-254.99z" fill="#ED896F"/><path d="M5251.026 3871.979c-17.648-94.708-61.335-181.336-119.251-257.522-54-71.035-121.066-135.089-164.233-213.675-73.595-133.969 26.672-283.346 82.556-404.43 71.306-154.494 117.413-316.365 35.342-476.994-65.405-128.019-192.07-209.389-299.62-298.308-48.624-40.197-99.451-81.699-131.403-137.012-42.808-74.1-24.703-154.793-6.455-233.968 43.606-189.18 33.767-372.753-49.988-548.773-31.952-85.026-80.496-163.568-144.713-227.68-65.622-65.518-144.473-116.137-229.86-151.636 10.685-153.553-77.568-321.316-190.072-412.773-184.912-150.324-437.352-180.556-666.191-141.882-251.39 42.485-481.159 162.245-730.06 214.419-141.636 29.69-283.273 14.3-425.081 1.4-71.574-16.87-143.72-30.441-217.806-32.303-276.059-6.939-537.722 155.853-716.185 356.257-175.517 197.1-282.274 471.27-177.001 728.76 105.204 257.353 372.564 340.881 630.975 326.082 220.797-12.645 443.705-59.002 658.611-123.151 133.2-21.995 265.516-49.156 396.508-82.31 213.445-54.025 420.652-125.042 622.213-213.744 76.5-33.666 151.402-71.609 225.089-111.417 11.866 49.606 32.128 97.138 60.559 138.226 50.114 72.427 121.454 122.8 175.438 191.062-.73-.927 14.675 21.047 18.094 28.308.725 1.536 3.613 17.869 4.189 10.601-2.437 30.756-22.511 57.609-45.119 88.519-63.093 86.248-108.88 170.101-112.813 280.102-3.95 110.534 34.857 217.305 77.83 317.091 38.613 89.671 92.836 184.616 93.601 284.739.559 73.644-37.579 123.044-83.88 174.908-55.17 61.792-114.371 119.615-161.254 188.387-49.914 73.226-78.789 162.757-72.938 251.788 6.672 101.576 52.065 192.14 98.218 280.903 39.594 76.142 75.656 150.902 62.602 239.409-12.266 83.137-55.855 161.95-109.257 225.604-128.509 153.165-330.693 251.309-414.556 439.432-92.562 207.62-2.34 433.584 221.767 495.631 91.934 25.452 189.901 23.189 284.146 17.302 114.902-7.181 229.775-22.229 342.742-44.393 391.183-76.75 826.994-249.948 1056.198-594.649 110.521-166.217 157.667-375.813 121.058-572.31z" fill="#FF8F00"/><path d="M5251.026 3871.979c-17.648-94.708-61.335-181.336-119.251-257.522-54-71.035-121.066-135.089-164.233-213.675-73.595-133.969 26.672-283.346 82.556-404.43 71.306-154.494 117.413-316.365 35.342-476.994-65.405-128.019-192.07-209.389-299.62-298.308-48.624-40.197-99.451-81.699-131.403-137.012-42.808-74.1-24.703-154.793-6.455-233.968 43.606-189.18 33.767-372.753-49.988-548.773-31.952-85.026-80.496-163.568-144.713-227.68-65.622-65.518-144.473-116.137-229.86-151.636 10.685-153.553-77.568-321.316-190.072-412.773-184.912-150.324-437.352-180.556-666.191-141.882-251.39 42.485-481.159 162.245-730.06 214.419-141.636 29.69-283.273 14.3-425.081 1.4-71.574-16.87-143.72-30.441-217.806-32.303-20.245-.509-40.411-.067-60.473 1.199-13.059 6.413-26.621 11.794-40.622 15.856-44.902 13.026-89.428 27.246-133.138 43.892-2.694 1.027-8.213 3.249-13.71 5.469-.359.171-.759.357-1.073.51-17.888 8.732-35.919 17.092-53.498 26.472-24.788 13.227-47.676 30.015-71.124 45.45-2.774 2.451-9.783 7.173-23.516 14.821-5.068 4.581-10.188 9.107-15.125 13.841-12.072 11.585-23.459 29.629-36.535 40.893-1.507 2.28-3.042 4.539-4.469 6.871-6.592 10.753-11.695 22.718-17.854 33.785-1.404 3.897-2.831 7.79-4.018 11.729-4.098 13.627-7.026 27.46-10.154 41.288-.365 5.254-.811 10.514-1.01 15.753-.674 17.572.091 34.985.713 52.472 5.976 8.669 6.182 20.669 4.817 26.025 4.851 18.832 10.919 37.113 16.575 55.696.28.918.497 1.677.748 2.506 3.036 5.997 5.982 12.032 9.15 17.967 7.928 14.838 16.895 28.826 25.725 43.045 5.177 6.356 10.456 13.501 11.021 14.122 5.422 5.962 11.05 11.738 16.735 17.451 70.907-13.4 142.607-24.251 212.852-40.746 181.459-42.612 361.497-95.659 546.164-123.04 296.475-43.959 590.81-50.619 888.004-9.07 308.256 43.096 616.614 164.023 799.894 427.649 101.529 146.042 139.399 337.541 121.403 512.46-11.546 112.302-35.097 220.106-66.449 328.288-13.579 46.85-27.642 93.571-39.686 140.85-5.616 22.072-10.827 44.236-15.325 66.567-1.638 8.148-3.025 16.355-4.521 24.533-1.632 22.771-3.487 45.323-3.379 68.265.057 11.822.913 23.58 1.164 35.394.143 6.612-.457 11.127-1.324 13.765 3.921 16.376 10.531 33.885 13.567 45.351 6.918 26.149 14.532 52.215 22.99 77.912 37.774 114.744 83.018 225.305 74.777 349.346-8.299 124.937-58.321 237.36-126.385 340.745-11.707 17.776-23.664 35.398-34.726 53.587-6.136 10.088-13.059 30.309-21.244 42.661 1.49 6.729-2.312 18.343-5.365 24.699-.177 4.447-.297 7.296-.297 6.258-.006 3.429.594 11.456 1.153 18.9 5.182 19.175 10.913 37.988 16.666 57.016 2.015 4.755 3.973 9.546 6.073 13.94 9.463 19.735 19.503 39.183 29.52 58.639 49.001 95.192 100.695 193.936 119.502 300.211 25.656 144.948 9.988 280.474-50.953 414.362-39.412 86.589-102.059 160.772-164.188 232.033a10236.25 10236.25 0 0 0-79.188 91.963c-4.252 5.967-8.539 11.912-12.631 17.997-11.061 16.458-20.291 33.59-30.188 50.58-2.917 8.703-5.97 17.343-8.624 26.138-4.646 15.392-8.282 30.909-11.815 46.501 2.323 23.283-1.952 32.772-3.898 30.164-.742 17.634-.81 35.314.188 52.931.029.52.068 1.187.108 1.866.531 3.834 1.187 7.757 1.946 10.522 4.03 14.724 8.345 29.413 12.437 44.123 2.038 4.777 3.95 9.509 5.439 12.259 6.781 12.519 22.283 28.937 29.321 43.197.776.802 1.478 1.667 2.26 2.461 7.386 7.641 15.308 14.642 22.922 22.053.428.415.759.75 1.147 1.133a493.27 493.27 0 0 1 4.726 3.065c9.589 6.292 19.315 12.352 29.355 17.899 1.958 1.082 4.292 2.654 6.678 4.375a502.777 502.777 0 0 0-7.54-6.23c-2.825-2.103-3.504-2.816 0 0 3.944 2.934 12.049 8.544 18.95 11.047 3.716 1.35 7.506 2.483 11.244 3.767a2679.712 2679.712 0 0 0 167.687-27.407c391.183-76.75 826.994-249.948 1056.198-594.649 110.524-166.213 157.67-375.809 121.061-572.306z" fill="#FF6F00"/><path d="M2250.531 3154.565c49.031 41.03 110.821 59.654 171.414 65.143 113.441 10.275 237.365-33.272 293.754-141.356-2.172-1.341-4.449-2.584-6.923-3.64-36.34-15.511-71.04-31.249-103.052-55.969-21.869-16.889-41.519-35.153-67.985-43.083-42.884-12.848-85.335 1.3-116.243 31.291-18.843-18.842-44.287-31.217-69.069-32.645-32.854-1.891-57.59 13.446-86.119 27.919-33.006 16.745-65.574 28.011-100.928 34.531 22.044 44.75 47.851 86.593 85.151 117.809z" fill="#C62828"/></g><metadata><rdf:RDF xmlns:rdf="http://www.w3.org/1999/02/22-rdf-syntax-ns#" xmlns:rdfs="http://www.w3.org/2000/01/rdf-schema#" xmlns:dc="http://purl.org/dc/elements/1.1/"><rdf:Description about="https://iconscout.com/legal#licenses" dc:title="-musician" dc:description="-musician" dc:publisher="Iconscout" dc:date="2018-02-21" dc:format="image/svg+xml" dc:language="en"><dc:creator><rdf:Bag><rdf:li>Sooodesign .</rdf:li></rdf:Bag></dc:creator></rdf:Description></rdf:RDF></metadata></svg>