<?xml version="1.0" encoding="UTF-8"?><svg xmlns="http://www.w3.org/2000/svg" xmlns:xlink="http://www.w3.org/1999/xlink" version="1.1" x="0px" y="0px" viewBox="0 0 5984.956 5984.956" xml:space="preserve"><g id="_x34_0-School_boy"><circle cx="2992.478" cy="2992.478" r="2992.478" fill="#FFD400"/><path d="M3941.779 4813.936c-12.431-4.371-24.298-4.935-35.216-2.686-24.345-2.936-50.807.576-77.209 11.939-166.314 71.58-364.795 80.41-539.956 40.667-197.563-44.83-355.453-169.757-541.72-242.457-201.008-78.453-425.979-65.723-633.52-23.281-196.568 40.197-387.416 109.377-568.303 195.58-63.361 30.196-125.201 63.278-185.503 98.916-35.097 17.787-69.802 36.287-104.004 55.606-91.873 51.892-185.468 109.65-247.028 193.49a2929.46 2929.46 0 0 0-29.308 24.777c-7.762 6.66-14.108 14.371-19.345 22.704 533.637 493.817 1247.41 795.764 2031.81 795.764 686.844 0 1319.513-231.56 1824.559-620.652-251.258-241.195-542.309-433.364-875.257-550.367z" fill="#004D40"/><path d="M3913.349 2709.173c-20.072-60.246-80.455-70.826-122.249-42.319-14.918-.283-30.181 3.634-44.49 12.927-55.216 35.86-94.336 84.029-137.254 133.144-40.904 46.812-82.267 93.302-123.752 139.602-85.128 95.013-174.717 185.501-266.884 273.652-90.129 86.2-183.122 169.2-279.872 247.92-84.199 68.507-199.427 165.203-198.602 284.96-.993 1.692-1.954 3.419-2.754 5.307-23.793 56.168-18.263 109.41-15.113 169.032 3.09 58.49 8.691 116.765 10.712 175.338 3.96 114.75-.393 229.426-9.571 343.82-18.26 227.553-67.981 451.408-144.013 666.642-19.576 55.413 17.556 118.346 69.237 140.251 22.565 19.293 52.334 31.167 84.417 34.555 336.959 35.58 673.921 71.141 1010.893 106.616 72.671 7.65 128.632-66.442 131.306-131.306 13.743-333.249 22.212-666.672 31.942-1000.06 9.63-329.969 21.236-660.336 22.574-990.442.377-92.956.741-185.909 1.302-278.862.582-95.902 12.874-198.634-17.829-290.777z" fill="#F4C5A2"/><path d="M3931.177 2999.949c.348-57.01 4.769-116.424 1.901-174.602-25.291-62.11-95.353-72.701-144.222-42.332-17.791-.308-35.996 3.949-53.062 14.046-65.853 38.966-112.51 91.307-163.697 144.677-48.784 50.866-98.118 101.384-147.593 151.694-101.531 103.243-208.38 201.568-318.301 297.355-107.493 93.666-218.402 183.855-333.792 269.393-3.519 2.607-7.152 5.322-10.753 8.004-13.524 28.588-21.632 58.901-21.413 90.874-.993 1.692-1.955 3.42-2.754 5.308-23.792 56.167-18.265 109.409-15.114 169.032 2.046 38.714 5.131 77.339 7.611 116.014 156.451 93.177 313.738 185.115 476.356 269.237 163.605 84.633 335.253 154.063 501.196 234.535 62.865 30.484 125.744 60.969 188.956 90.844 3.636-124.923 7.16-249.85 10.805-374.773 9.629-329.969 21.236-660.336 22.574-990.441.378-92.958.743-185.912 1.302-278.865z" fill="#E5AC85"/><path d="M4292.162 2355.21c-27.491-119.859-140.029-203.81-257.501-223.051-79.552-13.032-157.547-.937-231.976 24.591 12.151-194.359 29.179-388.348 45.198-582.466 3.033-36.764-29.643-78.08-65.347-85.832-338.395-73.469-681.767-119.991-1028.05-131.53-171.934-5.729-344.156-3.294-515.853 7.421-169.202 10.562-354.191 19.069-513.578 77.679-50.277 18.491-62.271 74.191-39.328 109.905-81.742 97.755-131.433 225.358-177.277 341.316-57.053 144.31-101.674 292.579-134.715 444.192-65.729 301.601-114.568 642.839 6.061 937.157 19.875 48.49 43.296 94.497 69.829 138.057 116.914 243.028 322.927 419.234 572.138 523.186 287.494 119.92 606.259 124.901 910.875 84.008 147.205-19.762 290.135-50.177 425.454-113.31 131.56-61.381 242.466-161.571 322.13-282.491 167.763-254.649 181.532-567.616 172.897-865.066 97.802-.46 196.49-13.972 279.858-66.378 112.629-70.8 190.139-202.418 159.185-337.388z" fill="#F4C5A2"/><path d="M1973.343 2464.101c-14.02-16.553-40.557-21.542-60.611-16.02-22.889 6.303-34.979 22.691-43.509 43.51-22.003 53.7 9.197 180.699 87.721 159.119 78.492-21.569 55.466-140.481 16.399-186.609z" fill="#5A4A42"/><path d="M2971.116 2531.759c14.02-16.553 40.557-21.542 60.611-16.02 22.889 6.303 34.979 22.691 43.509 43.51 22.003 53.7-9.197 180.699-87.721 159.119-78.492-21.57-55.466-140.482-16.399-186.609z" fill="#5A4A42"/><path d="M2638.416 3320.323c-2.858-10.699-13.98-16.185-24.383-13.844-76.909 17.32-122.453 87.054-208.589 80.192-84.556-6.737-124.838-79.623-195.854-112.489-13.114-6.069-25.645-.939-30.781 12.523-45.738 119.882 123.788 208.527 219.699 213.676 91.518 4.91 272.065-59.673 239.908-180.058z" fill="#5A4A42"/><path d="M2510.667 2978.646c-34.355-34.942-79.471-25.183-122.261-40.011-56.906-19.72-29.487-69.477-14.112-112.091l55.899-154.947c17.472-48.426 41.278-100.094 27.58-152.125-5.262-19.989-31.059-31.877-49.084-19.97-59.023 38.992-78.014 122.655-103.243 185.027-27.586 68.202-76.661 149.378-74.303 224.589 2.001 63.91 48.579 114.573 105.797 137.398 57.376 22.889 141.101 23.583 178.155-33.555 6.836-10.542 4.089-25.653-4.428-34.315z" fill="#5A4A42"/><path d="M1998.297 2144.189c-69.797-37.88-157.483-34.333-234.07-24.409-54.972 7.122-190.168 27.59-188.165 106.389 1.967 77.394 120.285 44.551 163.35 35.428 81.666-17.299 166.598-9.179 247.164-27.729 40.82-9.397 48.192-69.883 11.721-89.679z" fill="#5A4A42"/><path d="M3355.5 2286.999c-16.657-61.999-95.009-95.035-150.594-113.077-60.593-19.67-144.583-44.136-206.868-21.704-35.339 12.726-51.852 68.526-11.497 87.965 54.743 26.367 120.715 27.068 178.616 46.849 51.805 17.7 110.853 52.921 166.608 41.764 18.09-3.62 28.23-25.065 23.735-41.797z" fill="#5A4A42"/><path d="M3341.389 3011.749c-6.055-144.846-178.38-172.471-291.159-159.459-44.506 5.135-105.03 18.344-158.324 42.576-9.962 3.601-19.874 7.379-29.688 11.489-56.629 23.72-127.237 59.302-131.04 129.34-3.959 72.912 51.689 110.472 120.959 129.425 65.977 31.811 158.437 29.142 223.169 16.714 107.736-5.64 271.85-32.148 266.083-170.085z" fill="#E5AC85"/><path d="M1446.363 2793.141c31.525-126.809 188.66-120.081 285.877-88.224 38.366 12.572 89.413 35.167 132.086 66.189 8.144 4.979 16.212 10.105 24.134 15.507 45.71 31.172 101.617 75.344 92.316 137.876-9.682 65.099-65.602 88.215-130.184 92.441-63.999 16.175-145.148-2.88-200.051-25.545-94.098-24.438-234.2-77.485-204.178-198.244z" fill="#E5AC85"/><path d="M4001.319 4793.445c-37.365-33.813-87.474-26.538-124.507 3.296-145.051 116.843-337.16 178.856-522.834 170.597-170.814-7.596-335.868-83.835-458.27-202.132-27.748-26.818-54.26-55.403-77.311-86.37-31.101-41.776-53.294-108.915-98.999-135.645-94.52-55.288-237.997 18.623-303.792 88.217-161.976 171.333-109.721 431.242 46.387 587.402 154.374 154.424 391.019 226.218 600.426 264.933 223.513 41.326 457.834 37.014 670.481-49.674 101.752-41.481 194.099-95.228 278.213-166.27 80.664-68.127 159.418-159.596 154.853-271.835-4.017-98.763-73.345-183.835-164.647-202.519z" fill="#00796B"/><path d="M4913.598 1836.138c58.635-189.635-64.76-385.786-239.13-458.263-104.69-43.516-217.475-45.8-328.004-27.621-3.653.601-7.448 1.263-11.244 1.925-1.655-53.354-15.748-106.514-36.101-156.542-20.742-76.266-52.146-150.247-96.985-215.256-138.714-201.086-358.118-283.735-595.924-293.105-122.716-4.834-244.923 11.441-367.37 16.32-58.704 2.34-117.527 1.62-176.14-2.593-14.144-1.017-28.281-2.387-42.38-3.877-.634-.066-13.744-1.901-18.949-2.591-29.926-4.575-59.714-10.237-89.377-16.264-159.011-32.323-315.094-72.157-474.407-92.48-233.091-78.751-486.051-99.718-728.839-60.945-229.278 36.615-451.285 155.842-534.041 384.14-75.09 207.152 20.548 434.176 220.991 524.349 164.153 73.846 371.326 64.6 523.487 130.227 95.347 41.124 167.818 118.375 247.994 181.707 104.685 82.693 213.656 137.935 347.513 154.311 110.929 13.57 221.008-.404 331.589-7.423 6.535.849 13.065 1.698 19.366 2.596 149.793 21.34 305.425 43.36 441.057 114.683 115.61 60.796 201.584 153.443 268.079 264.692 64.274 107.537 77.151 221.133 97.436 339.922-.85 33.618 1.535 66.983 12.996 99.052 19.566 54.731 78.658 68.684 122.607 32.368 127.43-105.304 92.339-353.152 58.321-493.438-10.959-45.181-27.283-89.915-47.077-132.951 57.899 21.622 115.689 43.515 173.08 66.483a6742.326 6742.326 0 0 1 95.678 39.139c8.099 3.388 16.027 6.096 23.909 8.532 48.852 36.949 86.666 86.483 97.374 150.249 18.904 112.619-65.736 170.94-136.46 242.708-82.704 83.932-143.44 191.331-168.839 306.74-24.686 112.173-38.219 268.727 63.019 345.182 39.805 71.871 139.57 113.047 212.698 36.609 83.469-87.254 166.807-174.202 246.841-264.626 33.607-37.968 73.138-77.277 107.75-119.685 106.648-60.559 197.771-143.934 246.11-261.013 38.276-92.716 38.208-193.439 1.593-286.74-25.839-65.844-79.542-134.563-87.762-205.814-6.107-52.987 44.274-94.879 83.201-136.632 56.09-60.158 111.557-123.932 136.34-204.075z" fill="#5D4037"/><path d="M4913.598 1836.138c58.635-189.635-64.76-385.786-239.13-458.263-104.69-43.516-217.475-45.8-328.004-27.621-3.653.601-7.448 1.263-11.244 1.925-1.655-53.354-15.748-106.514-36.101-156.542-20.742-76.266-52.146-150.247-96.985-215.256-138.714-201.086-358.118-283.735-595.924-293.105-122.716-4.834-244.923 11.441-367.37 16.32-58.704 2.34-117.527 1.62-176.14-2.593-14.144-1.017-28.281-2.387-42.38-3.877-.634-.066-13.744-1.901-18.949-2.591-29.926-4.575-59.714-10.237-89.377-16.264-159.011-32.323-315.094-72.157-474.407-92.48-233.091-78.751-486.051-99.718-728.839-60.945-182.384 29.126-360.087 110.604-466.838 257.597 1.53 5.457 3.099 10.9 4.618 16.372.457 1.632 7.757 20.914 7.334 21.076a379.797 379.797 0 0 0 8.704 17.269 379.35 379.35 0 0 0 20.616 33.951c.554.815 1.592 2.148 2.711 3.549 6.963 8.019 14.389 15.499 21.752 23.145 1.313 1.367 16.889 13.864 17.306 14.766 79.097 53.752 167.19 51.959 270.237 41.924 216.339-21.066 430.235-104.131 650.923-67.746 207.161 34.158 363.557 177.621 507.043 320.119 65.405 64.954 133.492 134.072 202.778 180.808 74.2 50.048 141.283 74.979 229.992 94.631 90.216 19.983 139.593 23.424 234.575 32.17 97.031 8.934 193.993 17.216 290.556 30.483 180.272 24.769 360.795 73.384 499.863 196.937 185.786 165.057 227.469 433.233 186.596 667.233-22.551 129.132-73.943 249.876-106.625 376.256-27.762 107.362-39.058 216.661-31.358 327.448 2.432 34.997 7.546 69.129 14.646 102.513 51.478-54.363 102.505-109.111 152.19-165.249 33.607-37.968 73.138-77.277 107.75-119.685 106.648-60.559 197.771-143.934 246.11-261.013 38.276-92.716 38.208-193.439 1.593-286.74-25.839-65.844-79.542-134.563-87.762-205.814-6.107-52.987 44.274-94.879 83.201-136.632 56.089-60.159 111.556-123.933 136.339-204.076z" fill="#4E342E"/></g><metadata><rdf:RDF xmlns:rdf="http://www.w3.org/1999/02/22-rdf-syntax-ns#" xmlns:rdfs="http://www.w3.org/2000/01/rdf-schema#" xmlns:dc="http://purl.org/dc/elements/1.1/"><rdf:Description about="https://iconscout.com/legal#licenses" dc:title="-school,boy" dc:description="-school,boy" dc:publisher="Iconscout" dc:date="2018-02-21" dc:format="image/svg+xml" dc:language="en"><dc:creator><rdf:Bag><rdf:li>Sooodesign .</rdf:li></rdf:Bag></dc:creator></rdf:Description></rdf:RDF></metadata></svg>