<?xml version="1.0" encoding="UTF-8"?><svg xmlns="http://www.w3.org/2000/svg" xmlns:xlink="http://www.w3.org/1999/xlink" version="1.1" x="0px" y="0px" viewBox="0 0 5984.956 5984.956" xml:space="preserve"><g id="_x32_8-School_Girl"><circle cx="2992.478" cy="2992.478" r="2992.478" fill="#283593"/><path d="M2992.478 5984.956c761.527 0 1456.468-284.614 1984.664-753.067-287.451-255.145-677.404-546.021-959.133-645.026-12.437-4.371-24.306-4.935-35.228-2.686-4.928-.594-9.966-.85-15.051-.904 5.565-180.398 10.528-360.817 15.793-541.229 9.632-330.051 21.241-660.502 22.58-990.69.377-92.979.742-185.956 1.301-278.932.582-95.925 12.877-198.682-17.834-290.849-20.077-60.26-80.476-70.844-122.279-42.33-14.923-.283-30.188 3.635-44.5 12.93-55.231 35.869-94.363 84.05-137.29 133.177-40.913 46.823-82.288 93.326-123.783 139.637-85.15 95.037-174.761 185.547-266.952 273.721-90.15 86.221-183.169 169.242-279.943 247.982-84.217 68.524-199.476 165.244-198.651 285.031-.993 1.692-1.955 3.42-2.754 5.308-23.798 56.182-18.268 109.438-15.117 169.075 3.091 58.504 8.693 116.794 10.713 175.381 3.961 114.778-.391 229.484-9.572 343.906-4.141 51.604-9.983 103.007-17.3 154.174-190.215-61.801-398.774-48.13-592.214-8.572-196.619 40.207-387.513 109.404-568.447 195.627-63.378 30.205-125.233 63.293-185.549 98.941-35.105 17.792-69.819 36.297-104.031 55.621-64.263 36.299-311.064 227.208-474.801 367.456 543.004 553.097 1299.055 896.318 2135.378 896.318z" fill="#F7CEB2"/><path d="M3787.521 4384.226c60.958 32.445 121.919 64.917 183.24 96.664 4.352-146.278 8.493-292.563 12.762-438.846 9.632-330.051 21.241-660.502 22.58-990.69.377-92.979.742-185.956 1.301-278.932.268-44.145 2.979-89.733 2.877-135.074-2.617-11.039-5.582-21.997-9.181-32.799-22.511-67.571-90.236-79.438-137.113-47.464-16.732-.318-33.85 4.076-49.9 14.498-61.928 40.221-105.806 94.246-153.942 149.333-45.878 52.504-92.271 104.647-138.8 156.576-95.478 106.566-195.959 208.056-299.334 306.926-101.089 96.681-205.389 189.773-313.904 278.065-31.31 25.475-66.415 54.466-99.36 86.683-18.299 51.773-13.367 101.611-10.445 156.938 2.069 39.183 5.211 78.273 7.703 117.418 167.707 110.004 335.693 219.549 510.183 318.621 153.856 87.357 315.278 159.022 471.333 242.083z" fill="#EABB9B"/><path d="M4018.009 4586.862c-12.437-4.371-24.309-4.936-35.228-2.686-4.926-.595-9.966-.85-15.051-.904 4.161-134.892 8.002-269.793 11.866-404.695-77.208 20.124-157.875 30.514-240.739 35.48-154.273 9.248-312.143 8.215-465.805-8.895-154.039-17.152-315.008-48.239-465.782-103.001-1.889 41.105-4.532 82.187-7.825 123.229-4.144 51.604-9.983 103.007-17.3 154.175-190.215-61.802-398.774-48.13-592.214-8.573-196.619 40.208-387.513 109.405-568.447 195.628-63.378 30.204-125.233 63.292-185.552 98.94-35.102 17.792-69.817 36.297-104.028 55.622-64.263 36.298-311.064 227.207-474.801 367.456 543.002 553.096 1299.049 896.317 2135.376 896.317 761.527 0 1456.468-284.614 1984.664-753.068-287.452-255.143-677.408-546.02-959.134-645.025z" fill="#EF401D"/><path d="M4368.802 2080.455c-26.205-114.254-133.481-194.279-245.46-212.621-75.831-12.423-150.179-.893-221.129 23.44 11.583-185.27 27.814-370.188 43.084-555.228 2.892-35.045-28.256-74.429-62.291-81.818-322.571-70.034-649.886-114.381-979.976-125.381-163.894-5.462-328.063-3.141-491.731 7.073-161.29 10.068-337.629 18.176-489.563 74.045-47.926 17.626-59.359 70.722-37.489 104.766-77.92 93.184-125.287 214.82-168.987 325.355-54.385 137.561-96.919 278.897-128.416 423.421-62.656 287.497-109.211 612.778 5.777 893.333 18.945 46.222 41.271 90.078 66.564 131.601 111.447 231.664 307.827 399.63 545.383 498.722 274.051 114.313 577.909 119.062 868.281 80.081 140.322-18.838 276.567-47.83 405.559-108.011 125.408-58.51 231.128-154.015 307.066-269.281 159.918-242.741 173.043-541.073 164.813-824.613 93.228-.438 187.302-13.318 266.771-63.274 107.365-67.489 181.251-192.951 151.744-321.61z" fill="#F4D3BD"/><path d="M2053.543 2226.279c-15.691-18.526-45.391-24.109-67.835-17.929-25.617 7.054-39.148 25.395-48.695 48.696-24.625 60.1 10.293 202.234 98.175 178.083 87.849-24.141 62.079-157.225 18.355-208.85z" fill="#5A4A42"/><path d="M2994.299 2226.279c15.691-18.526 45.391-24.109 67.835-17.929 25.617 7.054 39.148 25.395 48.695 48.696 24.625 60.1-10.293 202.234-98.175 178.083-87.849-24.141-62.079-157.225-18.355-208.85z" fill="#5A4A42"/><path d="M2701.428 2976.864c-2.858-10.702-13.984-16.189-24.389-13.848-76.928 17.324-122.484 87.076-208.641 80.212-84.578-6.739-124.869-79.643-195.903-112.518-13.117-6.071-25.652-.939-30.789 12.526-45.75 119.912 123.819 208.579 219.754 213.729 91.541 4.912 272.133-59.687 239.968-180.101z" fill="#5A4A42"/><path d="M2516.438 2706.715c-25.297-25.73-58.519-18.543-90.027-29.462-41.902-14.521-21.713-51.159-10.392-82.538l41.161-114.096c12.866-35.658 30.396-73.704 20.309-112.018-3.875-14.719-22.87-23.473-36.143-14.705-43.462 28.711-57.446 90.317-76.023 136.245-20.313 50.221-56.449 109.995-54.714 165.377 1.474 47.061 35.771 84.366 77.904 101.174 42.249 16.854 103.9 17.365 131.185-24.708 5.034-7.763 3.011-18.891-3.26-25.269z" fill="#5A4A42"/><path d="M3478.106 2761.299c-6.056-144.882-178.425-172.514-291.231-159.499-44.518 5.136-105.057 18.349-158.364 42.587-9.964 3.602-19.878 7.381-29.695 11.492-56.643 23.726-127.269 59.317-131.073 129.372-3.961 72.931 51.702 110.5 120.99 129.457 65.994 31.819 158.477 29.15 223.225 16.718 107.761-5.641 271.917-32.157 266.148-170.127z" fill="#ED896F"/><path d="M2987.568 2029.217c33.803 24.808 82.406 23.432 122.302 33.343 50.763 12.61 100.604 27.174 148.861 47.498 19.221 8.094 30.501-18.327 13.377-28.77-43.746-26.677-89.595-50.906-138.805-65.768-41.225-12.451-98.869-34.023-140.476-15.394-10.921 4.89-16.547 20.807-5.259 29.091z" fill="#37474F"/><path d="M2089.674 1999.978c-33.803 24.808-82.406 23.432-122.302 33.343-50.763 12.61-100.604 27.174-148.861 47.498-19.222 8.094-30.501-18.327-13.377-28.77 43.746-26.677 89.595-50.906 138.805-65.768 41.225-12.451 98.869-34.023 140.475-15.394 10.922 4.89 16.548 20.807 5.26 29.091z" fill="#37474F"/><path d="M3787.56 4911.489c-41.854 18.173-82.094 40.446-121.528 64.166-37.054-64.109-75.364-143.248-137.036-179.587-30.958-18.24-61.329 6.099-65.136 37.378-8.601 70.654 38.967 154.289 78.036 219.738-69.012 42.147-149.724 85.375-193.771 152.822-40.97 62.743 26.449 133.002 91.449 118.954 71.403-15.431 138.023-72.656 197.572-120.033 26.826 36.27 57.1 69.481 93.275 94.945 41.615 29.292 100.792-19.315 85.724-65.903-13.562-41.921-35.388-81.347-59.668-119.543 39.44-30.479 77.87-62.268 112.385-97.573 56.716-58.023-14.636-134.313-81.302-105.364z" fill="#FFCDD2"/><path d="M1624.186 2762.438c5.217-124.791 153.682-148.591 250.846-137.381 38.344 4.424 90.488 15.804 136.403 36.681 8.582 3.102 17.122 6.357 25.577 9.899 48.789 20.436 109.621 51.091 112.897 111.432 3.411 62.817-44.532 95.176-104.212 111.505-56.842 27.407-136.501 25.107-192.269 14.4-92.819-4.86-234.211-27.698-229.242-146.536z" fill="#ED896F"/><path d="M3676.3 2557.68c189.935-1.628 275.865-262.043 325.967-407.219 27.009-78.261 49.297-159.462 66.061-242.209 4.96-.497 9.96-.876 15.04-1.002 37.831-.93 72.111 9.774 102.173 28.003 25.479 4.099 50.936 17.025 73.778 41.702 99.068 107.042 67.237 244.284-12.871 351.898-6.398 8.597-12.876 16.942-19.417 25.164-42.157 11.815-85.918 16.704-130.632 27.665-87.762 21.521-146.842 80.61-167.909 169.225-25.964 109.212-19.064 232.192-19.075 343.789-.017 120.304.211 240.608.668 360.909.645 170.283-.074 340.821 2.523 511.201-17.506 228.13-51.598 454.898-103.435 677.755-29.098 125.098-63.047 249.261-101.74 371.671a4418.56 4418.56 0 0 1-58.778 173.297c-9.235 25.473-20.439 50.939-29.286 76.743-21.427 3.954-37.454 26.91-30.73 49.055 7.837 25.783 20.719 48.862 36.849 69.813 1.267 2.983 2.494 5.946 3.853 8.992 6.164 13.792 19.657 25.374 35.359 32.707 57.442 50.411 134.462 84.587 200.061 109.38 116.146 43.894 249.643 58.404 372.924 50.544 63.133-4.024 126.243-13.79 187.863-29.425a1072.336 1072.336 0 0 0 27.101-9.832c10.833-4.1 21.609-8.38 32.339-12.742 3.847-1.737 22.585-9.739 25.308-10.969a1572.466 1572.466 0 0 0 88.104-43.153c57.459-30.419 113.949-64.186 165.843-103.482 27.939-21.16 81.581-70.035 113.132-109.39-4.897 5.768 15.491-22.885 17.837-26.646 7.334-11.754 14.012-23.79 20.331-36.116 1.165-2.473 1.963-4.117 2.472-5.094.793-2.14 1.484-4.315 2.266-6.459.309-8.357.605-16.713.736-25.061 49.674-201.199 26.535-424.684 20.93-627.801-6.621-240.033-19.486-479.437-41.912-718.522-29.155-310.787-68.926-620.388-119.154-928.34-38.464-337.394-88.624-676.171-168.006-1004.9-89.525-370.735-259.346-703.711-567.003-938.505-229.261-174.964-498.898-277.622-779.478-324.483-130.255-31.457-263.667-45.694-394.362-37.973-93.378-5.488-187.389-1.585-279.951 12.34-450.451 67.773-817.925 368.232-1028.088 751.82-104.257 190.289-164.348 396.039-188.548 607.837-7.42 16.606 7.37 253.609.008 270.187 366.267-85.722 704.87-86.081 1067.629-77.929 693.569 15.586 1021.758 35.434 1285.831 38.965l-52.611 566.59z" fill="#FBC02D"/><path d="M4941.942 4340.594c-6.621-240.033-19.486-479.437-41.912-718.522-29.155-310.787-68.926-620.388-119.154-928.34-38.464-337.394-88.624-676.171-168.006-1004.9-89.525-370.735-259.346-703.711-567.003-938.505-229.261-174.964-498.898-277.622-779.478-324.483-130.255-31.457-263.667-45.694-394.362-37.973-93.378-5.488-187.389-1.585-279.951 12.34-70.17 10.556-138.32 26.771-204.181 48.056-3.59 5.374-7.157 10.762-10.514 16.267-63.601 104.405-65.039 219.313 7.979 311.231 71.757 90.34 172.201 126.905 289.42 150.376 119.925 24.011 257.514 24.429 387.912 23.681 243.114-1.393 481.947 3.527 711.351 95.117 226.961 90.617 426.023 235.567 576.814 428.553 151.208 193.524 254.86 422.444 299.203 664.29 49.292 268.81 25.371 528.99-34.896 793.754-150.803 662.538-453.671 1266.771-797.212 1847.906-72.568 122.753-143.509 245.241-217.235 365.825 6.918 14.088 15.171 27.413 24.766 39.874 1.267 2.983 2.494 5.946 3.853 8.992 6.164 13.792 19.657 25.374 35.359 32.707 57.442 50.411 134.462 84.587 200.061 109.38 116.146 43.894 249.643 58.404 372.924 50.544 63.133-4.024 126.243-13.79 187.863-29.425a1072.336 1072.336 0 0 0 27.101-9.832c10.833-4.1 21.609-8.38 32.339-12.742 3.847-1.737 22.585-9.739 25.308-10.969a1572.466 1572.466 0 0 0 88.104-43.153c57.459-30.419 113.949-64.186 165.843-103.482 27.939-21.16 81.581-70.035 113.132-109.39-4.897 5.768 15.491-22.885 17.837-26.646 7.334-11.754 14.012-23.79 20.331-36.116 1.165-2.473 1.963-4.117 2.472-5.094.793-2.14 1.484-4.315 2.266-6.459.309-8.357.605-16.713.736-25.061 49.675-201.199 26.535-424.684 20.93-627.801z" fill="#F9A825"/><path d="M4312.726 3118.067c-2.979-96.726-22.003-192.044-24.737-288.327-1.05-37.006-54.275-36.298-56.986 0-6.929 92.599-29.395 183.849-37.22 276.795-7.438 88.405-12.643 176.622-16.044 265.262-6.912 180.075-11.963 360.086-16.238 540.242-4.036 170.024-9.367 340.127-20.611 509.851-11.518 173.878-42.973 349.919-36.386 524.321.993 26.32 37.305 38.364 51.049 13.828 83.384-148.833 105.872-326.787 123.189-493.996 18.31-176.794 23.675-354.244 27.979-531.834 4.452-183.641 7.808-367.192 9.281-550.88.713-88.58-.554-176.725-3.276-265.262z" fill="#F9A825"/><path d="M4677.79 3857.503c-3.904-92.626 3.613-212.987-39.6-296.819-17.979-34.883-66.837-22.307-78.115 10.209-16.484 47.531-10.097 99.333-9.053 148.911 1.136 53.547 1.747 107.108 2.717 160.657a6575.298 6575.298 0 0 1-1.33 298.578c-2.7 99.266-8.407 199.018-7.015 298.336 1.41 100.39-5.274 205.456 8.15 304.767 3.996 29.522 44.749 22.222 52.836 0 34.058-93.548 46.912-205.782 59.286-304.767 12.842-102.708 16.512-206.439 17.231-309.82.721-103.354-.752-206.783-5.107-310.052z" fill="#F9A825"/><path d="M1993.203 934.205c-87.499 86.851-145.815 208.385-182.378 324.737-33.493 106.591-48.858 247.22 3.99 350.321 11.952 23.316 41.895 13.25 50.074-6.544 39.554-95.701 51.74-206.721 81.649-306.362 31.798-105.916 86.101-194.801 140.552-289.711 33.685-58.728-45.281-120.69-93.887-72.441z" fill="#F9A825"/><path d="M2665.278 961.014c-38.059 56.889-55.285 129.549-73.178 194.922-18.293 66.801-31.347 134.378-40.97 202.944-9.315 66.395-17.865 133.737-17.203 200.857.576 58.261-1.815 129.653 37.248 176.028 14.834 17.608 40.359 9.011 51.638-6.652 31.763-44.136 26.467-116.934 30.862-169.376 5.474-65.282 8.362-130.666 16.952-195.69 8.345-63.194 19.846-126.318 33.105-188.655 13.613-64.008 36.438-127.382 41.192-192.806 3.287-45.26-57.916-54.046-79.646-21.572z" fill="#F9A825"/><path d="M3664.617 4375.477c-93.081 0-93.235 144.656 0 144.656 93.081-.001 93.235-144.656 0-144.656z" fill="#FFCDD2"/><path d="M3354.848 4378.764c-111.414 0-111.597 173.148 0 173.148 111.415.001 111.597-173.148 0-173.148z" fill="#FFCDD2"/><path d="M3033.391 4348.627c-105.067 0-105.239 163.286 0 163.286 105.067 0 105.238-163.286 0-163.286z" fill="#FFCDD2"/><path d="M4220.364 5718.063c-12.551-52.899-43.504-101.03-71.563-147.035-23.054-37.802-50.582-88.254-95.906-100.689-14.931-10.496-34.024-15.217-51.946-9.612-46.506 14.546-87.448 39.363-127.613 66.583-29.292 19.848-57.773 39.666-80.17 65.729-22.448-64.217-71.946-128.982-120.056-168.491-29.235-24.006-69.183-9.583-79.6 18.996-27.083 20.164-48.464 48.669-71.169 73.489-27.802 30.394-58.886 58.846-85.022 90.842-7.785-32.898-28.407-58.727-49.885-87.929-28.213-38.355-56.78-76.169-86.797-113.144-18.95-23.342-47.574-22.089-69.674-8.684-1.455.021-2.888.001-4.418.188-64.548 7.878-115.604 51.96-162.818 93.946-24.692 21.959-51.17 44.741-72.402 70.618-31.375-80.778-83.783-153.824-140.712-219.192-29.292-33.634-76.968-18.484-98.635 12.153-47.054 18.334-87.887 54.469-123.138 89.211-21.946 21.628-48.11 45.837-68.418 72.923-6.958-95.075-41.626-195.075-112.236-260.063-17.174-15.806-42.511-16.637-62.197-7.554-5.068-.073-10.268.588-15.513 2.286-59.309 19.195-107.059 57.22-152.133 99.367-10.222 9.562-21.667 19.818-32.859 30.769-10.188-19.072-21.809-37.478-31.073-54.981-25.04-47.298-50.177-99.523-87.493-138.271-11.153-11.577-24.84-15.876-38.076-14.922-6.238-5.784-14.64-9.081-25.142-7.843-69.006 8.148-137.955 61.849-199.438 93.664-25 12.939-94.251 46.619-101.306 85.855-7.939 10.696-13.339 23.139-14.589 35.852-5.16 52.381 22.134 106.285 44.834 152.102 7.334 14.803 15.502 29.584 24.629 43.7a3680.328 3680.328 0 0 0 23.23 56.332c19.264 45.604 48.915 91.873 103.994 93.806 17.734.622 32.597-3.446 44.977-10.765 62.06 14.369 132.139-56.715 170.192-98.457 15.502-17.002 31.889-37.178 44.965-59.117 8.025 36.04 34.115 73.568 51.118 100.17 21.781 34.089 51.329 87.938 90.735 109.949 4.771 7.437 12.186 13.008 22.528 14.578 6.027 1.821 12.055 3.64 18.082 5.459 19.994 11.976 40.211 8.835 55.291-2.486 3.493-1.25 6.986-2.684 10.468-4.415 40.177-19.962 77.773-62.825 111.094-93.09 12.363-11.226 25.411-22.306 37.14-34.24 29.001 77.822 90.37 146.775 141.882 210.049 17.06 20.959 52.117 27.64 76.923 20.334 50.171-14.779 89.965-49.868 130.124-82.519 35.074-28.519 72.265-58.484 94.873-98.05 13.767 32.323 36.615 60.49 58.829 88.88 27.608 35.282 57.505 75.087 98.8 94.3 11.307 20.527 32.237 35.647 56.757 33.681 75.016-6.013 147.881-69.885 197.412-123.967 13.984-15.275 43.687-52.929 58.287-88.859 12.871 20.976 29.76 40.202 44.942 57.073 20.08 22.324 46.255 46.665 74.057 64.79 2.905 6.712 6.729 12.834 11.404 17.508 18.984 18.985 45.365 19.318 68.527 8.841 36.518-16.517 69.126-57.091 93.903-87.801 10.65-13.199 21.74-28.419 30.376-44.711 9.72 28.895 28.99 55.524 47.717 80.678 11.706 15.723 23.23 33.26 35.416 50.593 123.235-37.383 243.085-82.512 359.031-134.803-.141-1.194-.249-2.381-.54-3.604z" fill="#FFCDD2"/><path d="M2496.456 4761.234c-39.48 12.695-77.374 30.967-114.679 50.308-27.745-57.428-56.192-120.07-107.904-157.066-20.805-14.884-50.958.841-57.151 23.249-18.105 65.523 9.246 136.711 36.312 198.571-51.175 22.771-103.572 43.033-153.046 68.789-21.187 11.027-33.202 35.494-33.613 58.598-.371 20.658 6.244 33.291 19.874 47.989 16.267 17.541 43.378 23.711 66.032 17.453 55.827-15.427 110.678-41.692 163.234-68.955 24.035 39.103 52.105 75.658 85.752 105.27 39.063 34.377 108.064 2.032 91.494-53.261-12.58-41.975-30.827-82.417-50.61-122.118 38.236-24.009 74.634-51.276 103.783-83.822 31.96-35.685 1.657-101.45-49.478-85.005z" fill="#FFCDD2"/><path d="M3209.582 4881.25c8.681-29.93-15.885-65.884-48.613-63.813-48.139 3.048-93.355 29.415-135.798 58.556-27.3-59.997-57.551-122.68-107.727-159.844-26.952-19.96-62.539 2.339-71.637 29.145-23.076 67.981 6.29 153.955 38.362 224.773-47.865 30.656-95.444 62.927-135.472 101.172-52.688 50.35 1.638 160.857 75.73 130.09 49.52-20.562 95.518-49.35 139.365-81.112 32.934 51.187 72.043 97.653 122.562 134.143 43.698 31.563 107.693-20.871 91.14-70.066-19.863-59.048-50.268-113.067-80.604-167.148 48.041-37.832 96.933-81.563 112.692-135.896z" fill="#FFCDD2"/><path d="M1126.078 5023.931c-68.401 0-68.515 106.3 0 106.3 68.395 0 68.509-106.3 0-106.3z" fill="#FFCDD2"/><path d="M1289.729 5161.463c-71.928 0-72.048 111.78 0 111.78 71.922 0 72.042-111.78 0-111.78z" fill="#FFCDD2"/><path d="M1481.964 5274.493c-12.226-11.22-27.249-18.296-44.172-18.296-16.016 0-32.842 6.967-44.172 18.296-10.833 10.833-18.99 28.61-18.293 44.169.725 16.156 6.027 32.911 18.293 44.169 12.226 11.219 27.249 18.296 44.172 18.296 16.016 0 32.842-6.969 44.172-18.296 10.833-10.833 18.99-28.61 18.293-44.169-.725-16.156-6.027-32.911-18.293-44.169z" fill="#FFCDD2"/><path d="M4796.539 5240.915c-59.937 0-60.04 93.15 0 93.15 59.937-.001 60.033-93.15 0-93.15z" fill="#FFCDD2"/><path d="M4625.091 5364.08c-14.326 0-29.383 6.234-39.52 16.37-9.691 9.693-16.992 25.598-16.37 39.521 1.358 30.281 24.56 55.89 55.89 55.89 14.332 0 29.389-6.234 39.521-16.37 9.697-9.693 16.998-25.598 16.37-39.52-1.354-30.282-24.556-55.891-55.891-55.891z" fill="#FFCDD2"/><path d="M4422.479 5460.03c-88.852 0-89 138.081 0 138.081 88.846 0 88.995-138.081 0-138.081z" fill="#FFCDD2"/><path d="M1971.827 4637.179c-33.675-26.144-79.246-18.731-122.476-4.188-.331-1.292-.719-2.574-1.044-3.867-6.535-26.039-25.017-97.132-66.797-78.151-42.642 19.369-44.543 78.264-39.874 122.925-63.019 21.626-135.455 45.271-165.261 105.251-8.356 16.818-.93 33.857 16.375 40.247 57.779 21.338 120.815-4.935 177.783-30.542 12.962 30.12 30.536 57.939 53.807 79.644 36.147 33.717 91.409.127 81.049-47.182-5.805-26.515-13.738-52.712-22.169-78.856 43.938-18.968 87.316-44.944 93.68-86.089 1-6.457.738-14.685-5.073-19.192z" fill="#FFCDD2"/></g><metadata><rdf:RDF xmlns:rdf="http://www.w3.org/1999/02/22-rdf-syntax-ns#" xmlns:rdfs="http://www.w3.org/2000/01/rdf-schema#" xmlns:dc="http://purl.org/dc/elements/1.1/"><rdf:Description about="https://iconscout.com/legal#licenses" dc:title="-school,girl" dc:description="-school,girl" dc:publisher="Iconscout" dc:date="2018-02-21" dc:format="image/svg+xml" dc:language="en"><dc:creator><rdf:Bag><rdf:li>Sooodesign .</rdf:li></rdf:Bag></dc:creator></rdf:Description></rdf:RDF></metadata></svg>