<?xml version="1.0" encoding="UTF-8"?><svg xmlns="http://www.w3.org/2000/svg" xmlns:xlink="http://www.w3.org/1999/xlink" version="1.1" x="0px" y="0px" viewBox="0 0 5984.956 5984.956" xml:space="preserve"><g id="_x33_8-Teacher"><circle cx="2992.478" cy="2992.478" r="2992.478" fill="#29B473"/><path d="M2992.478 5984.956c761.527 0 1456.468-284.614 1984.664-753.067-287.451-255.145-677.404-546.021-959.133-645.026-12.437-4.371-24.306-4.935-35.228-2.686-4.928-.594-9.966-.85-15.051-.904 5.565-180.398 10.528-360.817 15.793-541.229 9.632-330.051 21.241-660.502 22.58-990.69.377-92.979.742-185.956 1.301-278.932.582-95.925 12.877-198.682-17.834-290.849-20.077-60.26-80.476-70.844-122.279-42.33-14.923-.283-30.188 3.635-44.5 12.93-55.231 35.869-94.363 84.05-137.29 133.177-40.913 46.823-82.288 93.326-123.783 139.637-85.15 95.037-174.761 185.547-266.952 273.721-90.15 86.221-183.169 169.242-279.943 247.982-84.217 68.524-199.476 165.244-198.651 285.031-.993 1.692-1.955 3.42-2.754 5.308-23.798 56.182-18.268 109.438-15.117 169.075 3.091 58.504 8.693 116.794 10.713 175.381 3.961 114.778-.391 229.484-9.572 343.906-4.141 51.604-9.983 103.007-17.3 154.174-190.215-61.801-398.774-48.13-592.214-8.572-196.619 40.207-387.513 109.404-568.447 195.627-63.378 30.205-125.233 63.293-185.549 98.941-35.105 17.792-69.819 36.297-104.031 55.621-64.263 36.299-311.064 227.208-474.801 367.456 543.004 553.097 1299.055 896.318 2135.378 896.318z" fill="#F4C5A2"/><path d="M3787.521 4384.226c60.958 32.445 121.919 64.917 183.24 96.664 4.352-146.278 8.493-292.563 12.762-438.846 9.632-330.051 21.241-660.502 22.58-990.69.377-92.979.742-185.956 1.301-278.932.268-44.145 2.979-89.733 2.877-135.074-2.617-11.039-5.582-21.997-9.181-32.799-22.511-67.571-90.236-79.438-137.113-47.464-16.732-.318-33.85 4.076-49.9 14.498-61.928 40.221-105.806 94.246-153.942 149.333-45.878 52.504-92.271 104.647-138.8 156.576-95.478 106.566-195.959 208.056-299.334 306.926-101.089 96.681-205.389 189.773-313.904 278.065-31.31 25.475-66.415 54.466-99.36 86.683-18.299 51.773-13.367 101.611-10.445 156.938 2.069 39.183 5.211 78.273 7.703 117.418 167.707 110.004 335.693 219.549 510.183 318.621 153.856 87.357 315.278 159.022 471.333 242.083z" fill="#E5AC85"/><path d="M4368.802 2080.455c-26.205-114.254-133.481-194.279-245.46-212.621-75.831-12.423-150.179-.893-221.129 23.44 11.583-185.27 27.814-370.188 43.084-555.228 2.892-35.045-28.256-74.429-62.291-81.818-322.571-70.034-649.886-114.381-979.976-125.381-163.894-5.462-328.063-3.141-491.731 7.073-161.29 10.068-337.629 18.176-489.563 74.045-47.926 17.626-59.359 70.722-37.489 104.766-77.92 93.184-125.287 214.82-168.987 325.355-54.385 137.561-96.919 278.897-128.416 423.421-62.656 287.497-109.211 612.778 5.777 893.333 18.945 46.222 41.271 90.078 66.564 131.601 111.447 231.664 307.827 399.63 545.383 498.722 274.051 114.313 577.909 119.062 868.281 80.081 140.322-18.838 276.567-47.83 405.559-108.011 125.408-58.51 231.128-154.015 307.066-269.281 159.918-242.741 173.043-541.073 164.813-824.613 93.228-.438 187.302-13.318 266.771-63.274 107.365-67.489 181.251-192.951 151.744-321.61z" fill="#F4C5A2"/><path d="M2053.543 2226.279c-15.691-18.526-45.391-24.109-67.835-17.929-25.617 7.054-39.148 25.395-48.695 48.696-24.625 60.1 10.293 202.234 98.175 178.083 87.849-24.141 62.079-157.225 18.355-208.85z" fill="#5A4A42"/><path d="M2994.299 2226.279c15.691-18.526 45.391-24.109 67.835-17.929 25.617 7.054 39.148 25.395 48.695 48.696 24.625 60.1-10.293 202.234-98.175 178.083-87.849-24.141-62.079-157.225-18.355-208.85z" fill="#5A4A42"/><path d="M2701.428 2976.864c-2.858-10.702-13.984-16.189-24.389-13.848-76.928 17.324-122.484 87.076-208.641 80.212-84.578-6.739-124.869-79.643-195.903-112.518-13.117-6.071-25.652-.939-30.789 12.526-45.75 119.912 123.819 208.579 219.754 213.729 91.541 4.912 272.133-59.687 239.968-180.101z" fill="#5A4A42"/><path d="M2516.438 2706.715c-25.297-25.73-58.519-18.543-90.027-29.462-41.902-14.521-21.713-51.159-10.392-82.538l41.161-114.096c12.866-35.658 30.396-73.704 20.309-112.018-3.875-14.719-22.87-23.473-36.143-14.705-43.462 28.711-57.446 90.317-76.023 136.245-20.313 50.221-56.449 109.995-54.714 165.377 1.474 47.061 35.771 84.366 77.904 101.174 42.249 16.854 103.9 17.365 131.185-24.708 5.034-7.763 3.011-18.891-3.26-25.269z" fill="#5A4A42"/><path d="M3478.106 2761.299c-6.056-144.882-178.425-172.514-291.231-159.499-44.518 5.136-105.057 18.349-158.364 42.587-9.964 3.602-19.878 7.381-29.695 11.492-56.643 23.726-127.269 59.317-131.073 129.372-3.961 72.931 51.702 110.5 120.99 129.457 65.994 31.819 158.477 29.15 223.225 16.718 107.761-5.641 271.917-32.157 266.148-170.127z" fill="#ED896F"/><path d="M2987.568 2029.217c33.803 24.808 82.406 23.432 122.302 33.343 50.763 12.61 100.604 27.174 148.861 47.498 19.221 8.094 30.501-18.327 13.377-28.77-43.746-26.677-89.595-50.906-138.805-65.768-41.225-12.451-98.869-34.023-140.476-15.394-10.921 4.89-16.547 20.807-5.259 29.091z" fill="#37474F"/><path d="M2089.674 1999.978c-33.803 24.808-82.406 23.432-122.302 33.343-50.763 12.61-100.604 27.174-148.861 47.498-19.222 8.094-30.501-18.327-13.377-28.77 43.746-26.677 89.595-50.906 138.805-65.768 41.225-12.451 98.869-34.023 140.475-15.394 10.922 4.89 16.548 20.807 5.26 29.091z" fill="#37474F"/><path d="M2064.823 2802.9c-7.306-4.875-14.383-10.126-21.352-15.563-4.247-16.958-13.282-34.353-28.059-51.131-37.328-42.384-93.706-68.348-142.361-94.854-46.138-25.135-99.788-55.091-153.543-35.904-11.975 4.274-22.052 9.732-30.576 16.041-5.622 1.987-11.196 4.268-16.667 7.1a153.197 153.197 0 0 0-16.415 9.857c-17.409 2.852-34.061 9.374-49.075 21.661-34.888 28.549-47.571 78.76-21.384 117.76 6.096 9.077 13.864 16.861 22.645 23.734 41.969 76.378 168.103 107.7 258.584 114.8 63.093 10.481 127.444-1.881 185.971-30.39 14.167-6.9 22.662-23 23.921-39.371 7.312-13.994 4.583-32.879-11.689-43.74z" fill="#ED896F"/><path d="M4625.442 1364.573c-107.236-232.187-292.668-419.942-512.429-547.935-261.338-189.727-606.851-261.893-924.653-260.935-466.479 1.406-932.507 172.935-1263.51 508.682-157.575 159.831-302.237 366.399-354.754 588.779-5.365 8.364-9.369 17.364-11.353 26.716-8.35 39.388-4.098 72.499 8.875 100.483 11.407 31.044 32.796 57.588 62.996 70.077 78.675 53.008 200.948 70.836 281.435 76.515 187.275 13.213 375.595 24.179 563.401 20.041 175.58-3.869 352.684-20.733 520.939-73.281 67.622-21.121 139.268-44.354 202.261-79.291 22.383-6.577 45.422-13.716 67.499-22.692 74.702 56.765 143.218 121.478 204.555 192.547 40.408 46.819 74.466 99.15 109.779 150.222 6.244 21.856 11.515 43.976 15.171 66.279 8.29 50.574 7.483 102.214 19.697 152.259 1.575 6.458 4.281 12.262 7.777 17.426 10.091 66.436 39.891 125.517 105.881 161.475 22.426 12.221 44.24.148 53.125-21.612 51.774-126.797 66.458-265.995 87.145-400.888 5.454-35.568 9.986-71.235 14.015-106.963 6.29-3.985 12.426-9.229 18.259-15.93 97.513-112.004 294.982-131.63 390.9-4.687 43.732 57.877 62.776 139.061 46.329 209.883-19.794 85.24-87.781 139.808-153.38 191.983l-.174.139c-10.791 8.591-22.874 15.465-36.013 19.654-9.86 3.144-19.164 8.102-29.309 10.435-117.002 26.905-197.172 110.552-238.439 222.469l-.069.283c-.656 283.805-11.119 567.399-19.697 851.041 53.507 16.328 122.239-6.504 144.199-70.573 61.301-178.855 160.777-348.885 275.279-498.799 115.527-151.258 250.939-290.09 337.068-461.664 168.263-335.192 163.466-733.778 7.195-1072.138z" fill="#5D4037"/><path d="M4625.439 1364.574c-107.236-232.188-292.668-419.944-512.426-547.936-261.338-189.727-606.854-261.892-924.653-260.935-330.681.997-661.077 87.592-943.369 257.467a303.617 303.617 0 0 0-10.879 32.622c-1.119 4.104-4.76 23.875-6.416 31.347 0 6.798-.645 23.025-.668 21.618.091 5.558 3.881 27.16 2.317 21.405 1.775 7.7 3.71 15.512 6.433 22.929-.131-1.798 6.159 8.975 9.344 14.172 3.847 3.788 8.311 8.233 9.355 9.226 3.031 2.868 15.513 12.631 16.044 13.482 4.795 3.132 9.64 6.173 14.578 9.074 34.589 20.305 55.091 26.93 109.947 39.236 57.745 12.954 80.051 14.298 141.123 17.316 176.819 8.737 350.396-18.668 526.444-25.177 206.516-7.635 421.77 37.133 612.659 114.341 419.87 169.818 770.608 521.395 792.468 994.407 12.494 270.244-65.861 535.091-191.745 776.107 1.735-2.289 3.442-4.617 5.188-6.901 115.524-151.257 250.933-290.088 337.063-461.664 168.264-335.191 163.47-733.778 7.193-1072.136z" fill="#4E342E"/><path d="M4676.723 1552.528c.131 2.083.292 4.064.477 5.691-.048-1.453-.094-2.89-.146-4.346-.106-.439-.217-.885-.331-1.345z" fill="#5D4037"/><path d="M1869.363 2703.303c-15.091 0-30.239-.616-45.445-1.884-143.651-11.895-274.084-79.017-367.245-189.005-93.172-109.988-137.932-249.678-126.037-393.329 11.895-143.663 79.017-274.084 189.005-367.256 109.987-93.172 249.586-137.989 393.34-126.037 296.549 24.554 517.837 285.796 493.282 582.345-11.895 143.663-79.018 274.095-189.005 367.256-98.343 83.31-220.454 127.91-347.895 127.91zm-1.553-927.421c-91.563 0-179.29 32.043-249.952 91.894-79.017 66.94-127.236 160.637-135.786 263.844-8.539 103.207 23.618 203.559 90.547 282.577 66.94 79.018 160.637 127.236 263.833 135.786 103.15 8.516 203.548-23.607 282.588-90.535 79.017-66.94 127.236-160.637 135.786-263.844 17.637-213.057-141.334-400.726-354.38-418.374a395.993 395.993 0 0 0-32.636-1.348z" fill="#E64A19"/><path d="M3119.725 2806.841a546.23 546.23 0 0 1-45.422-1.884c-143.663-11.895-274.083-79.017-367.256-189.016-93.172-109.987-137.932-249.677-126.026-393.34 11.895-143.651 79.017-274.072 189.005-367.245 109.976-93.172 249.563-138.046 393.329-126.037 296.561 24.566 517.848 285.807 493.294 582.345-11.895 143.663-79.017 274.084-189.016 367.256-98.344 83.309-220.466 127.921-347.908 127.921zm-1.541-927.433c-91.563 0-179.279 32.043-249.94 91.894-79.017 66.94-127.236 160.637-135.786 263.844-8.55 103.207 23.607 203.56 90.536 282.577 66.94 79.029 160.637 127.247 263.844 135.798 103.15 8.527 203.559-23.607 282.577-90.547 79.029-66.94 127.248-160.637 135.798-263.844 17.637-213.046-141.345-400.726-354.391-418.374a396.5 396.5 0 0 0-32.638-1.348z" fill="#E64A19"/><path fill="#E64A19" d="M2651.511 2304.677l-283.798-19.588 10.457-151.597 283.798 19.589z"/><g><path d="M4977.142 5231.888c-197.852-175.615-444.259-368.147-670.518-503.402-98.72 69.098-193.868 142.878-291.869 214.262-141.654 103.184-285.522 203.65-431.89 300.034-272.514 179.447-553.224 346.528-841.777 498.861-264.74-292.22-519.378-593.664-763.405-903.386-83.504-105.98-165.415-213.205-246.099-321.349a2940.387 2940.387 0 0 0-110.101 49.714c-63.378 30.205-125.233 63.292-185.552 98.94-35.102 17.794-69.817 36.298-104.028 55.622-64.263 36.298-311.064 227.207-474.801 367.456 543.002 553.096 1299.049 896.317 2135.376 896.317 761.527-.001 1456.468-284.615 1984.664-753.069z" fill="#E64A19"/></g></g><metadata><rdf:RDF xmlns:rdf="http://www.w3.org/1999/02/22-rdf-syntax-ns#" xmlns:rdfs="http://www.w3.org/2000/01/rdf-schema#" xmlns:dc="http://purl.org/dc/elements/1.1/"><rdf:Description about="https://iconscout.com/legal#licenses" dc:title="-teacher" dc:description="-teacher" dc:publisher="Iconscout" dc:date="2018-02-21" dc:format="image/svg+xml" dc:language="en"><dc:creator><rdf:Bag><rdf:li>Sooodesign .</rdf:li></rdf:Bag></dc:creator></rdf:Description></rdf:RDF></metadata></svg>